<svg version="1.1" xmlns="http://www.w3.org/2000/svg" xmlns:xlink="http://www.w3.org/1999/xlink" width="103.44448" height="103.44448" viewBox="0,0,103.44448,103.44448"><defs><radialGradient cx="240" cy="180" r="51.72224" gradientUnits="userSpaceOnUse" id="color-1"><stop offset="0" stop-color="#ff0000"/><stop offset="1" stop-color="#ff0000" stop-opacity="0"/></radialGradient><radialGradient cx="251.97548" cy="178.17575" r="25.55829" gradientUnits="userSpaceOnUse" id="color-2"><stop offset="0" stop-color="#ff0000"/><stop offset="1" stop-color="#ff4200"/></radialGradient><linearGradient x1="214.44171" y1="180" x2="265.55829" y2="180" gradientUnits="userSpaceOnUse" id="color-3"><stop offset="0" stop-color="#020101"/><stop offset="1" stop-color="#ff0000"/></linearGradient></defs><g transform="translate(-188.27776,-128.27776)"><g data-paper-data="{&quot;isPaintingLayer&quot;:true}" fill-rule="nonzero" stroke-width="2.5" stroke-linecap="butt" stroke-linejoin="miter" stroke-miterlimit="10" stroke-dasharray="" stroke-dashoffset="0" style="mix-blend-mode: normal"><path d="M188.27776,180c0,-28.5654 23.15684,-51.72224 51.72224,-51.72224c28.5654,0 51.72224,23.15684 51.72224,51.72224c0,28.5654 -23.15684,51.72224 -51.72224,51.72224c-28.5654,0 -51.72224,-23.15684 -51.72224,-51.72224z" fill="url(#color-1)" stroke="none"/><path d="M214.44171,180c0,-14.11545 11.44284,-25.55829 25.55829,-25.55829c14.11545,0 25.55829,11.44284 25.55829,25.55829c0,14.11545 -11.44284,25.55829 -25.55829,25.55829c-14.11545,0 -25.55829,-11.44284 -25.55829,-25.55829z" fill="url(#color-2)" stroke="url(#color-3)"/></g></g></svg>