<svg version="1.1" xmlns="http://www.w3.org/2000/svg" xmlns:xlink="http://www.w3.org/1999/xlink" width="42.15302" height="42.15302" viewBox="0,0,42.15302,42.15302"><defs><radialGradient cx="240" cy="180" r="21.07651" gradientUnits="userSpaceOnUse" id="color-1"><stop offset="0" stop-color="#000fff"/><stop offset="1" stop-color="#000fff" stop-opacity="0"/></radialGradient><radialGradient cx="242.15672" cy="179.67146" r="4.60291" gradientUnits="userSpaceOnUse" id="color-2"><stop offset="0" stop-color="#004cff"/><stop offset="1" stop-color="#16009e"/></radialGradient><linearGradient x1="235.39709" y1="180" x2="244.60291" y2="180" gradientUnits="userSpaceOnUse" id="color-3"><stop offset="0" stop-color="#020101"/><stop offset="1" stop-color="#000fff"/></linearGradient></defs><g transform="translate(-218.92349,-158.92349)"><g data-paper-data="{&quot;isPaintingLayer&quot;:true}" fill-rule="nonzero" stroke-linecap="butt" stroke-linejoin="miter" stroke-miterlimit="10" stroke-dasharray="" stroke-dashoffset="0" style="mix-blend-mode: normal"><path d="M218.92349,180c0,-11.64023 9.43627,-21.07651 21.07651,-21.07651c11.64023,0 21.07651,9.43627 21.07651,21.07651c0,11.64023 -9.43627,21.07651 -21.07651,21.07651c-11.64023,0 -21.07651,-9.43627 -21.07651,-21.07651z" fill="url(#color-1)" stroke="none" stroke-width="0"/><path d="M235.39709,180c0,-2.54212 2.06079,-4.60291 4.60291,-4.60291c2.54212,0 4.60291,2.06079 4.60291,4.60291c0,2.54212 -2.06079,4.60291 -4.60291,4.60291c-2.54212,0 -4.60291,-2.06079 -4.60291,-4.60291z" fill="url(#color-2)" stroke="url(#color-3)" stroke-width="3"/></g></g></svg>