<svg version="1.1" xmlns="http://www.w3.org/2000/svg" xmlns:xlink="http://www.w3.org/1999/xlink" width="315.29092" height="37.51672" viewBox="0,0,315.29092,37.51672"><g transform="translate(-154.414,-280.66905)"><g data-paper-data="{&quot;isPaintingLayer&quot;:true}" fill-rule="nonzero" stroke="#ff0000" stroke-width="5.5" stroke-linejoin="miter" stroke-miterlimit="10" stroke-dasharray="" stroke-dashoffset="0" style="mix-blend-mode: normal"><path d="M439.38115,314.27381l7.05702,-13.47249c0,0 4.67019,-15.18328 7.05702,-15.18328c0.25738,0 5.77393,13.25864 5.77393,13.25864l4.91852,13.68634z" data-paper-data="{&quot;index&quot;:null}" fill="#ff0000" stroke-linecap="butt"/><path d="M436.164,314.57946l16.17687,-30.8559" data-paper-data="{&quot;index&quot;:null}" fill="none" stroke-linecap="round"/><path d="M453.23959,284.62227l13.03137,29.20826" data-paper-data="{&quot;index&quot;:null}" fill="none" stroke-linecap="round"/><path d="M466.95492,315.11454l-30.42637,0.32123" data-paper-data="{&quot;index&quot;:null}" fill="none" stroke-linecap="round"/><path d="M378.38115,314.2738l7.05702,-13.47249c0,0 4.67019,-15.18328 7.05702,-15.18328c0.25738,0 5.77392,13.25864 5.77392,13.25864l4.91853,13.68634z" data-paper-data="{&quot;index&quot;:null}" fill="#ff0000" stroke-linecap="butt"/><path d="M391.34087,283.72356l-16.17687,30.8559" data-paper-data="{&quot;index&quot;:null}" fill="none" stroke-linecap="round"/><path d="M405.27097,313.83053l-13.03137,-29.20825" data-paper-data="{&quot;index&quot;:null}" fill="none" stroke-linecap="round"/><path d="M405.95492,315.11454l-30.42637,0.32123" data-paper-data="{&quot;index&quot;:null}" fill="none" stroke-linecap="round"/><g data-paper-data="{&quot;index&quot;:null}"><path d="M410.10967,313.9693l7.05702,-13.47249c0,0 4.67019,-15.18328 7.05702,-15.18328c0.25738,0 5.77393,13.25864 5.77393,13.25864l4.91853,13.68634z" fill="#ff0000" stroke-linecap="butt"/><path d="M406.89253,314.27495l16.17688,-30.8559" fill="none" stroke-linecap="round"/><path d="M423.96812,284.31777l13.03137,29.20825" fill="none" stroke-linecap="round"/><path d="M407.25708,315.13126l30.42637,-0.32123" fill="none" stroke-linecap="round"/></g><path d="M315.38115,314.2738l7.05702,-13.47249c0,0 4.67019,-15.18328 7.05702,-15.18328c0.25738,0 5.77392,13.25864 5.77392,13.25864l4.91853,13.68634z" data-paper-data="{&quot;index&quot;:null}" fill="#ff0000" stroke-linecap="butt"/><path d="M328.34087,283.72356l-16.17687,30.8559" data-paper-data="{&quot;index&quot;:null}" fill="none" stroke-linecap="round"/><path d="M342.27096,313.83053l-13.03137,-29.20825" data-paper-data="{&quot;index&quot;:null}" fill="none" stroke-linecap="round"/><path d="M312.52855,315.43577l30.42637,-0.32123" data-paper-data="{&quot;index&quot;:null}" fill="none" stroke-linecap="round"/><g data-paper-data="{&quot;index&quot;:null}"><path d="M347.10968,313.9693l7.05702,-13.47249c0,0 4.67019,-15.18328 7.05702,-15.18328c0.25737,0 5.77392,13.25864 5.77392,13.25864l4.91853,13.68634z" fill="#ff0000" stroke-linecap="butt"/><path d="M343.89253,314.27495l16.17688,-30.8559" fill="none" stroke-linecap="round"/><path d="M360.96812,284.31777l13.03137,29.20825" fill="none" stroke-linecap="round"/><path d="M344.25708,315.13126l30.42637,-0.32123" fill="none" stroke-linecap="round"/></g><path d="M284.38115,314.27381l7.05702,-13.47249c0,0 4.67019,-15.18328 7.05702,-15.18328c0.25738,0 5.77393,13.25864 5.77393,13.25864l4.91852,13.68634z" data-paper-data="{&quot;index&quot;:null}" fill="#ff0000" stroke-linecap="butt"/><path d="M297.34087,283.72356l-16.17687,30.8559" data-paper-data="{&quot;index&quot;:null}" fill="none" stroke-linecap="round"/><path d="M311.27096,313.83053l-13.03137,-29.20826" data-paper-data="{&quot;index&quot;:null}" fill="none" stroke-linecap="round"/><path d="M281.52855,315.43577l30.42637,-0.32123" data-paper-data="{&quot;index&quot;:null}" fill="none" stroke-linecap="round"/><path d="M223.38115,314.2738l7.05702,-13.47249c0,0 4.67019,-15.18328 7.05702,-15.18328c0.25738,0 5.77392,13.25864 5.77392,13.25864l4.91853,13.68634z" data-paper-data="{&quot;index&quot;:null}" fill="#ff0000" stroke-linecap="butt"/><path d="M220.164,314.57946l16.17687,-30.8559" data-paper-data="{&quot;index&quot;:null}" fill="none" stroke-linecap="round"/><path d="M237.2396,284.62228l13.03137,29.20825" data-paper-data="{&quot;index&quot;:null}" fill="none" stroke-linecap="round"/><path d="M220.52855,315.43577l30.42637,-0.32123" data-paper-data="{&quot;index&quot;:null}" fill="none" stroke-linecap="round"/><g data-paper-data="{&quot;index&quot;:null}"><path d="M255.10967,313.9693l7.05702,-13.47249c0,0 4.67019,-15.18328 7.05702,-15.18328c0.25738,0 5.77393,13.25864 5.77393,13.25864l4.91853,13.68634z" fill="#ff0000" stroke-linecap="butt"/><path d="M268.06941,283.41905l-16.17688,30.8559" fill="none" stroke-linecap="round"/><path d="M268.96812,284.31777l13.03137,29.20825" fill="none" stroke-linecap="round"/><path d="M252.25708,315.13126l30.42637,-0.32123" fill="none" stroke-linecap="round"/></g><path d="M160.38115,314.2738l7.05702,-13.47249c0,0 4.67019,-15.18328 7.05702,-15.18328c0.25738,0 5.77392,13.25864 5.77392,13.25864l4.91853,13.68634z" data-paper-data="{&quot;index&quot;:null}" fill="#ff0000" stroke-linecap="butt"/><path d="M157.164,314.57946l16.17687,-30.8559" data-paper-data="{&quot;index&quot;:null}" fill="none" stroke-linecap="round"/><path d="M174.23959,284.62228l13.03137,29.20825" data-paper-data="{&quot;index&quot;:null}" fill="none" stroke-linecap="round"/><path d="M157.52855,315.43577l30.42637,-0.32123" data-paper-data="{&quot;index&quot;:null}" fill="none" stroke-linecap="round"/><g data-paper-data="{&quot;index&quot;:null}"><path d="M192.10968,313.9693l7.05702,-13.47249c0,0 4.67019,-15.18328 7.05702,-15.18328c0.25737,0 5.77392,13.25864 5.77392,13.25864l4.91853,13.68634z" fill="#ff0000" stroke-linecap="butt"/><path d="M188.89253,314.27495l16.17688,-30.8559" fill="none" stroke-linecap="round"/><path d="M205.96812,284.31777l13.03137,29.20825" fill="none" stroke-linecap="round"/><path d="M189.25708,315.13126l30.42637,-0.32123" fill="none" stroke-linecap="round"/></g></g></g></svg>