<svg version="1.1" xmlns="http://www.w3.org/2000/svg" xmlns:xlink="http://www.w3.org/1999/xlink" width="515.65981" height="399.83731" viewBox="0,0,515.65981,399.83731"><g transform="translate(54.36059,-7.48014)"><g data-paper-data="{&quot;isPaintingLayer&quot;:true}" fill-rule="nonzero" stroke-linejoin="miter" stroke-miterlimit="10" stroke-dasharray="" stroke-dashoffset="0" style="mix-blend-mode: normal"><path d="M-49.87208,407.31745v-64.9411h510.1713v64.9411z" fill="#9c7e3b" stroke="none" stroke-width="0" stroke-linecap="butt"/><path d="M5.21726,337.05694l-3.24495,3.24495l-24.50019,29.65188l-30.93594,-33.51952z" fill="#836932" stroke="none" stroke-width="0" stroke-linecap="round"/><path d="M50.21725,339.05694l-3.24494,3.24495l-24.50019,29.65188l-30.93594,-33.51952z" fill="#836932" stroke="none" stroke-width="0" stroke-linecap="round"/><path d="M99.21727,341.05694l-3.24494,3.24495l-24.50019,29.65188l-30.93594,-33.51952z" fill="#836932" stroke="none" stroke-width="0" stroke-linecap="round"/><path d="M143.21726,344.05694l-3.24495,3.24495l-24.50019,29.65188l-30.93594,-33.51952z" fill="#836932" stroke="none" stroke-width="0" stroke-linecap="round"/><path d="M244.21726,344.05694l-3.24495,3.24495l-24.50019,29.65188l-30.93594,-33.51952z" fill="#836932" stroke="none" stroke-width="0" stroke-linecap="round"/><path d="M192.21726,345.05694l-3.24495,3.24495l-24.50019,29.65188l-30.93594,-33.51952z" fill="#836932" stroke="none" stroke-width="0" stroke-linecap="round"/><path d="M290.21724,345.05694l-3.24494,3.24495l-24.50019,29.65188l-30.93594,-33.51952z" fill="#836932" stroke="none" stroke-width="0" stroke-linecap="round"/><path d="M337.21727,347.05694l-3.24494,3.24495l-24.50019,29.65188l-30.93594,-33.51952z" fill="#836932" stroke="none" stroke-width="0" stroke-linecap="round"/><path d="M390.21727,347.05694l-3.24494,3.24495l-24.50019,29.65188l-30.93594,-33.51952z" fill="#836932" stroke="none" stroke-width="0" stroke-linecap="round"/><path d="M447.21727,347.05694l-3.24494,3.24495l-24.50019,29.65188l-30.93594,-33.51952z" fill="#836932" stroke="none" stroke-width="0" stroke-linecap="round"/><path d="M-22.18004,346.90873v-42h468v42z" fill="#836932" stroke="none" stroke-width="0" stroke-linecap="butt"/><path d="M-54.36059,333.36483v-30.88469h506.87222v30.88469c0,0 -414.2029,0 -477.48035,0c-15.69946,0 -29.39187,0 -29.39187,0z" fill="#00a706" stroke="none" stroke-width="0" stroke-linecap="butt"/><path d="M6.21726,322.05694l-3.24495,3.24495l-24.50019,29.65188l-30.93594,-33.51952z" fill="#00a706" stroke="#00a706" stroke-width="0.5" stroke-linecap="round"/><path d="M51.21727,324.05694l-3.24495,3.24495l-24.50019,29.65188l-30.93594,-33.51952z" fill="#00a706" stroke="#00a706" stroke-width="0.5" stroke-linecap="round"/><path d="M100.21727,326.05694l-3.24495,3.24495l-24.50019,29.65188l-30.93594,-33.51952z" fill="#00a706" stroke="#00a706" stroke-width="0.5" stroke-linecap="round"/><path d="M144.21727,329.05694l-3.24495,3.24495l-24.50019,29.65188l-30.93594,-33.51952z" fill="#00a706" stroke="none" stroke-width="0" stroke-linecap="round"/><path d="M245.21727,329.05694l-3.24495,3.24495l-24.50019,29.65188l-30.93594,-33.51952z" fill="#00a706" stroke="none" stroke-width="0" stroke-linecap="round"/><path d="M193.21726,330.05694l-3.24495,3.24495l-24.50019,29.65188l-30.93594,-33.51952z" fill="#00a706" stroke="none" stroke-width="0" stroke-linecap="round"/><path d="M291.21724,330.05694l-3.24494,3.24495l-24.50019,29.65188l-30.93594,-33.51952z" fill="#00a706" stroke="none" stroke-width="0" stroke-linecap="round"/><path d="M338.21727,332.05694l-3.24494,3.24495l-24.50019,29.65188l-30.93594,-33.51952z" fill="#00a706" stroke="none" stroke-width="0" stroke-linecap="round"/><path d="M391.21727,332.05694l-3.24494,3.24495l-24.50019,29.65188l-30.93594,-33.51952z" fill="#00a706" stroke="none" stroke-width="0" stroke-linecap="round"/><path d="M448.21727,333.05694l-3.24494,3.24495l-24.50019,29.65188l-30.93594,-33.51952z" fill="#00a706" stroke="none" stroke-width="0" stroke-linecap="round"/><path d="M461.29923,7.48014v64.9411h-510.1713v-64.9411z" data-paper-data="{&quot;index&quot;:null}" fill="#9c7e3b" stroke="none" stroke-width="0" stroke-linecap="butt"/><path d="M-52.46382,78.36334l30.93594,-33.51952l24.50019,29.65188l3.24495,3.24495z" data-paper-data="{&quot;index&quot;:null}" fill="#836932" stroke="none" stroke-width="0" stroke-linecap="round"/><path d="M-7.46382,76.36334l30.93594,-33.51952l24.50019,29.65188l3.24494,3.24495z" data-paper-data="{&quot;index&quot;:null}" fill="#836932" stroke="none" stroke-width="0" stroke-linecap="round"/><path d="M41.53618,74.36334l30.93594,-33.51952l24.50019,29.65188l3.24494,3.24495z" data-paper-data="{&quot;index&quot;:null}" fill="#836932" stroke="none" stroke-width="0" stroke-linecap="round"/><path d="M85.53617,71.36334l30.93594,-33.51952l24.50019,29.65188l3.24495,3.24495z" data-paper-data="{&quot;index&quot;:null}" fill="#836932" stroke="none" stroke-width="0" stroke-linecap="round"/><path d="M186.53618,71.36334l30.93594,-33.51952l24.50019,29.65188l3.24495,3.24495z" data-paper-data="{&quot;index&quot;:null}" fill="#836932" stroke="none" stroke-width="0" stroke-linecap="round"/><path d="M134.53616,70.36334l30.93594,-33.51952l24.50019,29.65188l3.24495,3.24495z" data-paper-data="{&quot;index&quot;:null}" fill="#836932" stroke="none" stroke-width="0" stroke-linecap="round"/><path d="M232.53617,70.36334l30.93594,-33.51952l24.50019,29.65188l3.24494,3.24495z" data-paper-data="{&quot;index&quot;:null}" fill="#836932" stroke="none" stroke-width="0" stroke-linecap="round"/><path d="M279.5362,68.36334l30.93594,-33.51952l24.50019,29.65188l3.24494,3.24495z" data-paper-data="{&quot;index&quot;:null}" fill="#836932" stroke="none" stroke-width="0" stroke-linecap="round"/><path d="M332.5362,68.36334l30.93594,-33.51952l24.50019,29.65188l3.24494,3.24495z" data-paper-data="{&quot;index&quot;:null}" fill="#836932" stroke="none" stroke-width="0" stroke-linecap="round"/><path d="M389.5362,68.36334l30.93594,-33.51952l24.50019,29.65188l3.24494,3.24495z" data-paper-data="{&quot;index&quot;:null}" fill="#836932" stroke="none" stroke-width="0" stroke-linecap="round"/><path d="M446.81997,67.88886v42h-468v-42z" data-paper-data="{&quot;index&quot;:null}" fill="#836932" stroke="none" stroke-width="0" stroke-linecap="butt"/><path d="M-23.96872,81.43276c63.27745,0 477.48035,0 477.48035,0v30.88469h-506.87222v-30.88469c0,0 13.69241,0 29.39187,0z" data-paper-data="{&quot;index&quot;:null}" fill="#00a706" stroke="none" stroke-width="0" stroke-linecap="butt"/><path d="M-51.46382,93.36334l30.93594,-33.51952l24.50019,29.65188l3.24495,3.24495z" data-paper-data="{&quot;index&quot;:null}" fill="#00a706" stroke="#00a706" stroke-width="0.5" stroke-linecap="round"/><path d="M-6.46382,91.36334l30.93594,-33.51952l24.50019,29.65188l3.24495,3.24495z" data-paper-data="{&quot;index&quot;:null}" fill="#00a706" stroke="#00a706" stroke-width="0.5" stroke-linecap="round"/><path d="M42.53618,89.36334l30.93594,-33.51952l24.50019,29.65188l3.24495,3.24495z" data-paper-data="{&quot;index&quot;:null}" fill="#00a706" stroke="#00a706" stroke-width="0.5" stroke-linecap="round"/><path d="M86.53619,86.36334l30.93594,-33.51952l24.50019,29.65188l3.24495,3.24495z" data-paper-data="{&quot;index&quot;:null}" fill="#00a706" stroke="none" stroke-width="0" stroke-linecap="round"/><path d="M187.5362,86.36334l30.93594,-33.51952l24.50019,29.65188l3.24495,3.24495z" data-paper-data="{&quot;index&quot;:null}" fill="#00a706" stroke="none" stroke-width="0" stroke-linecap="round"/><path d="M135.53616,85.36334l30.93594,-33.51952l24.50019,29.65188l3.24495,3.24495z" data-paper-data="{&quot;index&quot;:null}" fill="#00a706" stroke="none" stroke-width="0" stroke-linecap="round"/><path d="M233.53619,85.36334l30.93594,-33.51952l24.50019,29.65188l3.24494,3.24495z" data-paper-data="{&quot;index&quot;:null}" fill="#00a706" stroke="none" stroke-width="0" stroke-linecap="round"/><path d="M280.5362,83.36334l30.93594,-33.51952l24.50019,29.65188l3.24494,3.24495z" data-paper-data="{&quot;index&quot;:null}" fill="#00a706" stroke="none" stroke-width="0" stroke-linecap="round"/><path d="M333.5362,83.36334l30.93594,-33.51952l24.50019,29.65188l3.24494,3.24495z" data-paper-data="{&quot;index&quot;:null}" fill="#00a706" stroke="none" stroke-width="0" stroke-linecap="round"/><path d="M390.5362,82.36334l30.93594,-33.51952l24.50019,29.65188l3.24494,3.24495z" data-paper-data="{&quot;index&quot;:null}" fill="#00a706" stroke="none" stroke-width="0" stroke-linecap="round"/></g></g></svg>