<svg version="1.1" xmlns="http://www.w3.org/2000/svg" xmlns:xlink="http://www.w3.org/1999/xlink" width="33.46366" height="33.46366" viewBox="0,0,33.46366,33.46366"><defs><linearGradient x1="245.31823" y1="169.85293" x2="245.31823" y2="189.57506" gradientUnits="userSpaceOnUse" id="color-1"><stop offset="0" stop-color="#ff5656"/><stop offset="1" stop-color="#ff5656" stop-opacity="0"/></linearGradient><linearGradient x1="237.44602" y1="188.73124" x2="234.8949" y2="169.1748" gradientUnits="userSpaceOnUse" id="color-2"><stop offset="0" stop-color="#ff5656"/><stop offset="1" stop-color="#ff5656" stop-opacity="0"/></linearGradient><radialGradient cx="240" cy="180" r="16.73183" gradientUnits="userSpaceOnUse" id="color-3"><stop offset="0" stop-color="#ff5656"/><stop offset="1" stop-color="#ff5656" stop-opacity="0"/></radialGradient></defs><g transform="translate(-223.26817,-163.26817)"><g data-paper-data="{&quot;isPaintingLayer&quot;:true}" fill-rule="nonzero" stroke-linejoin="miter" stroke-miterlimit="10" stroke-dasharray="" stroke-dashoffset="0" style="mix-blend-mode: normal"><path d="M235.36008,178.80487v-4.28841h9.20954v4.28841z" fill="#ff5656" stroke="none" stroke-width="0" stroke-linecap="butt"/><path d="M235.43333,184.22106v-3.8666h9.20954v3.8666z" fill="#ff5656" stroke="none" stroke-width="0" stroke-linecap="butt"/><path d="M226.92386,182.88237c-0.30207,-0.35538 -0.1406,-0.4791 -0.1406,-1.26543c0,-0.96579 0,-2.18296 0,-2.81207c0,-0.77968 -0.20114,-1.01304 0.35151,-1.54664c0.55265,-0.5336 0.85577,-0.42181 1.68724,-0.42181c1.31014,0 5.06173,0 5.06173,0v6.18656c0,0 -4.6838,0 -5.90535,0c-0.54954,0 -0.75245,0.21477 -1.05453,-0.1406z" fill="#ff5656" stroke="none" stroke-width="0" stroke-linecap="butt"/><path d="M252.19236,182.95563c-1.22155,0 -5.90535,0 -5.90535,0v-6.18656c0,0 3.75159,0 5.06173,0c0.83147,0 1.13459,-0.11179 1.68724,0.42181c0.55265,0.5336 0.35151,0.76696 0.35151,1.54664c0,0.62911 0,1.84628 0,2.81207c0,0.78634 0.16147,0.91005 -0.1406,1.26543c-0.30207,0.35538 -0.50499,0.1406 -1.05453,0.1406z" data-paper-data="{&quot;index&quot;:null}" fill="#ff5656" stroke="none" stroke-width="0" stroke-linecap="butt"/><path d="M238.73457,177.75034l1.12483,-1.33573l0.91392,1.12483" fill="none" stroke="#000000" stroke-width="2.5" stroke-linecap="round"/><path d="M241.12778,181.54959l-0.91392,1.12483l-1.12483,-1.33573" data-paper-data="{&quot;index&quot;:null}" fill="none" stroke="#000000" stroke-width="2.5" stroke-linecap="round"/><path d="M248.86393,179.23258l1.33573,1.12483l-1.12483,0.91392" fill="none" stroke="#000000" stroke-width="2.5" stroke-linecap="round"/><path d="M230.4478,180.78217l-1.12483,-0.91392l1.33573,-1.12483" data-paper-data="{&quot;index&quot;:null}" fill="none" stroke="#000000" stroke-width="2.5" stroke-linecap="round"/><path d="M243.45872,189.57506c0,0 3.06424,-3.89776 2.90535,-7.88337c-0.13164,-3.30203 -3.46521,-6.6997 -3.67618,-7.67285c-0.12743,-0.58782 -4.41328,2.25788 -4.41328,2.25788l3.49364,-8.79043l9.12853,4.62061c0,0 -4.15289,1.16919 -4.25927,1.71688c-0.18939,0.97501 3.7657,4.57626 3.82912,8.0895c0.07013,3.88471 -3.73967,7.66179 -3.73967,7.66179z" fill="url(#color-1)" stroke="none" stroke-width="0" stroke-linecap="butt"/><path d="M236.73879,168.93426c0,0 -2.53432,4.26139 -1.86121,8.19296c0.55766,3.25726 4.30273,6.19518 4.6378,7.13287c0.2024,0.5664 4.08414,-2.80978 4.08414,-2.80978l-2.32721,9.16849l-9.64953,-3.40099c0,0 3.96676,-1.69655 4.0014,-2.2534c0.06168,-0.99132 -4.32601,-4.05072 -4.84335,-7.52623c-0.57203,-3.843 2.71718,-8.08116 2.71718,-8.08116z" fill="url(#color-2)" stroke="none" stroke-width="0" stroke-linecap="butt"/><path d="M223.26817,180c0,-9.24073 7.4911,-16.73183 16.73183,-16.73183c9.24073,0 16.73183,7.4911 16.73183,16.73183c0,9.24073 -7.4911,16.73183 -16.73183,16.73183c-9.24073,0 -16.73183,-7.4911 -16.73183,-16.73183z" fill="url(#color-3)" stroke="none" stroke-width="0" stroke-linecap="butt"/></g></g></svg>