<svg version="1.1" xmlns="http://www.w3.org/2000/svg" xmlns:xlink="http://www.w3.org/1999/xlink" width="519.65981" height="399.83731" viewBox="0,0,519.65981,399.83731"><g transform="translate(52.36058,-6.48014)"><g data-paper-data="{&quot;isPaintingLayer&quot;:true}" fill-rule="nonzero" stroke-linejoin="miter" stroke-miterlimit="10" stroke-dasharray="" stroke-dashoffset="0" style="mix-blend-mode: normal"><path d="M-47.87207,406.31745v-64.9411h510.1713v64.9411z" fill="#9c7e3b" stroke="none" stroke-width="0" stroke-linecap="butt"/><path d="M7.21726,336.05694l-3.24495,3.24495l-24.50019,29.65188l-30.93594,-33.51952z" fill="#836932" stroke="none" stroke-width="0" stroke-linecap="round"/><path d="M52.21727,338.05694l-3.24494,3.24495l-24.50019,29.65188l-30.93594,-33.51952z" fill="#836932" stroke="none" stroke-width="0" stroke-linecap="round"/><path d="M101.21727,340.05694l-3.24494,3.24495l-24.50019,29.65188l-30.93594,-33.51952z" fill="#836932" stroke="none" stroke-width="0" stroke-linecap="round"/><path d="M145.21726,343.05694l-3.24495,3.24495l-24.50019,29.65188l-30.93594,-33.51952z" fill="#836932" stroke="none" stroke-width="0" stroke-linecap="round"/><path d="M246.21727,343.05694l-3.24495,3.24495l-24.50019,29.65188l-30.93594,-33.51952z" fill="#836932" stroke="none" stroke-width="0" stroke-linecap="round"/><path d="M194.21727,344.05694l-3.24495,3.24495l-24.50019,29.65188l-30.93594,-33.51952z" fill="#836932" stroke="none" stroke-width="0" stroke-linecap="round"/><path d="M292.21725,344.05694l-3.24494,3.24495l-24.50019,29.65188l-30.93594,-33.51952z" fill="#836932" stroke="none" stroke-width="0" stroke-linecap="round"/><path d="M339.21728,346.05694l-3.24494,3.24495l-24.50019,29.65188l-30.93594,-33.51952z" fill="#836932" stroke="none" stroke-width="0" stroke-linecap="round"/><path d="M392.21728,346.05694l-3.24494,3.24495l-24.50019,29.65188l-30.93594,-33.51952z" fill="#836932" stroke="none" stroke-width="0" stroke-linecap="round"/><path d="M449.21728,346.05694l-3.24494,3.24495l-24.50019,29.65188l-30.93594,-33.51952z" fill="#836932" stroke="none" stroke-width="0" stroke-linecap="round"/><path d="M-20.18003,345.90873v-42h468v42z" fill="#836932" stroke="none" stroke-width="0" stroke-linecap="butt"/><path d="M-52.36058,332.36483v-30.88469h506.87222v30.88469c0,0 -414.2029,0 -477.48035,0c-15.69946,0 -29.39187,0 -29.39187,0z" fill="#00a706" stroke="none" stroke-width="0" stroke-linecap="butt"/><path d="M8.21726,321.05694l-3.24495,3.24495l-24.50019,29.65188l-30.93594,-33.51952z" fill="#00a706" stroke="#00a706" stroke-width="0.5" stroke-linecap="round"/><path d="M53.21728,323.05694l-3.24495,3.24495l-24.50019,29.65188l-30.93594,-33.51952z" fill="#00a706" stroke="#00a706" stroke-width="0.5" stroke-linecap="round"/><path d="M102.21729,325.05694l-3.24495,3.24495l-24.50019,29.65188l-30.93594,-33.51952z" fill="#00a706" stroke="#00a706" stroke-width="0.5" stroke-linecap="round"/><path d="M146.21728,328.05694l-3.24495,3.24495l-24.50019,29.65188l-30.93594,-33.51952z" fill="#00a706" stroke="none" stroke-width="0" stroke-linecap="round"/><path d="M247.21727,328.05694l-3.24495,3.24495l-24.50019,29.65188l-30.93594,-33.51952z" fill="#00a706" stroke="none" stroke-width="0" stroke-linecap="round"/><path d="M195.21727,329.05694l-3.24495,3.24495l-24.50019,29.65188l-30.93594,-33.51952z" fill="#00a706" stroke="none" stroke-width="0" stroke-linecap="round"/><path d="M293.21725,329.05694l-3.24494,3.24495l-24.50019,29.65188l-30.93594,-33.51952z" fill="#00a706" stroke="none" stroke-width="0" stroke-linecap="round"/><path d="M340.21728,331.05694l-3.24494,3.24495l-24.50019,29.65188l-30.93594,-33.51952z" fill="#00a706" stroke="none" stroke-width="0" stroke-linecap="round"/><path d="M393.21728,331.05694l-3.24494,3.24495l-24.50019,29.65188l-30.93594,-33.51952z" fill="#00a706" stroke="none" stroke-width="0" stroke-linecap="round"/><path d="M450.21728,332.05694l-3.24494,3.24495l-24.50019,29.65188l-30.93594,-33.51952z" fill="#00a706" stroke="none" stroke-width="0" stroke-linecap="round"/><path d="M467.29924,6.48014v64.9411h-510.1713v-64.9411z" data-paper-data="{&quot;index&quot;:null}" fill="#9c7e3b" stroke="none" stroke-width="0" stroke-linecap="butt"/><path d="M-46.46381,77.36334l30.93594,-33.51952l24.50019,29.65188l3.24495,3.24495z" data-paper-data="{&quot;index&quot;:null}" fill="#836932" stroke="none" stroke-width="0" stroke-linecap="round"/><path d="M-1.4638,75.36334l30.93594,-33.51952l24.50019,29.65188l3.24494,3.24495z" data-paper-data="{&quot;index&quot;:null}" fill="#836932" stroke="none" stroke-width="0" stroke-linecap="round"/><path d="M47.53621,73.36334l30.93594,-33.51952l24.50019,29.65188l3.24494,3.24495z" data-paper-data="{&quot;index&quot;:null}" fill="#836932" stroke="none" stroke-width="0" stroke-linecap="round"/><path d="M91.53618,70.36334l30.93594,-33.51952l24.50019,29.65188l3.24495,3.24495z" data-paper-data="{&quot;index&quot;:null}" fill="#836932" stroke="none" stroke-width="0" stroke-linecap="round"/><path d="M192.53619,70.36334l30.93594,-33.51952l24.50019,29.65188l3.24495,3.24495z" data-paper-data="{&quot;index&quot;:null}" fill="#836932" stroke="none" stroke-width="0" stroke-linecap="round"/><path d="M140.53618,69.36334l30.93594,-33.51952l24.50019,29.65188l3.24495,3.24495z" data-paper-data="{&quot;index&quot;:null}" fill="#836932" stroke="none" stroke-width="0" stroke-linecap="round"/><path d="M238.53619,69.36334l30.93594,-33.51952l24.50019,29.65188l3.24494,3.24495z" data-paper-data="{&quot;index&quot;:null}" fill="#836932" stroke="none" stroke-width="0" stroke-linecap="round"/><path d="M285.53621,67.36334l30.93594,-33.51952l24.50019,29.65188l3.24494,3.24495z" data-paper-data="{&quot;index&quot;:null}" fill="#836932" stroke="none" stroke-width="0" stroke-linecap="round"/><path d="M338.53621,67.36334l30.93594,-33.51952l24.50019,29.65188l3.24494,3.24495z" data-paper-data="{&quot;index&quot;:null}" fill="#836932" stroke="none" stroke-width="0" stroke-linecap="round"/><path d="M395.53621,67.36334l30.93594,-33.51952l24.50019,29.65188l3.24494,3.24495z" data-paper-data="{&quot;index&quot;:null}" fill="#836932" stroke="none" stroke-width="0" stroke-linecap="round"/><path d="M452.81998,66.88886v42h-468v-42z" data-paper-data="{&quot;index&quot;:null}" fill="#836932" stroke="none" stroke-width="0" stroke-linecap="butt"/><path d="M-17.9687,80.43276c63.27745,0 477.48035,0 477.48035,0v30.88469h-506.87222v-30.88469c0,0 13.69241,0 29.39187,0z" data-paper-data="{&quot;index&quot;:null}" fill="#00a706" stroke="none" stroke-width="0" stroke-linecap="butt"/><path d="M-45.46381,92.36334l30.93594,-33.51952l24.50019,29.65188l3.24495,3.24495z" data-paper-data="{&quot;index&quot;:null}" fill="#00a706" stroke="#00a706" stroke-width="0.5" stroke-linecap="round"/><path d="M-0.4638,90.36334l30.93594,-33.51952l24.50019,29.65188l3.24495,3.24495z" data-paper-data="{&quot;index&quot;:null}" fill="#00a706" stroke="#00a706" stroke-width="0.5" stroke-linecap="round"/><path d="M48.53621,88.36334l30.93594,-33.51952l24.50019,29.65188l3.24495,3.24495z" data-paper-data="{&quot;index&quot;:null}" fill="#00a706" stroke="#00a706" stroke-width="0.5" stroke-linecap="round"/><path d="M92.5362,85.36334l30.93594,-33.51952l24.50019,29.65188l3.24495,3.24495z" data-paper-data="{&quot;index&quot;:null}" fill="#00a706" stroke="none" stroke-width="0" stroke-linecap="round"/><path d="M193.5362,85.36334l30.93594,-33.51952l24.50019,29.65188l3.24495,3.24495z" data-paper-data="{&quot;index&quot;:null}" fill="#00a706" stroke="none" stroke-width="0" stroke-linecap="round"/><path d="M141.53618,84.36334l30.93594,-33.51952l24.50019,29.65188l3.24495,3.24495z" data-paper-data="{&quot;index&quot;:null}" fill="#00a706" stroke="none" stroke-width="0" stroke-linecap="round"/><path d="M239.53619,84.36334l30.93594,-33.51952l24.50019,29.65188l3.24494,3.24495z" data-paper-data="{&quot;index&quot;:null}" fill="#00a706" stroke="none" stroke-width="0" stroke-linecap="round"/><path d="M286.53621,82.36334l30.93594,-33.51952l24.50019,29.65188l3.24494,3.24495z" data-paper-data="{&quot;index&quot;:null}" fill="#00a706" stroke="none" stroke-width="0" stroke-linecap="round"/><path d="M339.53621,82.36334l30.93594,-33.51952l24.50019,29.65188l3.24494,3.24495z" data-paper-data="{&quot;index&quot;:null}" fill="#00a706" stroke="none" stroke-width="0" stroke-linecap="round"/><path d="M396.53621,81.36334l30.93594,-33.51952l24.50019,29.65188l3.24494,3.24495z" data-paper-data="{&quot;index&quot;:null}" fill="#00a706" stroke="none" stroke-width="0" stroke-linecap="round"/></g></g></svg>