<svg version="1.1" xmlns="http://www.w3.org/2000/svg" xmlns:xlink="http://www.w3.org/1999/xlink" width="151.49999" height="140.33334" viewBox="0,0,151.49999,140.33334"><g transform="translate(-155.16669,-108.89758)"><g data-paper-data="{&quot;isPaintingLayer&quot;:true}" stroke-miterlimit="10" stroke-dasharray="" stroke-dashoffset="0" style="mix-blend-mode: normal"><g data-paper-data="{&quot;index&quot;:null}" fill-rule="evenodd"><path d="M255.92107,204.8c2.4,-0.5 5.3,-1.3 7.7,-3.5c5.5,-4.9 7.2,-13 11,-10.9c3.9,2.1 3.8,15.2 -8.4,19.2c-4.2,1.4 -8,1.4 -11.1,1.3c-0.8,0 -7.7,-0.7 -10.1,-4.1c-2.4,-3.4 -0.7,-4.3 0.1,-4.7c0.9,-0.5 7.4,3.3 10.8,2.7z" fill="#ffab19" stroke="#001026" stroke-width="1.2" stroke-linecap="round" stroke-linejoin="round"/><path d="M274.02101,190.6c2,0.6 3,4.8 2,8.3c-1,3.5 -2.6,5.3 -3.9,6.6c0.2,-0.7 0.6,-2.9 -1.1,-4.2c-2.1,-1.7 -5.8,-0.8 -5.8,-0.8c0,0 3.1,-3.8 4.7,-6.5c1.6,-2.3 2.1,-3.8 4.1,-3.4z" fill="#ffffff" stroke="none" stroke-width="1" stroke-linecap="butt" stroke-linejoin="miter"/></g><path d="M239.82106,205.6c3.7,-3.2 8.3,0.5 10.3,2c2,1.5 3,2.4 7.3,4.6c1.7,0.9 3.9,1.7 5.1,2.1c0.5,0.1 1,0.1 1.5,-0.1c0.9,-0.4 2.6,-1.1 4.5,0.3c4.2,3.7 -5.7,17.8 -11,16.1c-5.5,-1.7 -2.4,-6.5 -0.7,-8.9c0.2,-0.4 0,-0.9 -0.4,-1l-0.4,-0.1c-7.9,-2.5 -14.1,-6.9 -15.9,-8.1c-1.7,-1.2 -3.5,-4.2 -0.3,-6.9z" data-paper-data="{&quot;index&quot;:null}" fill="#ffab19" fill-rule="evenodd" stroke="#001026" stroke-width="1.2" stroke-linecap="round" stroke-linejoin="round"/><path d="M229.42107,193.7c0,2.6 -2.1,5.3 -3.3,6.9c-1.2,1.6 -6.8,7.5 -13.7,4.4c-2.9,-1.5 -9.7,-7.1 -6.1,-10.4c3.6,-3.3 6.9,0.8 9.3,2.9c2,1.8 8.1,-5.4 8.6,-5.8c1.7,-1.5 5.1,-0.8 5.2,2z" data-paper-data="{&quot;index&quot;:null}" fill="#ffab19" fill-rule="evenodd" stroke="#001026" stroke-width="1.2" stroke-linecap="round" stroke-linejoin="round"/><g data-paper-data="{&quot;index&quot;:null}" fill-rule="evenodd"><path d="M231.55342,207.49147c-1.23348,-0.85355 -2.48985,-2.30666 -4.17645,-4.54393c-1.37155,-1.849 -2.91174,-5.49288 -2.91174,-5.49288c-0.99475,-2.46384 -1.77748,-7.23744 1.52393,-7.26345c2.20222,0.01597 4.18931,-0.36013 7.56775,-0.98952c5.94984,-1.4281 7.01851,-2.2695 9.67315,1.73211c2.88121,4.69347 9.90975,7.9276 1.73269,16.54593c0,0 -4.75141,3.98423 -10.42577,10.00516c-3.84826,4.04981 -9.92996,9.88615 -12.05585,11.86872c-0.48437,0.41879 -1.07631,0.64154 -1.67205,0.76437c-9.65859,1.26951 -16.89151,0.54501 -17.0556,-3.75186c-0.27477,-7.19476 14.11022,-5.2423 14.11022,-5.2423c0,0 4.44782,-4.0727 6.47378,-6.05146z" fill="#ffab19" stroke="#001026" stroke-width="1.2" stroke-linecap="round" stroke-linejoin="round"/><path d="M232.44892,207.3572c0,0 -3.17788,-1.98016 -5.54801,-6.39293c0,0 -1.99402,-2.42568 2.19981,-5.28781c4.38605,-3.06962 6.20693,0.06318 8.09721,2.39274c2.11685,3.02141 0.17555,4.59665 -1.7543,6.47166c-1.5416,1.55996 -2.99471,2.81633 -2.99471,2.81633z" fill="#ffffff" stroke="none" stroke-width="1" stroke-linecap="butt" stroke-linejoin="miter"/></g><path d="M247.52101,197.8c-1.1,-0.7 -2.6,-1.9 -4.1,-3c-2.5,-1.8 -6.1,-5.8 -1.1,-7.6c4,-1.5 7.6,1.3 11.9,4.4c2.2,1.7 4.8,3.7 3.9,6.8c-1,3.5 -5.9,13.5 -11.8,10.2c-4.3,-2.9 -0.9,-6.4 1.3,-9.2c0.3,-0.5 0.2,-1.1 -0.1,-1.6z" data-paper-data="{&quot;index&quot;:null}" fill="#ffab19" fill-rule="evenodd" stroke="#001026" stroke-width="1.2" stroke-linecap="round" stroke-linejoin="round"/><g data-paper-data="{&quot;index&quot;:null}" fill-rule="evenodd"><path d="M224.72104,140c2.3,-0.4 4.7,-0.6 7.5,-0.4c4.7,0.2 9.2,1.9 9.2,1.9l12.1,-7.9c0.4,-0.2 0.9,0.1 0.8,0.5l-2.1,17.9c-0.6,-0.8 10.6,12.8 3.5,24.2c-7.1,11.4 -22.2,16.5 -41,12.8c-18.8,-3.7 -23.2,-14.5 -22,-20.2c1.2,-5.7 8.3,-7.8 8.3,-7.8c0,0 0.1,-4.5 3.3,-10c1.9,-3.3 8.3,-8 8.3,-8l2.6,-10.7c0.1,-0.4 0.6,-0.5 0.9,-0.3z" fill="#ffab19" stroke="#001026" stroke-width="1.2" stroke-linecap="butt" stroke-linejoin="miter"/><path d="M217.82106,166.3c8.4,0.6 19.9,-8.5 26.6,2.2c6.7,10.6 -4.8,25 -29,20c-18.6,-3.6 -23.4,-13.9 -22.2,-19.6c1.2,-5.7 8.1,-7.5 8.1,-7.5c8.5,-1.9 9.3,4.4 16.5,4.9z" fill="#ffffff" stroke="none" stroke-width="1" stroke-linecap="butt" stroke-linejoin="miter"/><path d="M223.12102,184.4c-10.5,0.6 -14.3,-6.9 -15.2,-9.6c-0.2,-0.5 0.2,-1 0.7,-0.9c1.5,0.3 4.7,0.6 10.1,0.3c6,-0.4 11.4,-2 13.3,-2.7c0.4,-0.1 0.8,0.2 0.8,0.6c0.3,4.9 -0.6,11.3 -9.7,12.3z" fill="#ffffff" stroke="#001026" stroke-width="1.2" stroke-linecap="round" stroke-linejoin="round"/><path d="M194.82106,166.4c0,0 -7.2,-0.1 -11.9,-3.9" fill="none" stroke="#001026" stroke-width="1.2" stroke-linecap="round" stroke-linejoin="round"/><path d="M194.42107,172.3c0,0 -3.9,1.9 -10.2,1.4" fill="none" stroke="#001026" stroke-width="1.2" stroke-linecap="round" stroke-linejoin="round"/><path d="M222.82106,165c0,1.6 -4.2,4.1 -6,3.9c-1.6,-0.1 -3.1,-2.9 -3,-4.3c0.1,-0.7 2.3,-0.9 4.4,-0.9c2,0 4.7,0.1 4.6,1.3z" fill="#001026" stroke="#001026" stroke-width="1.2" stroke-linecap="round" stroke-linejoin="round"/><path d="M251.12102,168.1c3.5,-3.1 12.1,-5.9 12.1,-5.9" fill="none" stroke="#001026" stroke-width="1.2" stroke-linecap="round" stroke-linejoin="round"/><path d="M262.52101,172.2c0,0 -7.4,1.1 -11.7,-0.6" fill="none" stroke="#001026" stroke-width="1.2" stroke-linecap="round" stroke-linejoin="round"/><g><path d="M216.82106,147.2c2.8,1.8 2.7,6.9 -0.2,11.4c-3,4.5 -7.6,6.6 -10.4,4.8c-2.8,-1.8 -2.7,-6.9 0.2,-11.4c2.9,-4.5 7.6,-6.7 10.4,-4.8z" fill="#ffffff" stroke="#001026" stroke-width="1.2" stroke-linecap="round" stroke-linejoin="round"/><path d="M206.82106,157.7c0,-1.1 0.8,-2 1.8,-2c1,0 1.8,0.9 1.8,2c0,1.1 -0.8,2 -1.8,2c-1,0 -1.8,-0.9 -1.8,-2" fill="#001026" stroke="none" stroke-width="1" stroke-linecap="butt" stroke-linejoin="miter"/></g><g><path d="M242.02101,150.3c3.1,2.2 2.9,7.9 -0.2,12.3c-3,4.4 -7.4,5.8 -10.7,3.9c-2.7,-1.9 -2.9,-7.3 0.1,-11.7c3,-4.4 7.7,-6.8 10.8,-4.5z" fill="#ffffff" stroke="#001026" stroke-width="1.2" stroke-linecap="round" stroke-linejoin="round"/><path d="M231.82106,160.6c0,-1.1 0.8,-1.9 1.8,-2c1,0 1.8,0.9 1.8,2c0,1.1 -0.8,2 -1.8,2c-1,0 -1.8,-0.9 -1.8,-2" fill="#001026" stroke="none" stroke-width="1" stroke-linecap="butt" stroke-linejoin="miter"/></g></g><path d="M172.50005,122.67857v115.5" fill="none" fill-rule="nonzero" stroke="#000000" stroke-width="5" stroke-linecap="round" stroke-linejoin="miter"/><path d="M290.00003,121.67857v115.5" fill="none" fill-rule="nonzero" stroke="#000000" stroke-width="5" stroke-linecap="round" stroke-linejoin="miter"/><path d="M290.75003,232.42857h-115.5" fill="none" fill-rule="nonzero" stroke="#000000" stroke-width="5" stroke-linecap="round" stroke-linejoin="miter"/><path d="M168.02387,232.73093c0,-3.9449 3.19797,-7.14286 7.14285,-7.14286c3.9449,0 7.14286,3.19797 7.14286,7.14286c0,3.9449 -3.19798,7.14285 -7.14286,7.14285c-3.9449,0 -7.14285,-3.19797 -7.14285,-7.14285z" fill="#04ff00" fill-rule="nonzero" stroke="#8a8a8a" stroke-width="5" stroke-linecap="butt" stroke-linejoin="miter"/><path d="M161.16669,232.73093c0,-7.73198 6.26801,-14.00001 13.99999,-14.00001c7.73198,0 14.00001,6.26801 14.00001,14.00001c0,7.73198 -6.26803,13.99999 -14.00001,13.99999c-7.73198,0 -13.99999,-6.26801 -13.99999,-13.99999z" fill="none" fill-rule="nonzero" stroke="#000000" stroke-width="5" stroke-linecap="butt" stroke-linejoin="miter"/><path d="M283.02383,231.89759c0,-3.9449 3.19796,-7.14286 7.14284,-7.14286c3.94489,0 7.14286,3.19797 7.14286,7.14286c0,3.9449 -3.19798,7.14285 -7.14286,7.14285c-3.94489,0 -7.14284,-3.19797 -7.14284,-7.14285z" fill="#0008ff" fill-rule="nonzero" stroke="#8a8a8a" stroke-width="5" stroke-linecap="butt" stroke-linejoin="miter"/><path d="M276.16668,232.39759c0,-7.73198 6.26801,-14.00001 13.99999,-14.00001c7.73198,0 14.00001,6.26801 14.00001,14.00001c0,7.73198 -6.26803,13.99999 -14.00001,13.99999c-7.73198,0 -13.99999,-6.26801 -13.99999,-13.99999z" fill="none" fill-rule="nonzero" stroke="#000000" stroke-width="5" stroke-linecap="butt" stroke-linejoin="miter"/><path d="M287.25005,125.42857h-115.5" fill="none" fill-rule="nonzero" stroke="#000000" stroke-width="5" stroke-linecap="round" stroke-linejoin="miter"/><path d="M164.52382,125.73093c0,-3.9449 3.19797,-7.14286 7.14285,-7.14286c3.9449,0 7.14286,3.19797 7.14286,7.14286c0,3.9449 -3.19798,7.14285 -7.14286,7.14285c-3.9449,0 -7.14285,-3.19797 -7.14285,-7.14285z" fill="#ff0000" fill-rule="nonzero" stroke="#8a8a8a" stroke-width="5" stroke-linecap="butt" stroke-linejoin="miter"/><path d="M157.66669,125.73093c0,-7.73198 6.26801,-14.00001 13.99999,-14.00001c7.73198,0 14.00001,6.26801 14.00001,14.00001c0,7.73198 -6.26803,13.99999 -14.00001,13.99999c-7.73198,0 -13.99999,-6.26801 -13.99999,-13.99999z" fill="none" fill-rule="nonzero" stroke="#000000" stroke-width="5" stroke-linecap="butt" stroke-linejoin="miter"/><path d="M279.52383,125.39759c0,-3.9449 3.19796,-7.14286 7.14284,-7.14286c3.94489,0 7.14286,3.19797 7.14286,7.14286c0,3.9449 -3.19798,7.14285 -7.14286,7.14285c-3.94489,0 -7.14284,-3.19797 -7.14284,-7.14285z" fill="#00ffff" fill-rule="nonzero" stroke="#8a8a8a" stroke-width="5" stroke-linecap="butt" stroke-linejoin="miter"/><path d="M272.66668,125.39759c0,-7.73198 6.26801,-14.00001 13.99999,-14.00001c7.73198,0 14.00001,6.26801 14.00001,14.00001c0,7.73198 -6.26803,13.99999 -14.00001,13.99999c-7.73198,0 -13.99999,-6.26801 -13.99999,-13.99999z" fill="none" fill-rule="nonzero" stroke="#000000" stroke-width="5" stroke-linecap="butt" stroke-linejoin="miter"/></g></g></svg>