<svg version="1.1" xmlns="http://www.w3.org/2000/svg" xmlns:xlink="http://www.w3.org/1999/xlink" width="37.4" height="37.4" viewBox="0,0,37.4,37.4"><defs><radialGradient cx="240" cy="180" r="18.45" gradientUnits="userSpaceOnUse" id="color-1"><stop offset="0" stop-color="#59d0ff"/><stop offset="1" stop-color="#59d0ff" stop-opacity="0"/></radialGradient><radialGradient cx="240" cy="180" r="18.45" gradientUnits="userSpaceOnUse" id="color-2"><stop offset="0" stop-color="#ff0000"/><stop offset="1" stop-color="#ff0000" stop-opacity="0"/></radialGradient><radialGradient cx="240" cy="180" r="10.95" gradientUnits="userSpaceOnUse" id="color-3"><stop offset="0" stop-color="#000000" stop-opacity="0"/><stop offset="1" stop-color="#000000" stop-opacity="0"/></radialGradient><radialGradient cx="240" cy="180" r="4.95" gradientUnits="userSpaceOnUse" id="color-4"><stop offset="0" stop-color="#000000" stop-opacity="0"/><stop offset="1" stop-color="#000000" stop-opacity="0"/></radialGradient></defs><g transform="translate(-221.3,-161.3)"><g data-paper-data="{&quot;isPaintingLayer&quot;:true}" fill-rule="nonzero" stroke-linecap="butt" stroke-linejoin="miter" stroke-miterlimit="10" stroke-dasharray="" stroke-dashoffset="0" style="mix-blend-mode: normal"><path d="M221.55,180c0,-10.18965 8.26035,-18.45 18.45,-18.45c10.18965,0 18.45,8.26035 18.45,18.45c0,10.18965 -8.26035,18.45 -18.45,18.45c-10.18965,0 -18.45,-8.26035 -18.45,-18.45z" fill="url(#color-1)" stroke="url(#color-2)" stroke-width="0.5"/><path d="M229.05,180c0,-6.04752 4.90248,-10.95 10.95,-10.95c6.04752,0 10.95,4.90248 10.95,10.95c0,6.04752 -4.90248,10.95 -10.95,10.95c-6.04752,0 -10.95,-4.90248 -10.95,-10.95z" fill="url(#color-3)" stroke="#59d0ff" stroke-width="3"/><path d="M235.05,180c0,-2.73381 2.21619,-4.95 4.95,-4.95c2.73381,0 4.95,2.21619 4.95,4.95c0,2.73381 -2.21619,4.95 -4.95,4.95c-2.73381,0 -4.95,-2.21619 -4.95,-4.95z" fill="url(#color-4)" stroke="#59d0ff" stroke-width="3"/></g></g></svg>