<svg version="1.1" xmlns="http://www.w3.org/2000/svg" xmlns:xlink="http://www.w3.org/1999/xlink" width="514.65981" height="263.13933" viewBox="0,0,514.65981,263.13933"><g transform="translate(53.36059,-126.17812)"><g data-paper-data="{&quot;isPaintingLayer&quot;:true}" fill-rule="nonzero" stroke-linejoin="miter" stroke-miterlimit="10" stroke-dasharray="" stroke-dashoffset="0" style="mix-blend-mode: normal"><path d="M-48.87207,389.31745v-64.9411h510.1713v64.9411z" fill="#9c7e3b" stroke="none" stroke-width="0" stroke-linecap="butt"/><path d="M6.21727,319.05694l-3.24495,3.24495l-24.50019,29.65188l-30.93594,-33.51952z" fill="#836932" stroke="none" stroke-width="0" stroke-linecap="round"/><path d="M51.21726,321.05694l-3.24494,3.24495l-24.50019,29.65188l-30.93594,-33.51952z" fill="#836932" stroke="none" stroke-width="0" stroke-linecap="round"/><path d="M100.21727,323.05694l-3.24494,3.24495l-24.50019,29.65188l-30.93594,-33.51952z" fill="#836932" stroke="none" stroke-width="0" stroke-linecap="round"/><path d="M144.21726,326.05694l-3.24495,3.24495l-24.50019,29.65188l-30.93594,-33.51952z" fill="#836932" stroke="none" stroke-width="0" stroke-linecap="round"/><path d="M245.21726,326.05694l-3.24495,3.24495l-24.50019,29.65188l-30.93594,-33.51952z" fill="#836932" stroke="none" stroke-width="0" stroke-linecap="round"/><path d="M193.21726,327.05694l-3.24495,3.24495l-24.50019,29.65188l-30.93594,-33.51952z" fill="#836932" stroke="none" stroke-width="0" stroke-linecap="round"/><path d="M291.21725,327.05694l-3.24494,3.24495l-24.50019,29.65188l-30.93594,-33.51952z" fill="#836932" stroke="none" stroke-width="0" stroke-linecap="round"/><path d="M338.21727,329.05694l-3.24494,3.24495l-24.50019,29.65188l-30.93594,-33.51952z" fill="#836932" stroke="none" stroke-width="0" stroke-linecap="round"/><path d="M391.21727,329.05694l-3.24494,3.24495l-24.50019,29.65188l-30.93594,-33.51952z" fill="#836932" stroke="none" stroke-width="0" stroke-linecap="round"/><path d="M448.21727,329.05694l-3.24494,3.24495l-24.50019,29.65188l-30.93594,-33.51952z" fill="#836932" stroke="none" stroke-width="0" stroke-linecap="round"/><path d="M-21.18003,328.90873v-42h468v42z" fill="#836932" stroke="none" stroke-width="0" stroke-linecap="butt"/><path d="M-53.36058,315.36483v-30.88469h506.87222v30.88469c0,0 -414.2029,0 -477.48035,0c-15.69946,0 -29.39187,0 -29.39187,0z" fill="#00a706" stroke="none" stroke-width="0" stroke-linecap="butt"/><path d="M7.21727,304.05694l-3.24495,3.24495l-24.50019,29.65188l-30.93594,-33.51952z" fill="#00a706" stroke="#00a706" stroke-width="0.5" stroke-linecap="round"/><path d="M52.21728,306.05694l-3.24495,3.24495l-24.50019,29.65188l-30.93594,-33.51952z" fill="#00a706" stroke="#00a706" stroke-width="0.5" stroke-linecap="round"/><path d="M101.21728,308.05694l-3.24495,3.24495l-24.50019,29.65188l-30.93594,-33.51952z" fill="#00a706" stroke="#00a706" stroke-width="0.5" stroke-linecap="round"/><path d="M145.21728,311.05694l-3.24495,3.24495l-24.50019,29.65188l-30.93594,-33.51952z" fill="#00a706" stroke="none" stroke-width="0" stroke-linecap="round"/><path d="M246.21727,311.05694l-3.24495,3.24495l-24.50019,29.65188l-30.93594,-33.51952z" fill="#00a706" stroke="none" stroke-width="0" stroke-linecap="round"/><path d="M194.21726,312.05694l-3.24495,3.24495l-24.50019,29.65188l-30.93594,-33.51952z" fill="#00a706" stroke="none" stroke-width="0" stroke-linecap="round"/><path d="M292.21725,312.05694l-3.24494,3.24495l-24.50019,29.65188l-30.93594,-33.51952z" fill="#00a706" stroke="none" stroke-width="0" stroke-linecap="round"/><path d="M339.21727,314.05694l-3.24494,3.24495l-24.50019,29.65188l-30.93594,-33.51952z" fill="#00a706" stroke="none" stroke-width="0" stroke-linecap="round"/><path d="M392.21727,314.05694l-3.24494,3.24495l-24.50019,29.65188l-30.93594,-33.51952z" fill="#00a706" stroke="none" stroke-width="0" stroke-linecap="round"/><path d="M449.21727,315.05694l-3.24494,3.24495l-24.50019,29.65188l-30.93594,-33.51952z" fill="#00a706" stroke="none" stroke-width="0" stroke-linecap="round"/><path d="M102.5,357.50001v-230.52812h151v230.52812z" fill="#9c7e3b" stroke="none" stroke-width="0" stroke-linecap="butt"/><path d="M256.21727,139.05694l-3.24495,3.24495l-24.50019,29.65188l-30.93594,-33.51952z" fill="#836932" stroke="none" stroke-width="0" stroke-linecap="round"/><path d="M207.21727,139.05694l-3.24495,3.24495l-24.50019,29.65188l-30.93594,-33.51952z" fill="#836932" stroke="none" stroke-width="0" stroke-linecap="round"/><path d="M209.21727,141.05694l-3.24495,3.24495l-24.50019,29.65188l-30.93594,-33.51952z" fill="#836932" stroke="none" stroke-width="0" stroke-linecap="round"/><path d="M162.21727,138.05694l-3.24495,3.24495l-24.50019,29.65188l-30.93594,-33.51952z" fill="#836932" stroke="none" stroke-width="0" stroke-linecap="round"/><path d="M102.63941,140.36483v-10.88469h147.87222v10.88469c0,0 -120.83736,0 -139.29759,0c-4.58008,0 -8.57463,0 -8.57463,0z" fill="#00a706" stroke="none" stroke-width="0" stroke-linecap="butt"/><path d="M163.21727,127.05694l-3.24495,3.24495l-24.50019,29.65188l-30.93594,-33.51952z" fill="#00a706" stroke="#00a706" stroke-width="0.5" stroke-linecap="round"/><path d="M208.21727,128.05694l-3.24495,3.24495l-24.50019,29.65188l-30.93594,-33.51952z" fill="#00a706" stroke="#00a706" stroke-width="0.5" stroke-linecap="round"/><path d="M255.21727,140.05694l-3.24495,3.24495l-24.50019,29.65188l-30.93594,-33.51952z" fill="#836932" stroke="none" stroke-width="0" stroke-linecap="round"/><path d="M257.21727,128.05694l-3.24495,3.24495l-24.50019,29.65188l-30.93594,-33.51952z" fill="#00a706" stroke="#00a706" stroke-width="0.5" stroke-linecap="round"/></g></g></svg>