<svg version="1.1" xmlns="http://www.w3.org/2000/svg" xmlns:xlink="http://www.w3.org/1999/xlink" width="509.04647" height="194.82122" viewBox="0,0,509.04647,194.82122"><g transform="translate(62.586,-108.66905)"><g data-paper-data="{&quot;isPaintingLayer&quot;:true}" fill-rule="nonzero" stroke="#ff0000" stroke-width="5.5" stroke-linejoin="miter" stroke-miterlimit="10" stroke-dasharray="" stroke-dashoffset="0" style="mix-blend-mode: normal"><path d="M111.38114,299.57831l7.05702,-13.47249c0,0 4.67019,-15.18328 7.05702,-15.18328c0.25738,0 5.77392,13.25864 5.77392,13.25864l4.91852,13.68634z" fill="#ff0000" stroke-linecap="butt"/><path d="M124.34088,269.02806l-16.17688,30.8559" fill="none" stroke-linecap="round"/><path d="M138.27096,299.13504l-13.03137,-29.20826" fill="none" stroke-linecap="round"/><path d="M108.52855,300.74027l30.42636,-0.32123" fill="none" stroke-linecap="round"/><g><path d="M143.10967,299.2738l7.05702,-13.47249c0,0 4.67019,-15.18328 7.05702,-15.18328c0.25738,0 5.77393,13.25864 5.77393,13.25864l4.91852,13.68634z" fill="#ff0000" stroke-linecap="butt"/><path d="M139.89253,299.57946l16.17687,-30.8559" fill="none" stroke-linecap="round"/><path d="M156.96812,269.62227l13.03137,29.20826" fill="none" stroke-linecap="round"/><path d="M140.25708,300.43577l30.42637,-0.32123" fill="none" stroke-linecap="round"/></g><g><path d="M175.1367,298.9693l7.05702,-13.47249c0,0 4.67019,-15.18328 7.05702,-15.18328c0.25738,0 5.77392,13.25864 5.77392,13.25864l4.91853,13.68634z" fill="#ff0000" stroke-linecap="butt"/><path d="M188.09643,268.41905l-16.17687,30.8559" fill="none" stroke-linecap="round"/><path d="M188.99515,269.31777l13.03137,29.20826" fill="none" stroke-linecap="round"/><path d="M172.28411,300.13126l30.42637,-0.32123" fill="none" stroke-linecap="round"/></g><path d="M205.38115,299.57831l7.05702,-13.47249c0,0 4.67019,-15.18328 7.05702,-15.18328c0.25738,0 5.77393,13.25864 5.77393,13.25864l4.91852,13.68634z" fill="#ff0000" stroke-linecap="butt"/><path d="M218.34087,269.02806l-16.17687,30.8559" fill="none" stroke-linecap="round"/><path d="M232.27096,299.13503l-13.03137,-29.20825" fill="none" stroke-linecap="round"/><path d="M232.95492,300.41904l-30.42637,0.32123" fill="none" stroke-linecap="round"/><g><path d="M237.10968,299.2738l7.05702,-13.47249c0,0 4.67019,-15.18328 7.05702,-15.18328c0.25738,0 5.77392,13.25864 5.77392,13.25864l4.91852,13.68634z" fill="#ff0000" stroke-linecap="butt"/><path d="M233.89253,299.57946l16.17687,-30.8559" fill="none" stroke-linecap="round"/><path d="M250.96812,269.62227l13.03138,29.20826" fill="none" stroke-linecap="round"/><path d="M234.25708,300.43577l30.42637,-0.32123" fill="none" stroke-linecap="round"/></g><path d="M92.18764,114.2918l-4.91852,13.68634c0,0 -5.51655,13.25864 -5.77393,13.25864c-2.38683,0 -7.05702,-15.18328 -7.05702,-15.18328l-7.05702,-13.47249z" data-paper-data="{&quot;index&quot;:null}" fill="#ff0000" stroke-linecap="butt"/><path d="M64.164,112.27536l16.17687,30.8559" data-paper-data="{&quot;index&quot;:null}" fill="none" stroke-linecap="round"/><path d="M94.27096,113.02429l-13.03137,29.20826" data-paper-data="{&quot;index&quot;:null}" fill="none" stroke-linecap="round"/><path d="M64.52855,111.41905l30.42637,0.32123" data-paper-data="{&quot;index&quot;:null}" fill="none" stroke-linecap="round"/><path d="M283.18764,114.2918l-4.91852,13.68634c0,0 -5.51655,13.25864 -5.77393,13.25864c-2.38683,0 -7.05702,-15.18328 -7.05702,-15.18328l-7.05702,-13.47249z" data-paper-data="{&quot;index&quot;:null}" fill="#ff0000" stroke-linecap="butt"/><path d="M271.34088,143.13126l-16.17687,-30.8559" data-paper-data="{&quot;index&quot;:null}" fill="none" stroke-linecap="round"/><path d="M285.27097,113.02429l-13.03137,29.20826" data-paper-data="{&quot;index&quot;:null}" fill="none" stroke-linecap="round"/><path d="M255.52855,111.41905l30.42637,0.32123" data-paper-data="{&quot;index&quot;:null}" fill="none" stroke-linecap="round"/><g data-paper-data="{&quot;index&quot;:null}"><path d="M314.91616,114.59631l-4.91852,13.68634c0,0 -5.51654,13.25864 -5.77392,13.25864c-2.38683,0 -7.05702,-15.18328 -7.05702,-15.18328l-7.05702,-13.47249z" fill="#ff0000" stroke-linecap="butt"/><path d="M303.06941,143.43576l-16.17687,-30.8559" fill="none" stroke-linecap="round"/><path d="M303.96812,142.53705l13.03138,-29.20825" fill="none" stroke-linecap="round"/><path d="M317.68345,112.04478l-30.42637,-0.32123" fill="none" stroke-linecap="round"/></g><g data-paper-data="{&quot;index&quot;:null}"><path d="M346.94319,114.90081l-4.91852,13.68634c0,0 -5.51655,13.25864 -5.77393,13.25864c-2.38683,0 -7.05702,-15.18328 -7.05702,-15.18328l-7.05702,-13.47249z" fill="#ff0000" stroke-linecap="butt"/><path d="M318.91956,112.88437l16.17687,30.8559" fill="none" stroke-linecap="round"/><path d="M335.99514,142.84155l13.03138,-29.20826" fill="none" stroke-linecap="round"/><path d="M319.28411,112.02806l30.42636,0.32123" fill="none" stroke-linecap="round"/></g><path d="M377.18764,114.2918l-4.91852,13.68634c0,0 -5.51655,13.25864 -5.77393,13.25864c-2.38683,0 -7.05702,-15.18328 -7.05702,-15.18328l-7.05702,-13.47249z" data-paper-data="{&quot;index&quot;:null}" fill="#ff0000" stroke-linecap="butt"/><path d="M349.164,112.27536l16.17687,30.8559" data-paper-data="{&quot;index&quot;:null}" fill="none" stroke-linecap="round"/><path d="M366.23959,142.23254l13.03137,-29.20826" data-paper-data="{&quot;index&quot;:null}" fill="none" stroke-linecap="round"/><path d="M379.95492,111.74028l-30.42637,-0.32123" data-paper-data="{&quot;index&quot;:null}" fill="none" stroke-linecap="round"/><g data-paper-data="{&quot;index&quot;:null}"><path d="M408.91617,114.59631l-4.91852,13.68634c0,0 -5.51654,13.25864 -5.77392,13.25864c-2.38683,0 -7.05702,-15.18328 -7.05702,-15.18328l-7.05702,-13.47249z" fill="#ff0000" stroke-linecap="butt"/><path d="M380.89253,112.57986l16.17687,30.8559" fill="none" stroke-linecap="round"/><path d="M397.96812,142.53705l13.03138,-29.20825" fill="none" stroke-linecap="round"/><path d="M411.68345,112.04478l-30.42637,-0.32123" fill="none" stroke-linecap="round"/></g><g data-paper-data="{&quot;index&quot;:null}"><path d="M440.94319,114.90081l-4.91852,13.68634c0,0 -5.51655,13.25864 -5.77393,13.25864c-2.38683,0 -7.05702,-15.18328 -7.05702,-15.18328l-7.05702,-13.47249z" fill="#ff0000" stroke-linecap="butt"/><path d="M412.91956,112.88437l16.17687,30.8559" fill="none" stroke-linecap="round"/><path d="M443.02652,113.6333l-13.03138,29.20826" fill="none" stroke-linecap="round"/><path d="M413.28411,112.02806l30.42636,0.32123" fill="none" stroke-linecap="round"/></g><path d="M31.18764,114.29181l-4.91853,13.68634c0,0 -5.51654,13.25864 -5.77392,13.25864c-2.38683,0 -7.05702,-15.18328 -7.05702,-15.18328l-7.05702,-13.47249z" data-paper-data="{&quot;index&quot;:null}" fill="#ff0000" stroke-linecap="butt"/><path d="M3.164,112.27536l16.17687,30.8559" data-paper-data="{&quot;index&quot;:null}" fill="none" stroke-linecap="round"/><path d="M33.27097,113.02429l-13.03137,29.20825" data-paper-data="{&quot;index&quot;:null}" fill="none" stroke-linecap="round"/><path d="M3.52855,111.41905l30.42637,0.32123" data-paper-data="{&quot;index&quot;:null}" fill="none" stroke-linecap="round"/><g data-paper-data="{&quot;index&quot;:null}"><path d="M62.91617,114.59631l-4.91853,13.68634c0,0 -5.51655,13.25864 -5.77393,13.25864c-2.38683,0 -7.05702,-15.18328 -7.05702,-15.18328l-7.05702,-13.47249z" fill="#ff0000" stroke-linecap="butt"/><path d="M51.06941,143.43577l-16.17688,-30.8559" fill="none" stroke-linecap="round"/><path d="M51.96812,142.53705l13.03137,-29.20825" fill="none" stroke-linecap="round"/><path d="M65.68345,112.04479l-30.42637,-0.32123" fill="none" stroke-linecap="round"/></g><path d="M-31.81236,114.29181l-4.91853,13.68634c0,0 -5.51654,13.25864 -5.77392,13.25864c-2.38683,0 -7.05702,-15.18328 -7.05702,-15.18328l-7.05702,-13.47249z" data-paper-data="{&quot;index&quot;:null}" fill="#ff0000" stroke-linecap="butt"/><path d="M-59.836,112.27536l16.17687,30.8559" data-paper-data="{&quot;index&quot;:null}" fill="none" stroke-linecap="round"/><path d="M-29.72904,113.02429l-13.03137,29.20825" data-paper-data="{&quot;index&quot;:null}" fill="none" stroke-linecap="round"/><path d="M-29.04508,111.74028l-30.42637,-0.32123" data-paper-data="{&quot;index&quot;:null}" fill="none" stroke-linecap="round"/><g data-paper-data="{&quot;index&quot;:null}"><path d="M-0.08383,114.59631l-4.91853,13.68634c0,0 -5.51655,13.25864 -5.77392,13.25864c-2.38683,0 -7.05702,-15.18328 -7.05702,-15.18328l-7.05702,-13.47249z" fill="#ff0000" stroke-linecap="butt"/><path d="M-28.10747,112.57987l16.17688,30.8559" fill="none" stroke-linecap="round"/><path d="M-11.03188,142.53705l13.03137,-29.20825" fill="none" stroke-linecap="round"/><path d="M-27.74292,111.72356l30.42637,0.32123" fill="none" stroke-linecap="round"/></g></g></g></svg>