<svg version="1.1" xmlns="http://www.w3.org/2000/svg" xmlns:xlink="http://www.w3.org/1999/xlink" width="119.87504" height="120.58579" viewBox="0,0,119.87504,120.58579"><g transform="translate(-385.81749,27.33635)"><g data-paper-data="{&quot;isPaintingLayer&quot;:true}" fill-rule="nonzero" stroke-linejoin="miter" stroke-miterlimit="10" stroke-dasharray="" stroke-dashoffset="0" style="mix-blend-mode: normal"><path d="M424.50001,35.74182c0,-11.87412 9.62588,-21.5 21.5,-21.5c11.87412,0 21.5,9.62588 21.5,21.5c0,11.87412 -9.62588,21.5 -21.5,21.5c-11.87412,0 -21.5,-9.62588 -21.5,-21.5z" fill="#ff0000" stroke="none" stroke-width="0" stroke-linecap="butt"/><path d="M434.07148,-1.24614l11.54414,-23.5902" fill="#ffde00" stroke="#ffde00" stroke-width="5" stroke-linecap="round"/><path d="M446.11755,-24.83634l14.27333,22.83732" fill="#ffde00" stroke="#ffde00" stroke-width="5" stroke-linecap="round"/><path d="M434.07149,0.25961l26.35076,-0.75288" fill="#ffde00" stroke="#ffde00" stroke-width="5" stroke-linecap="round"/><path d="M439.09068,-9.02589l4.51727,0.50192c0,0 -3.4673,-7.7758 1.03492,-10.88474c1.04095,-0.71882 -1.05522,-1.66324 1.47467,-1.66324c5.34569,0 3.27173,3.38299 5.48713,6.28698c4.75709,6.23569 5.34055,11.78211 5.34055,11.78211l-20.32773,0.50192z" fill="#ffde00" stroke="#ffde00" stroke-width="5" stroke-linecap="butt"/><path d="M458.65727,-3.38407l24.36555,-9.80229" fill="#ffde00" stroke="#ffde00" stroke-width="5" stroke-linecap="round"/><path d="M483.39577,-12.85044l-4.67848,26.52137" fill="#ffde00" stroke="#ffde00" stroke-width="5" stroke-linecap="round"/><path d="M477.73286,14.81074l-20.08333,-17.07599" fill="#ffde00" stroke="#ffde00" stroke-width="5" stroke-linecap="round"/><path d="M467.59334,-5.80555l3.02056,3.39616c0,0 2.62768,-8.09818 8.05366,-7.39508c1.25453,0.16257 0.32907,-1.94205 2.20886,-0.2489c3.97202,3.57764 0.16691,4.7033 -0.13049,8.34372c-0.6386,7.81702 -3.91705,12.32867 -3.91705,12.32867l-15.44007,-13.23151z" fill="#ffde00" stroke="#ffde00" stroke-width="5" stroke-linecap="butt"/><path d="M477.68659,13.93628l25.40674,6.65302" fill="#ffde00" stroke="#ffde00" stroke-width="5" stroke-linecap="round"/><path d="M503.19254,21.08133l-19.56512,18.50616" fill="#ffde00" stroke="#ffde00" stroke-width="5" stroke-linecap="round"/><path d="M476.21054,14.23395l5.94704,25.68194" fill="#ffde00" stroke="#ffde00" stroke-width="5" stroke-linecap="round"/><path d="M486.30499,17.31853l0.40096,4.52736c0,0 6.93693,-4.936 10.87453,-1.1372c0.91041,0.87832 1.42182,-1.3632 1.92194,1.11678c1.05673,5.2402 -2.66948,3.87592 -5.07823,6.62167c-5.17225,5.89588 -10.49388,7.56425 -10.49388,7.56425l-4.5104,-19.82737z" fill="#ffde00" stroke="#ffde00" stroke-width="5" stroke-linecap="butt"/><path d="M499.06789,59.5613l-14.42544,-21.94702" fill="#ffde00" stroke="#ffde00" stroke-width="5" stroke-linecap="round"/><path d="M498.81233,59.99329l-26.92286,0.65659" fill="#ffde00" stroke="#ffde00" stroke-width="5" stroke-linecap="round"/><path d="M483.34649,36.8476l-12.76895,23.0626" fill="#ffde00" stroke="#ffde00" stroke-width="5" stroke-linecap="round"/><path d="M488.78262,45.89533l-2.73204,3.63231c0,0 8.45782,0.97498 8.8412,6.43287c0.08864,1.26191 1.96878,-0.06133 0.68064,2.11607c-2.72185,4.60086 -4.57749,1.09337 -8.20487,1.52148c-7.78901,0.91927 -12.85971,-1.40263 -12.85971,-1.40263l9.91821,-17.75098z" fill="#ffde00" stroke="#ffde00" stroke-width="5" stroke-linecap="butt"/><path d="M472.81769,59.38876l-0.59195,26.25671" fill="#ffde00" stroke="#ffde00" stroke-width="5" stroke-linecap="round"/><path d="M471.77005,85.85586l-22.53201,-14.75058" fill="#ffde00" stroke="#ffde00" stroke-width="5" stroke-linecap="round"/><path d="M472.18648,58.02169l-23.60813,11.72968" fill="#ffde00" stroke="#ffde00" stroke-width="5" stroke-linecap="round"/><path d="M471.52203,68.55598l-4.31162,1.43794c0,0 6.40753,5.60614 3.62324,10.31605c-0.64375,1.08898 1.65525,1.0677 -0.64163,2.12822c-4.85333,2.24089 -4.38852,-1.69991 -7.61722,-3.40774c-6.93292,-3.66719 -9.78767,-8.45819 -9.78767,-8.45819l18.24505,-8.977z" fill="#ffde00" stroke="#ffde00" stroke-width="5" stroke-linecap="butt"/><path d="M451.39258,71.63604l-18.01229,19.11341" fill="#ffde00" stroke="#ffde00" stroke-width="5" stroke-linecap="round"/><path d="M432.90088,90.60081l-6.87009,-26.03984" fill="#ffde00" stroke="#ffde00" stroke-width="5" stroke-linecap="round"/><path d="M451.83849,70.19782l-25.39176,-7.08436" fill="#ffde00" stroke="#ffde00" stroke-width="5" stroke-linecap="round"/><path d="M444.29464,77.58044l-4.16602,-1.81715c0,0 1.00907,8.45382 -4.21189,10.09003c-1.20713,0.37831 0.51534,1.90112 -1.90108,1.15192c-5.10591,-1.58307 -2.12314,-4.20013 -3.37919,-7.62993c-2.69709,-7.36474 -1.61186,-12.83516 -1.61186,-12.83516l19.56457,5.54041z" fill="#ffde00" stroke="#ffde00" stroke-width="5" stroke-linecap="butt"/><path d="M426.85532,63.88798l-25.85559,4.61016" fill="#ffde00" stroke="#ffde00" stroke-width="5" stroke-linecap="round"/><path d="M410.70877,43.08974l-10.00537,25.00328" fill="#ffde00" stroke="#ffde00" stroke-width="5" stroke-linecap="round"/><path d="M411.90557,42.17543l16.16506,20.82355" fill="#ffde00" stroke="#ffde00" stroke-width="5" stroke-linecap="round"/><path d="M417.61287,64.43007l-2.26188,-3.94229c0,0 -4.22886,7.38931 -9.39623,5.59102c-1.19475,-0.41578 -0.71942,1.83366 -2.21307,-0.20825c-3.15607,-4.31458 0.79883,-4.63797 1.83472,-8.14055c2.22433,-7.52104 6.35645,-11.26654 6.35645,-11.26654l12.40654,16.11044z" fill="#ffde00" stroke="#ffde00" stroke-width="5" stroke-linecap="butt"/><path d="M388.3175,31.42819l22.2969,13.87851" fill="#ffde00" stroke="#ffde00" stroke-width="5" stroke-linecap="round"/><path d="M388.36843,30.92886l24.1679,-11.88207" fill="#ffde00" stroke="#ffde00" stroke-width="5" stroke-linecap="round"/><path d="M414.0375,19.16837l-1.92512,26.29113" fill="#ffde00" stroke="#ffde00" stroke-width="5" stroke-linecap="round"/><path d="M403.38416,39.52392l0.95776,-4.44302c0,0 -8.08753,2.66031 -10.72352,-2.13417c-0.60947,-1.10853 -1.76173,0.88099 -1.505,-1.63585c0.54248,-5.31809 3.69755,-2.91153 6.81136,-4.82079c6.68625,-4.09973 12.26325,-4.1173 12.26325,-4.1173l-1.56356,20.27372z" fill="#ffde00" stroke="#ffde00" stroke-width="5" stroke-linecap="butt"/><path d="M411.30472,17.10236l-5.44337,-25.69308" fill="#ffde00" stroke="#ffde00" stroke-width="5" stroke-linecap="round"/><path d="M406.25667,-8.9l25.31357,9.19208" fill="#ffde00" stroke="#ffde00" stroke-width="5" stroke-linecap="round"/><path d="M412.23252,18.28831l20.29024,-16.82961" fill="#ffde00" stroke="#ffde00" stroke-width="5" stroke-linecap="round"/><path d="M410.46421,7.88225l3.86713,-2.38811c0,0 -7.52213,-3.98784 -5.89178,-9.21062c0.37696,-1.20755 -1.85594,-0.65978 0.13663,-2.21864c4.21032,-3.29387 4.66136,0.64853 8.19559,1.57067c7.589,1.9801 11.46609,5.98902 11.46609,5.98902l-15.70106,12.92072z" fill="#ffde00" stroke="#ffde00" stroke-width="5" stroke-linecap="butt"/><path d="M435.51245,5.32533l9.1323,-18.66168" fill="#ff9f00" stroke="#ff9f00" stroke-width="5" stroke-linecap="round"/><path d="M456.33311,4.72975l-11.2913,-18.06609" fill="#ff9f00" stroke="#ff9f00" stroke-width="5" stroke-linecap="round"/><path d="M435.51245,6.51649l20.84549,-0.59558" fill="#ff9f00" stroke="#ff9f00" stroke-width="5" stroke-linecap="round"/><path d="M439.48301,-0.82905l3.57352,0.39705c0,0 -2.74291,-6.15125 0.8187,-8.61067c0.82347,-0.56864 -0.83476,-1.31575 1.16658,-1.31575c4.22886,0 2.58819,2.67621 4.34075,4.97349c3.76322,4.93291 4.22478,9.32055 4.22478,9.32055l-16.0808,0.39706z" fill="#ff9f00" stroke="#ff9f00" stroke-width="5" stroke-linecap="butt"/><path d="M454.9617,3.63406l19.27503,-7.75437" fill="#ff9f00" stroke="#ff9f00" stroke-width="5" stroke-linecap="round"/><path d="M470.83072,17.12588l3.70104,-20.98046" fill="#ff9f00" stroke="#ff9f00" stroke-width="5" stroke-linecap="round"/><path d="M454.1645,4.51914l15.88747,13.50843" fill="#ff9f00" stroke="#ff9f00" stroke-width="5" stroke-linecap="round"/><path d="M462.03081,1.71848l2.3895,2.68662c0,0 2.0787,-6.40629 6.37106,-5.85009c0.99244,0.1286 0.26032,-1.53631 1.74739,-0.1969c3.14217,2.83019 0.13203,3.72067 -0.10323,6.60053c-0.50518,6.18387 -3.09869,9.75293 -3.09869,9.75293l-12.21428,-10.46715z" fill="#ff9f00" stroke="#ff9f00" stroke-width="5" stroke-linecap="butt"/><path d="M470.01536,17.33581l20.09869,5.26305" fill="#ff9f00" stroke="#ff9f00" stroke-width="5" stroke-linecap="round"/><path d="M490.19254,22.98809l-15.47752,14.6398" fill="#ff9f00" stroke="#ff9f00" stroke-width="5" stroke-linecap="round"/><path d="M468.8477,17.57128l4.70457,20.3164" fill="#ff9f00" stroke="#ff9f00" stroke-width="5" stroke-linecap="round"/><path d="M476.8332,20.01142l0.31719,3.58149c0,0 5.48765,-3.90476 8.6026,-0.89962c0.7202,0.69482 1.12477,-1.07839 1.5204,0.88346c0.83596,4.14541 -2.11176,3.06615 -4.01727,5.23825c-4.09165,4.6641 -8.30147,5.9839 -8.30147,5.9839l-3.56808,-15.68499z" fill="#ff9f00" stroke="#ff9f00" stroke-width="5" stroke-linecap="butt"/><path d="M486.92962,53.42871l-11.41164,-17.36178" fill="#ff9f00" stroke="#ff9f00" stroke-width="5" stroke-linecap="round"/><path d="M486.72745,53.77046l-21.29806,0.51942" fill="#ff9f00" stroke="#ff9f00" stroke-width="5" stroke-linecap="round"/><path d="M474.49278,35.46042l-10.10123,18.2443" fill="#ff9f00" stroke="#ff9f00" stroke-width="5" stroke-linecap="round"/><path d="M478.79319,42.61788l-2.16125,2.87344c0,0 6.69079,0.77128 6.99407,5.0889c0.07012,0.99827 1.55746,-0.04852 0.53844,1.67398c-2.15319,3.63964 -3.62116,0.86494 -6.49069,1.20361c-6.16171,0.72722 -10.17302,-1.10959 -10.17302,-1.10959l7.84607,-14.0424z" fill="#ff9f00" stroke="#ff9f00" stroke-width="5" stroke-linecap="butt"/><path d="M466.16368,53.29223l-0.46827,20.77108" fill="#ff9f00" stroke="#ff9f00" stroke-width="5" stroke-linecap="round"/><path d="M447.51035,62.56089l17.82456,11.66886" fill="#ff9f00" stroke="#ff9f00" stroke-width="5" stroke-linecap="round"/><path d="M465.66435,52.21076l-18.67586,9.27909" fill="#ff9f00" stroke="#ff9f00" stroke-width="5" stroke-linecap="round"/><path d="M465.1387,60.5442l-3.41083,1.13752c0,0 5.06886,4.43489 2.86627,8.16079c-0.50926,0.86147 1.30943,0.84463 -0.50758,1.68359c-3.83936,1.77272 -3.47167,-1.34476 -6.02581,-2.69579c-5.48447,-2.90104 -7.7428,-6.69108 -7.7428,-6.69108l14.43325,-7.10149z" fill="#ff9f00" stroke="#ff9f00" stroke-width="5" stroke-linecap="butt"/><path d="M449.21476,62.98076l-14.24912,15.12018" fill="#ff9f00" stroke="#ff9f00" stroke-width="5" stroke-linecap="round"/><path d="M434.5864,77.98337l-5.43477,-20.59953" fill="#ff9f00" stroke="#ff9f00" stroke-width="5" stroke-linecap="round"/><path d="M449.56751,61.84304l-20.08684,-5.60428" fill="#ff9f00" stroke="#ff9f00" stroke-width="5" stroke-linecap="round"/><path d="M443.59974,67.68327l-3.29564,-1.4375c0,0 0.79826,6.68762 -3.33192,7.98199c-0.95494,0.29927 0.40767,1.50393 -1.5039,0.91126c-4.03917,-1.25233 -1.67957,-3.32263 -2.6732,-6.03587c-2.13361,-5.82608 -1.27511,-10.1536 -1.27511,-10.1536l15.47709,4.3829z" fill="#ff9f00" stroke="#ff9f00" stroke-width="5" stroke-linecap="butt"/><path d="M429.80389,56.85146l-20.45376,3.64699" fill="#ff9f00" stroke="#ff9f00" stroke-width="5" stroke-linecap="round"/><path d="M409.11569,60.17798l7.91503,-19.77953" fill="#ff9f00" stroke="#ff9f00" stroke-width="5" stroke-linecap="round"/><path d="M417.97749,39.67516l12.78781,16.47303" fill="#ff9f00" stroke="#ff9f00" stroke-width="5" stroke-linecap="round"/><path d="M422.4924,57.28028l-1.78932,-3.11865c0,0 -3.34536,5.84551 -7.43315,4.42292c-0.94513,-0.32891 -0.56912,1.45058 -1.7507,-0.16474c-2.4967,-3.41316 0.63194,-3.669 1.4514,-6.43981c1.75961,-5.94972 5.02844,-8.9127 5.02844,-8.9127l9.81454,12.74461z" fill="#ff9f00" stroke="#ff9f00" stroke-width="5" stroke-linecap="butt"/><path d="M416.95607,42.15223l-17.63857,-10.97897" fill="#ff9f00" stroke="#ff9f00" stroke-width="5" stroke-linecap="round"/><path d="M399.35779,30.77824l19.11868,-9.39964" fill="#ff9f00" stroke="#ff9f00" stroke-width="5" stroke-linecap="round"/><path d="M418.14109,42.27312l1.52292,-20.79832" fill="#ff9f00" stroke="#ff9f00" stroke-width="5" stroke-linecap="round"/><path d="M411.23639,37.5776l0.75766,-3.51477c0,0 -6.39785,2.10451 -8.48314,-1.6883c-0.48213,-0.87694 -1.39367,0.69693 -1.19057,-1.29408c0.42915,-4.20702 2.92505,-2.30325 5.38832,-3.81362c5.28934,-3.2432 9.70117,-3.2571 9.70117,-3.2571l-1.23689,16.03808z" fill="#ff9f00" stroke="#ff9f00" stroke-width="5" stroke-linecap="butt"/><path d="M413.19604,-0.48482l4.30613,20.32522" fill="#ff9f00" stroke="#ff9f00" stroke-width="5" stroke-linecap="round"/><path d="M413.50877,-0.72947l20.02499,7.27165" fill="#ff9f00" stroke="#ff9f00" stroke-width="5" stroke-linecap="round"/><path d="M418.23613,20.77859l16.05115,-13.31352" fill="#ff9f00" stroke="#ff9f00" stroke-width="5" stroke-linecap="round"/><path d="M416.83726,12.54659l3.0592,-1.88917c0,0 -5.95059,-3.1547 -4.66085,-7.28632c0.2982,-0.95527 -1.46819,-0.52193 0.10808,-1.75512c3.33069,-2.60571 3.6875,0.51304 6.48334,1.24252c6.00349,1.56641 9.07057,4.73778 9.07057,4.73778l-12.42076,10.22129z" fill="#ff9f00" stroke="#ff9f00" stroke-width="5" stroke-linecap="butt"/><path d="M438.28235,12.03238l6.80347,-13.90275" fill="#ff7800" stroke="#ff7800" stroke-width="5" stroke-linecap="round"/><path d="M445.38163,-1.87038l8.4119,13.45905" fill="#ff7800" stroke="#ff7800" stroke-width="5" stroke-linecap="round"/><path d="M438.28235,12.91979l15.52967,-0.44371" fill="#ff7800" stroke="#ff7800" stroke-width="5" stroke-linecap="round"/><path d="M441.24038,7.44743l2.66223,0.29581c0,0 -2.04343,-4.58262 0.60992,-6.41486c0.61348,-0.42363 -0.62189,-0.98022 0.86909,-0.98022c3.15045,0 1.92818,1.99375 3.23381,3.7052c2.80356,3.67496 3.14742,6.94372 3.14742,6.94372l-11.98003,0.2958z" fill="#ff7800" stroke="#ff7800" stroke-width="5" stroke-linecap="butt"/><path d="M452.77184,10.7724l14.35969,-5.77693" fill="#ff7800" stroke="#ff7800" stroke-width="5" stroke-linecap="round"/><path d="M467.35133,5.19344l-2.75724,15.63022" fill="#ff7800" stroke="#ff7800" stroke-width="5" stroke-linecap="round"/><path d="M464.01393,21.49541l-11.83599,-10.06363" fill="#ff7800" stroke="#ff7800" stroke-width="5" stroke-linecap="round"/><path d="M458.03826,9.34531l1.78015,2.00151c0,0 1.54861,-4.77262 4.74637,-4.35825c0.73936,0.09581 0.19394,-1.14454 1.30178,-0.14669c2.34088,2.10846 0.09837,2.77186 -0.07691,4.91733c-0.37635,4.60692 -2.30849,7.26584 -2.30849,7.26584l-9.09952,-7.79792z" fill="#ff7800" stroke="#ff7800" stroke-width="5" stroke-linecap="butt"/><path d="M463.98666,20.98005l14.97331,3.92092" fill="#ff7800" stroke="#ff7800" stroke-width="5" stroke-linecap="round"/><path d="M479.01844,25.19094l-11.53058,10.9065" fill="#ff7800" stroke="#ff7800" stroke-width="5" stroke-linecap="round"/><path d="M466.62161,36.29098l-3.50485,-15.1355" fill="#ff7800" stroke="#ff7800" stroke-width="5" stroke-linecap="round"/><path d="M469.06587,22.97336l0.23631,2.66817c0,0 4.08824,-2.909 6.40884,-0.6702c0.53655,0.51764 0.83794,-0.80339 1.13268,0.65817c0.62278,3.08828 -1.57324,2.28425 -2.99282,3.90244c-3.04823,3.47471 -6.18451,4.45794 -6.18451,4.45794l-2.65818,-11.68515z" fill="#ff7800" stroke="#ff7800" stroke-width="5" stroke-linecap="butt"/><path d="M468.08604,34.93455l8.50155,12.93434" fill="#ff7800" stroke="#ff7800" stroke-width="5" stroke-linecap="round"/><path d="M476.43699,48.12348l-15.86683,0.38696" fill="#ff7800" stroke="#ff7800" stroke-width="5" stroke-linecap="round"/><path d="M467.32229,34.48271l-7.52531,13.59181" fill="#ff7800" stroke="#ff7800" stroke-width="5" stroke-linecap="round"/><path d="M470.52604,39.81493l-1.61011,2.14068c0,0 4.98456,0.5746 5.21051,3.79118c0.05224,0.7437 1.16029,-0.03614 0.40113,1.2471c-1.6041,2.7115 -2.69772,0.64436 -4.83549,0.89667c-4.5904,0.54176 -7.57879,-0.82663 -7.57879,-0.82663l5.84524,-10.46144z" fill="#ff7800" stroke="#ff7800" stroke-width="5" stroke-linecap="butt"/><path d="M461.1172,47.76721l-0.34886,15.47423" fill="#ff7800" stroke="#ff7800" stroke-width="5" stroke-linecap="round"/><path d="M460.49978,63.36544l-13.27912,-8.69317" fill="#ff7800" stroke="#ff7800" stroke-width="5" stroke-linecap="round"/><path d="M460.7452,46.96152l-13.91332,6.91282" fill="#ff7800" stroke="#ff7800" stroke-width="5" stroke-linecap="round"/><path d="M460.3536,53.16986l-2.54103,0.84744c0,0 3.77624,3.30394 2.13534,6.0797c-0.37939,0.64178 0.97551,0.62924 -0.37815,1.25426c-2.86028,1.32066 -2.58634,-1.00182 -4.48916,-2.00833c-4.08587,-2.16124 -5.76831,-4.98478 -5.76831,-4.98478l10.75262,-5.29054z" fill="#ff7800" stroke="#ff7800" stroke-width="5" stroke-linecap="butt"/><path d="M448.49042,54.98506l-10.61544,11.26438" fill="#ff7800" stroke="#ff7800" stroke-width="5" stroke-linecap="round"/><path d="M437.59245,66.16183l-4.04885,-15.34643" fill="#ff7800" stroke="#ff7800" stroke-width="5" stroke-linecap="round"/><path d="M448.75323,54.13746l-14.96448,-4.17513" fill="#ff7800" stroke="#ff7800" stroke-width="5" stroke-linecap="round"/><path d="M444.3073,58.48838l-2.45521,-1.07093c0,0 0.59469,4.98221 -2.48225,5.9465c-0.71142,0.22295 0.30371,1.12041 -1.1204,0.67888c-3.00914,-0.93297 -1.25125,-2.47532 -1.9915,-4.49666c-1.58951,-4.34036 -0.94994,-7.56432 -0.94994,-7.56432l11.53026,3.26521z" fill="#ff7800" stroke="#ff7800" stroke-width="5" stroke-linecap="butt"/><path d="M434.02954,50.41879l-15.23784,2.71697" fill="#ff7800" stroke="#ff7800" stroke-width="5" stroke-linecap="round"/><path d="M418.61706,52.89701l5.89661,-14.73553" fill="#ff7800" stroke="#ff7800" stroke-width="5" stroke-linecap="round"/><path d="M434.74578,49.89487l-9.52679,-12.27224" fill="#ff7800" stroke="#ff7800" stroke-width="5" stroke-linecap="round"/><path d="M428.58255,50.73827l-1.33303,-2.32336c0,0 -2.49225,4.35485 -5.53761,3.29504c-0.70412,-0.24504 -0.42399,1.08066 -1.30426,-0.12273c-1.86001,-2.54277 0.47078,-2.73336 1.08128,-4.79759c1.3109,-4.43248 3.74614,-6.63987 3.74614,-6.63987l7.31172,9.4946z" fill="#ff7800" stroke="#ff7800" stroke-width="5" stroke-linecap="butt"/><path d="M411.3175,31.2888l13.14055,8.17922" fill="#ff7800" stroke="#ff7800" stroke-width="5" stroke-linecap="round"/><path d="M411.34752,30.99453l14.24321,-7.00263" fill="#ff7800" stroke="#ff7800" stroke-width="5" stroke-linecap="round"/><path d="M426.47543,24.06356l-1.13456,15.49453" fill="#ff7800" stroke="#ff7800" stroke-width="5" stroke-linecap="round"/><path d="M420.19695,36.05998l0.56445,-2.61847c0,0 -4.76634,1.56784 -6.31985,-1.25776c-0.35919,-0.6533 -1.03826,0.5192 -0.88696,-0.96408c0.31971,-3.13419 2.17913,-1.7159 4.01424,-2.84111c3.94051,-2.41615 7.22728,-2.42651 7.22728,-2.42651l-0.92148,11.9482z" fill="#ff7800" stroke="#ff7800" stroke-width="5" stroke-linecap="butt"/><path d="M424.86488,22.84595l-3.20802,-15.14207" fill="#ff7800" stroke="#ff7800" stroke-width="5" stroke-linecap="round"/><path d="M421.88984,7.52162l14.91841,5.41729" fill="#ff7800" stroke="#ff7800" stroke-width="5" stroke-linecap="round"/><path d="M425.41168,23.54489l11.95794,-9.91844" fill="#ff7800" stroke="#ff7800" stroke-width="5" stroke-linecap="round"/><path d="M424.36953,17.41214l2.27907,-1.40741c0,0 -4.43312,-2.35021 -3.47228,-5.42823c0.22216,-0.71167 -1.09379,-0.38883 0.08052,-1.30754c2.48133,-1.94123 2.74714,0.3822 4.83002,0.92567c4.47253,1.16696 6.75748,3.52959 6.75748,3.52959l-9.25333,7.61476z" fill="#ff7800" stroke="#ff7800" stroke-width="5" stroke-linecap="butt"/><path d="M440.39009,18.98166l4.55987,-9.31801" fill="#ff3900" stroke="#ff3d00" stroke-width="5" stroke-linecap="round"/><path d="M445.14821,9.66365l5.63789,9.02062" fill="#ff3900" stroke="#ff3d00" stroke-width="5" stroke-linecap="round"/><path d="M450.7985,19.27904l-10.40841,0.29739" fill="#ff3900" stroke="#ff3d00" stroke-width="5" stroke-linecap="round"/><path d="M442.37264,15.9087l1.7843,0.19826c0,0 -1.36957,-3.0714 0.40878,-4.29942c0.41117,-0.28393 -0.41681,-0.65697 0.58249,-0.65697c2.11152,0 1.29232,1.33627 2.16739,2.48333c1.87903,2.46307 2.10949,4.65387 2.10949,4.65387l-8.02935,0.19826z" fill="#ff3900" stroke="#ff3d00" stroke-width="5" stroke-linecap="butt"/><path d="M450.10133,18.13719l9.62427,-3.87185" fill="#ff3900" stroke="#ff3d00" stroke-width="5" stroke-linecap="round"/><path d="M459.87292,14.39803l-1.84797,10.4758" fill="#ff3900" stroke="#ff3d00" stroke-width="5" stroke-linecap="round"/><path d="M449.70329,18.5791l7.93281,6.74493" fill="#ff3900" stroke="#ff3d00" stroke-width="5" stroke-linecap="round"/><path d="M453.63104,17.18072l1.19311,1.34146c0,0 1.03792,-3.19874 3.18115,-2.92102c0.49554,0.06421 0.12998,-0.7671 0.87249,-0.09832c1.56893,1.41315 0.06592,1.85778 -0.05154,3.29573c-0.25224,3.08768 -1.54721,4.86977 -1.54721,4.86977l-6.09875,-5.22638z" fill="#ff3900" stroke="#ff3d00" stroke-width="5" stroke-linecap="butt"/><path d="M457.61782,24.97863l10.03553,2.6279" fill="#ff3900" stroke="#ff3d00" stroke-width="5" stroke-linecap="round"/><path d="M467.69254,27.80089l-7.72812,7.30984" fill="#ff3900" stroke="#ff3d00" stroke-width="5" stroke-linecap="round"/><path d="M459.38384,35.24045l-2.34905,-10.14423" fill="#ff3900" stroke="#ff3d00" stroke-width="5" stroke-linecap="round"/><path d="M461.02205,26.31461l0.15838,1.78829c0,0 2.74005,-1.9497 4.29538,-0.44919c0.35961,0.34693 0.56162,-0.53845 0.75915,0.44112c0.41741,2.06985 -1.05443,1.53097 -2.00587,2.61552c-2.04301,2.32885 -4.14503,2.98784 -4.14503,2.98784l-1.78159,-7.83171z" fill="#ff3900" stroke="#ff3d00" stroke-width="5" stroke-linecap="butt"/><path d="M466.06333,43.00028l-5.69798,-8.66896" fill="#ff3900" stroke="#ff3d00" stroke-width="5" stroke-linecap="round"/><path d="M465.96238,43.17091l-10.63439,0.25935" fill="#ff3900" stroke="#ff3d00" stroke-width="5" stroke-linecap="round"/><path d="M454.80979,43.1381l5.04367,-9.10961" fill="#ff3900" stroke="#ff3d00" stroke-width="5" stroke-linecap="round"/><path d="M462.0007,37.6023l-1.07915,1.43474c0,0 3.3408,0.38511 3.49223,2.54095c0.03501,0.49845 0.77765,-0.02422 0.26885,0.83584c-1.07511,1.81732 -1.80809,0.43187 -3.24088,0.60097c-3.07662,0.3631 -5.07952,-0.55403 -5.07952,-0.55403l3.91764,-7.01155z" fill="#ff3900" stroke="#ff3d00" stroke-width="5" stroke-linecap="butt"/><path d="M455.46081,53.30338l0.23382,-10.37126" fill="#ff3900" stroke="#ff3d00" stroke-width="5" stroke-linecap="round"/><path d="M455.28081,53.3865l-8.90003,-5.8264" fill="#ff3900" stroke="#ff3d00" stroke-width="5" stroke-linecap="round"/><path d="M455.4453,42.39214l-9.3251,4.63317" fill="#ff3900" stroke="#ff3d00" stroke-width="5" stroke-linecap="round"/><path d="M455.18285,46.55314l-1.70307,0.56798c0,0 2.53094,2.21439 1.43116,4.07478c-0.25428,0.43014 0.65382,0.42174 -0.25344,0.84064c-1.91704,0.88514 -1.73345,-0.67146 -3.00877,-1.34604c-2.73847,-1.44852 -3.86608,-3.34094 -3.86608,-3.34094l7.20671,-3.54586z" fill="#ff3900" stroke="#ff3d00" stroke-width="5" stroke-linecap="butt"/><path d="M447.23182,47.76975l-7.11476,7.5497" fill="#ff3900" stroke="#ff3d00" stroke-width="5" stroke-linecap="round"/><path d="M437.21405,44.97512l2.71365,10.2856" fill="#ff3900" stroke="#ff3d00" stroke-width="5" stroke-linecap="round"/><path d="M447.40796,47.20166l-10.02961,-2.79829" fill="#ff3900" stroke="#ff3d00" stroke-width="5" stroke-linecap="round"/><path d="M444.42818,50.11776l-1.64556,-0.71776c0,0 0.39857,3.33921 -1.66368,3.98551c-0.47681,0.14943 0.20356,0.75093 -0.75092,0.455c-2.01681,-0.6253 -0.83863,-1.65903 -1.33476,-3.01378c-1.06534,-2.90903 -0.63667,-5.06982 -0.63667,-5.06982l7.7279,2.18843z" fill="#ff3900" stroke="#ff3d00" stroke-width="5" stroke-linecap="butt"/><path d="M437.53974,44.7093l-10.21283,1.82099" fill="#ff3900" stroke="#ff3d00" stroke-width="5" stroke-linecap="round"/><path d="M427.20986,46.37027l3.95207,-9.87616" fill="#ff3900" stroke="#ff3d00" stroke-width="5" stroke-linecap="round"/><path d="M431.63466,36.13296l6.38512,8.22519" fill="#ff3900" stroke="#ff3d00" stroke-width="5" stroke-linecap="round"/><path d="M433.88902,44.92342l-0.89343,-1.55718c0,0 -1.67038,2.91873 -3.71146,2.20842c-0.47192,-0.16423 -0.28417,0.72429 -0.87415,-0.08225c-1.24663,-1.70424 0.31554,-1.83197 0.72471,-3.21548c0.8786,-2.97077 2.51076,-4.45022 2.51076,-4.45022l4.90052,6.36354z" fill="#ff3900" stroke="#ff3d00" stroke-width="5" stroke-linecap="butt"/><path d="M422.31749,31.88786l8.80716,5.48194" fill="#ff3900" stroke="#ff3d00" stroke-width="5" stroke-linecap="round"/><path d="M422.33762,31.69062l9.5462,-4.69335" fill="#ff3900" stroke="#ff3d00" stroke-width="5" stroke-linecap="round"/><path d="M432.47676,27.04529l-0.76041,10.38486" fill="#ff3900" stroke="#ff3d00" stroke-width="5" stroke-linecap="round"/><path d="M428.26875,35.08562l0.37831,-1.75497c0,0 -3.19453,1.05081 -4.23574,-0.84298c-0.24073,-0.43786 -0.69587,0.34798 -0.59446,-0.64615c0.21428,-2.10062 1.46051,-1.15004 2.69045,-1.90419c2.64103,-1.61937 4.84391,-1.62632 4.84391,-1.62632l-0.61759,8.00802z" fill="#ff3900" stroke="#ff3d00" stroke-width="5" stroke-linecap="butt"/><path d="M431.39733,26.22923l-2.1501,-10.14864" fill="#ff3900" stroke="#ff3d00" stroke-width="5" stroke-linecap="round"/><path d="M429.40338,15.95843l9.99873,3.63082" fill="#ff3900" stroke="#ff3d00" stroke-width="5" stroke-linecap="round"/><path d="M431.76381,26.69765l8.01454,-6.6476" fill="#ff3900" stroke="#ff3d00" stroke-width="5" stroke-linecap="round"/><path d="M431.06533,22.58733l1.52749,-0.94329c0,0 -2.9712,-1.57518 -2.32722,-3.63815c0.1489,-0.47698 -0.73309,-0.2606 0.05397,-0.87635c1.66305,-1.30106 1.84122,0.25616 3.23722,0.6204c2.99761,0.78213 4.52904,2.36563 4.52904,2.36563l-6.20184,5.10362z" fill="#ff3900" stroke="#ff3d00" stroke-width="5" stroke-linecap="butt"/></g></g></svg>