<svg version="1.1" xmlns="http://www.w3.org/2000/svg" xmlns:xlink="http://www.w3.org/1999/xlink" width="562.29092" height="199.51672" viewBox="0,0,562.29092,199.51672"><g transform="translate(92.586,-107.66905)"><g data-paper-data="{&quot;isPaintingLayer&quot;:true}" fill-rule="nonzero" stroke="#ff0000" stroke-width="5.5" stroke-linejoin="miter" stroke-miterlimit="10" stroke-dasharray="" stroke-dashoffset="0" style="mix-blend-mode: normal"><path d="M156.18764,113.29181l-4.91853,13.68634c0,0 -5.51654,13.25864 -5.77392,13.25864c-2.38683,0 -7.05702,-15.18328 -7.05702,-15.18328l-7.05702,-13.47249z" data-paper-data="{&quot;index&quot;:null}" fill="#ff0000" stroke-linecap="butt"/><path d="M128.164,111.27536l16.17687,30.8559" data-paper-data="{&quot;index&quot;:null}" fill="none" stroke-linecap="round"/><path d="M145.2396,141.23254l13.03137,-29.20825" data-paper-data="{&quot;index&quot;:null}" fill="none" stroke-linecap="round"/><path d="M128.52855,110.41905l30.42637,0.32123" data-paper-data="{&quot;index&quot;:null}" fill="none" stroke-linecap="round"/><g data-paper-data="{&quot;index&quot;:null}"><path d="M187.91617,113.59631l-4.91853,13.68634c0,0 -5.51655,13.25864 -5.77393,13.25864c-2.38683,0 -7.05702,-15.18328 -7.05702,-15.18328l-7.05702,-13.47249z" fill="#ff0000" stroke-linecap="butt"/><path d="M159.89253,111.57987l16.17688,30.8559" fill="none" stroke-linecap="round"/><path d="M176.96812,141.53705l13.03137,-29.20825" fill="none" stroke-linecap="round"/><path d="M190.68345,111.04479l-30.42637,-0.32123" fill="none" stroke-linecap="round"/></g><path d="M93.18764,113.29181l-4.91853,13.68634c0,0 -5.51654,13.25864 -5.77392,13.25864c-2.38683,0 -7.05702,-15.18328 -7.05702,-15.18328l-7.05702,-13.47249z" data-paper-data="{&quot;index&quot;:null}" fill="#ff0000" stroke-linecap="butt"/><path d="M65.164,111.27536l16.17687,30.8559" data-paper-data="{&quot;index&quot;:null}" fill="none" stroke-linecap="round"/><path d="M95.27096,112.02429l-13.03137,29.20825" data-paper-data="{&quot;index&quot;:null}" fill="none" stroke-linecap="round"/><path d="M65.52855,110.41905l30.42637,0.32123" data-paper-data="{&quot;index&quot;:null}" fill="none" stroke-linecap="round"/><g data-paper-data="{&quot;index&quot;:null}"><path d="M124.91617,113.59631l-4.91853,13.68634c0,0 -5.51655,13.25864 -5.77392,13.25864c-2.38683,0 -7.05702,-15.18328 -7.05702,-15.18328l-7.05702,-13.47249z" fill="#ff0000" stroke-linecap="butt"/><path d="M96.89253,111.57987l16.17688,30.8559" fill="none" stroke-linecap="round"/><path d="M113.96812,141.53705l13.03137,-29.20825" fill="none" stroke-linecap="round"/><path d="M97.25708,110.72356l30.42637,0.32123" fill="none" stroke-linecap="round"/></g><path d="M62.18764,113.2918l-4.91852,13.68634c0,0 -5.51655,13.25864 -5.77393,13.25864c-2.38683,0 -7.05702,-15.18328 -7.05702,-15.18328l-7.05702,-13.47249z" data-paper-data="{&quot;index&quot;:null}" fill="#ff0000" stroke-linecap="butt"/><path d="M34.164,111.27536l16.17687,30.8559" data-paper-data="{&quot;index&quot;:null}" fill="none" stroke-linecap="round"/><path d="M64.27096,112.02429l-13.03137,29.20826" data-paper-data="{&quot;index&quot;:null}" fill="none" stroke-linecap="round"/><path d="M34.52855,110.41905l30.42637,0.32123" data-paper-data="{&quot;index&quot;:null}" fill="none" stroke-linecap="round"/><path d="M1.18764,113.29181l-4.91853,13.68634c0,0 -5.51654,13.25864 -5.77392,13.25864c-2.38683,0 -7.05702,-15.18328 -7.05702,-15.18328l-7.05702,-13.47249z" data-paper-data="{&quot;index&quot;:null}" fill="#ff0000" stroke-linecap="butt"/><path d="M-26.836,111.27536l16.17687,30.8559" data-paper-data="{&quot;index&quot;:null}" fill="none" stroke-linecap="round"/><path d="M3.27097,112.02429l-13.03137,29.20825" data-paper-data="{&quot;index&quot;:null}" fill="none" stroke-linecap="round"/><path d="M-26.47145,110.41905l30.42637,0.32123" data-paper-data="{&quot;index&quot;:null}" fill="none" stroke-linecap="round"/><g data-paper-data="{&quot;index&quot;:null}"><path d="M32.91617,113.59631l-4.91853,13.68634c0,0 -5.51655,13.25864 -5.77393,13.25864c-2.38683,0 -7.05702,-15.18328 -7.05702,-15.18328l-7.05702,-13.47249z" fill="#ff0000" stroke-linecap="butt"/><path d="M4.89253,111.57987l16.17688,30.8559" fill="none" stroke-linecap="round"/><path d="M21.96812,141.53705l13.03137,-29.20825" fill="none" stroke-linecap="round"/><path d="M35.68345,111.04479l-30.42637,-0.32123" fill="none" stroke-linecap="round"/></g><path d="M-61.81236,113.29181l-4.91853,13.68634c0,0 -5.51654,13.25864 -5.77392,13.25864c-2.38683,0 -7.05702,-15.18328 -7.05702,-15.18328l-7.05702,-13.47249z" data-paper-data="{&quot;index&quot;:null}" fill="#ff0000" stroke-linecap="butt"/><path d="M-89.836,111.27536l16.17687,30.8559" data-paper-data="{&quot;index&quot;:null}" fill="none" stroke-linecap="round"/><path d="M-59.72904,112.02429l-13.03137,29.20825" data-paper-data="{&quot;index&quot;:null}" fill="none" stroke-linecap="round"/><path d="M-89.47145,110.41905l30.42637,0.32123" data-paper-data="{&quot;index&quot;:null}" fill="none" stroke-linecap="round"/><g data-paper-data="{&quot;index&quot;:null}"><path d="M-30.08383,113.59631l-4.91853,13.68634c0,0 -5.51655,13.25864 -5.77392,13.25864c-2.38683,0 -7.05702,-15.18328 -7.05702,-15.18328l-7.05702,-13.47249z" fill="#ff0000" stroke-linecap="butt"/><path d="M-58.10747,111.57987l16.17688,30.8559" fill="none" stroke-linecap="round"/><path d="M-41.03188,141.53705l13.03137,-29.20825" fill="none" stroke-linecap="round"/><path d="M-57.74292,110.72356l30.42637,0.32123" fill="none" stroke-linecap="round"/></g><path d="M439.38115,303.27381l7.05702,-13.47249c0,0 4.67019,-15.18328 7.05702,-15.18328c0.25738,0 5.77393,13.25864 5.77393,13.25864l4.91852,13.68634z" data-paper-data="{&quot;index&quot;:null}" fill="#ff0000" stroke-linecap="butt"/><path d="M436.164,303.57946l16.17687,-30.8559" data-paper-data="{&quot;index&quot;:null}" fill="none" stroke-linecap="round"/><path d="M466.27096,302.83053l-13.03137,-29.20826" data-paper-data="{&quot;index&quot;:null}" fill="none" stroke-linecap="round"/><path d="M466.95492,304.11454l-30.42637,0.32123" data-paper-data="{&quot;index&quot;:null}" fill="none" stroke-linecap="round"/><path d="M378.38115,303.2738l7.05702,-13.47249c0,0 4.67019,-15.18328 7.05702,-15.18328c0.25738,0 5.77392,13.25864 5.77392,13.25864l4.91853,13.68634z" data-paper-data="{&quot;index&quot;:null}" fill="#ff0000" stroke-linecap="butt"/><path d="M375.164,303.57946l16.17687,-30.8559" data-paper-data="{&quot;index&quot;:null}" fill="none" stroke-linecap="round"/><path d="M405.27097,302.83053l-13.03137,-29.20825" data-paper-data="{&quot;index&quot;:null}" fill="none" stroke-linecap="round"/><path d="M405.95492,304.11454l-30.42637,0.32123" data-paper-data="{&quot;index&quot;:null}" fill="none" stroke-linecap="round"/><g data-paper-data="{&quot;index&quot;:null}"><path d="M410.10967,302.9693l7.05702,-13.47249c0,0 4.67019,-15.18328 7.05702,-15.18328c0.25738,0 5.77393,13.25864 5.77393,13.25864l4.91853,13.68634z" fill="#ff0000" stroke-linecap="butt"/><path d="M406.89253,303.27495l16.17688,-30.8559" fill="none" stroke-linecap="round"/><path d="M436.99949,302.52602l-13.03137,-29.20825" fill="none" stroke-linecap="round"/><path d="M407.25708,304.13126l30.42637,-0.32123" fill="none" stroke-linecap="round"/></g><path d="M315.38115,303.2738l7.05702,-13.47249c0,0 4.67019,-15.18328 7.05702,-15.18328c0.25738,0 5.77392,13.25864 5.77392,13.25864l4.91853,13.68634z" data-paper-data="{&quot;index&quot;:null}" fill="#ff0000" stroke-linecap="butt"/><path d="M312.164,303.57946l16.17687,-30.8559" data-paper-data="{&quot;index&quot;:null}" fill="none" stroke-linecap="round"/><path d="M342.27096,302.83053l-13.03137,-29.20825" data-paper-data="{&quot;index&quot;:null}" fill="none" stroke-linecap="round"/><path d="M312.52855,304.43577l30.42637,-0.32123" data-paper-data="{&quot;index&quot;:null}" fill="none" stroke-linecap="round"/><g data-paper-data="{&quot;index&quot;:null}"><path d="M347.10968,302.9693l7.05702,-13.47249c0,0 4.67019,-15.18328 7.05702,-15.18328c0.25737,0 5.77392,13.25864 5.77392,13.25864l4.91853,13.68634z" fill="#ff0000" stroke-linecap="butt"/><path d="M343.89253,303.27495l16.17688,-30.8559" fill="none" stroke-linecap="round"/><path d="M373.99949,302.52602l-13.03137,-29.20825" fill="none" stroke-linecap="round"/><path d="M374.68345,303.81003l-30.42637,0.32123" fill="none" stroke-linecap="round"/></g><path d="M284.38115,303.27381l7.05702,-13.47249c0,0 4.67019,-15.18328 7.05702,-15.18328c0.25738,0 5.77393,13.25864 5.77393,13.25864l4.91852,13.68634z" data-paper-data="{&quot;index&quot;:null}" fill="#ff0000" stroke-linecap="butt"/><path d="M281.164,303.57946l16.17687,-30.8559" data-paper-data="{&quot;index&quot;:null}" fill="none" stroke-linecap="round"/><path d="M311.27096,302.83053l-13.03137,-29.20826" data-paper-data="{&quot;index&quot;:null}" fill="none" stroke-linecap="round"/><path d="M281.52855,304.43577l30.42637,-0.32123" data-paper-data="{&quot;index&quot;:null}" fill="none" stroke-linecap="round"/><path d="M223.38115,303.2738l7.05702,-13.47249c0,0 4.67019,-15.18328 7.05702,-15.18328c0.25738,0 5.77392,13.25864 5.77392,13.25864l4.91853,13.68634z" data-paper-data="{&quot;index&quot;:null}" fill="#ff0000" stroke-linecap="butt"/><path d="M220.164,303.57946l16.17687,-30.8559" data-paper-data="{&quot;index&quot;:null}" fill="none" stroke-linecap="round"/><path d="M237.2396,273.62228l13.03137,29.20825" data-paper-data="{&quot;index&quot;:null}" fill="none" stroke-linecap="round"/><path d="M220.52855,304.43577l30.42637,-0.32123" data-paper-data="{&quot;index&quot;:null}" fill="none" stroke-linecap="round"/><g data-paper-data="{&quot;index&quot;:null}"><path d="M255.10967,302.9693l7.05702,-13.47249c0,0 4.67019,-15.18328 7.05702,-15.18328c0.25738,0 5.77393,13.25864 5.77393,13.25864l4.91853,13.68634z" fill="#ff0000" stroke-linecap="butt"/><path d="M251.89253,303.27495l16.17688,-30.8559" fill="none" stroke-linecap="round"/><path d="M268.96812,273.31777l13.03137,29.20825" fill="none" stroke-linecap="round"/><path d="M282.68345,303.81003l-30.42637,0.32123" fill="none" stroke-linecap="round"/></g></g></g></svg>