<svg version="1.1" xmlns="http://www.w3.org/2000/svg" xmlns:xlink="http://www.w3.org/1999/xlink" width="151.49999" height="140.33334" viewBox="0,0,151.49999,140.33334"><defs><radialGradient cx="231.53812" cy="180.09996" r="58" gradientUnits="userSpaceOnUse" id="color-1"><stop offset="0" stop-color="#ffab19"/><stop offset="1" stop-color="#ffab19" stop-opacity="0"/></radialGradient></defs><g transform="translate(-155.16669,-108.89758)"><g data-paper-data="{&quot;isPaintingLayer&quot;:true}" stroke-miterlimit="10" stroke-dasharray="" stroke-dashoffset="0" style="mix-blend-mode: normal"><path d="M173.53812,232.50711v-104.81429h116.00001v104.81429z" fill="url(#color-1)" fill-rule="nonzero" stroke="none" stroke-width="none" stroke-linecap="butt" stroke-linejoin="miter"/><g fill-rule="evenodd"><path d="M224.70001,201.1c0.8,0.4 2.5,1.3 0.1,4.7c-2.4,3.4 -9.3,4.1 -10.1,4.1c-3.1,0.1 -6.9,0.1 -11.1,-1.3c-12.2,-4 -12.3,-17.1 -8.4,-19.2c3.8,-2.1 5.5,6 11,10.9c2.4,2.2 5.3,3 7.7,3.5c3.4,0.6 9.9,-3.2 10.8,-2.7z" fill="#ffab19" stroke="#001026" stroke-width="1.2" stroke-linecap="round" stroke-linejoin="round"/><path d="M199.90003,193c1.6,2.7 4.7,6.5 4.7,6.5c0,0 -3.7,-0.9 -5.8,0.8c-1.7,1.3 -1.3,3.5 -1.1,4.2c-1.3,-1.3 -2.9,-3.1 -3.9,-6.6c-1,-3.5 0,-7.7 2,-8.3c2,-0.4 2.5,1.1 4.1,3.4z" fill="#ffffff" stroke="none" stroke-width="1" stroke-linecap="butt" stroke-linejoin="miter"/></g><path d="M229.70001,211.5c-1.8,1.2 -8,5.6 -15.9,8.1l-0.4,0.1c-0.4,0.1 -0.6,0.6 -0.4,1c1.7,2.4 4.8,7.2 -0.7,8.9c-5.3,1.7 -15.2,-12.4 -11,-16.1c1.9,-1.4 3.6,-0.7 4.5,-0.3c0.5,0.2 1,0.2 1.5,0.1c1.2,-0.4 3.4,-1.2 5.1,-2.1c4.3,-2.2 5.3,-3.1 7.3,-4.6c2,-1.5 6.6,-5.2 10.3,-2c3.2,2.7 1.4,5.7 -0.3,6.9z" fill="#ffab19" fill-rule="evenodd" stroke="#001026" stroke-width="1.2" stroke-linecap="round" stroke-linejoin="round"/><path d="M245.60005,190.7c0.5,0.4 6.6,7.6 8.6,5.8c2.4,-2.1 5.7,-6.2 9.3,-2.9c3.6,3.3 -3.2,8.9 -6.1,10.4c-6.9,3.1 -12.5,-2.8 -13.7,-4.4c-1.2,-1.6 -3.3,-4.3 -3.3,-6.9c0.1,-2.8 3.5,-3.5 5.2,-2z" fill="#ffab19" fill-rule="evenodd" stroke="#001026" stroke-width="1.2" stroke-linecap="round" stroke-linejoin="round"/><g fill-rule="evenodd"><path d="M245.48363,214.07236c2.02596,1.97876 6.47378,6.05146 6.47378,6.05146c0,0 14.38499,-1.95246 14.11022,5.2423c-0.16409,4.29687 -7.39701,5.02137 -17.0556,3.75186c-0.59574,-0.12283 -1.18768,-0.34558 -1.67205,-0.76437c-2.12589,-1.98257 -8.20759,-7.81891 -12.05585,-11.86872c-5.67436,-6.02093 -10.42577,-10.00516 -10.42577,-10.00516c-8.17706,-8.61833 -1.14852,-11.85246 1.73269,-16.54593c2.65464,-4.00161 3.72331,-3.16021 9.67315,-1.73211c3.37844,0.62939 5.36553,1.00549 7.56775,0.98952c3.30141,0.02601 2.51868,4.79961 1.52393,7.26345c0,0 -1.54019,3.64388 -2.91174,5.49288c-1.6866,2.23727 -2.94297,3.69038 -4.17645,4.54393z" fill="#ffab19" stroke="#001026" stroke-width="1.2" stroke-linecap="round" stroke-linejoin="round"/><path d="M237.37215,206.35719c0,0 -1.45311,-1.25637 -2.99471,-2.81633c-1.92985,-1.87501 -3.87115,-3.45025 -1.7543,-6.47166c1.89028,-2.32956 3.71116,-5.46236 8.09721,-2.39274c4.19383,2.86213 2.19981,5.28781 2.19981,5.28781c-2.37013,4.41277 -5.54801,6.39293 -5.54801,6.39293z" fill="#ffffff" stroke="none" stroke-width="1" stroke-linecap="butt" stroke-linejoin="miter"/></g><path d="M222.20001,198.4c2.2,2.8 5.6,6.3 1.3,9.2c-5.9,3.3 -10.8,-6.7 -11.8,-10.2c-0.9,-3.1 1.7,-5.1 3.9,-6.8c4.3,-3.1 7.9,-5.9 11.9,-4.4c5,1.8 1.4,5.8 -1.1,7.6c-1.5,1.1 -3,2.3 -4.1,3c-0.3,0.5 -0.4,1.1 -0.1,1.6z" fill="#ffab19" fill-rule="evenodd" stroke="#001026" stroke-width="1.2" stroke-linecap="round" stroke-linejoin="round"/><g fill-rule="evenodd"><path d="M253.70001,131c0.3,-0.2 0.8,-0.1 0.9,0.3l2.6,10.7c0,0 6.4,4.7 8.3,8c3.2,5.5 3.3,10 3.3,10c0,0 7.1,2.1 8.3,7.8c1.2,5.7 -3.2,16.5 -22,20.2c-18.8,3.7 -33.9,-1.4 -41,-12.8c-7.1,-11.4 4.1,-25 3.5,-24.2l-2.1,-17.9c-0.1,-0.4 0.4,-0.7 0.8,-0.5l12.1,7.9c0,0 4.5,-1.7 9.2,-1.9c2.8,-0.2 5.2,0 7.5,0.4z" fill="#ffab19" stroke="#001026" stroke-width="1.2" stroke-linecap="butt" stroke-linejoin="miter"/><path d="M268.50003,160.4c0,0 6.9,1.8 8.1,7.5c1.2,5.7 -3.6,16 -22.2,19.6c-24.2,5 -35.7,-9.4 -29,-20c6.7,-10.7 18.2,-1.6 26.6,-2.2c7.2,-0.5 8,-6.8 16.5,-4.9z" fill="#ffffff" stroke="none" stroke-width="1" stroke-linecap="butt" stroke-linejoin="miter"/><path d="M237.00005,171.1c0,-0.4 0.4,-0.7 0.8,-0.6c1.9,0.7 7.3,2.3 13.3,2.7c5.4,0.3 8.6,0 10.1,-0.3c0.5,-0.1 0.9,0.4 0.7,0.9c-0.9,2.7 -4.7,10.2 -15.2,9.6c-9.1,-1 -10,-7.4 -9.7,-12.3z" fill="#ffffff" stroke="#001026" stroke-width="1.2" stroke-linecap="round" stroke-linejoin="round"/><path d="M286.90002,161.5c-4.7,3.8 -11.9,3.9 -11.9,3.9" fill="none" stroke="#001026" stroke-width="1.2" stroke-linecap="round" stroke-linejoin="round"/><path d="M285.59999,172.7c-6.3,0.5 -10.2,-1.4 -10.2,-1.4" fill="none" stroke="#001026" stroke-width="1.2" stroke-linecap="round" stroke-linejoin="round"/><path d="M251.60005,162.7c2.1,0 4.3,0.2 4.4,0.9c0.1,1.4 -1.4,4.2 -3,4.3c-1.8,0.2 -6,-2.3 -6,-3.9c-0.1,-1.2 2.6,-1.3 4.6,-1.3z" fill="#001026" stroke="#001026" stroke-width="1.2" stroke-linecap="round" stroke-linejoin="round"/><path d="M206.60005,161.2c0,0 8.6,2.8 12.1,5.9" fill="none" stroke="#001026" stroke-width="1.2" stroke-linecap="round" stroke-linejoin="round"/><path d="M219.00005,170.6c-4.3,1.7 -11.7,0.6 -11.7,0.6" fill="none" stroke="#001026" stroke-width="1.2" stroke-linecap="round" stroke-linejoin="round"/><g><path d="M263.40002,151c2.9,4.5 3,9.6 0.2,11.4c-2.8,1.8 -7.4,-0.3 -10.4,-4.8c-2.9,-4.5 -3,-9.6 -0.2,-11.4c2.8,-1.9 7.5,0.3 10.4,4.8z" fill="#ffffff" stroke="#001026" stroke-width="1.2" stroke-linecap="round" stroke-linejoin="round"/><path d="M263.00003,156.7c0,1.1 -0.8,2 -1.8,2c-1,0 -1.8,-0.9 -1.8,-2c0,-1.1 0.8,-2 1.8,-2c1,0 1.8,0.9 1.8,2" fill="#001026" stroke="none" stroke-width="1" stroke-linecap="butt" stroke-linejoin="miter"/></g><g><path d="M238.60005,153.8c3,4.4 2.8,9.8 0.1,11.7c-3.3,1.9 -7.7,0.5 -10.7,-3.9c-3.1,-4.4 -3.3,-10.1 -0.2,-12.3c3.1,-2.3 7.8,0.1 10.8,4.5z" fill="#ffffff" stroke="#001026" stroke-width="1.2" stroke-linecap="round" stroke-linejoin="round"/><path d="M238.00005,159.6c0,1.1 -0.8,2 -1.8,2c-1,0 -1.8,-0.9 -1.8,-2c0,-1.1 0.8,-2 1.8,-2c1,0.1 1.8,0.9 1.8,2" fill="#001026" stroke="none" stroke-width="1" stroke-linecap="butt" stroke-linejoin="miter"/></g></g><path d="M172.50004,238.17857v-115.5" fill="none" fill-rule="nonzero" stroke="#000000" stroke-width="5" stroke-linecap="round" stroke-linejoin="miter"/><path d="M290.00003,121.67857v115.5" fill="none" fill-rule="nonzero" stroke="#000000" stroke-width="5" stroke-linecap="round" stroke-linejoin="miter"/><path d="M290.75003,232.42857h-115.5" fill="none" fill-rule="nonzero" stroke="#000000" stroke-width="5" stroke-linecap="round" stroke-linejoin="miter"/><path d="M168.02385,232.73093c0,-3.9449 3.19797,-7.14286 7.14285,-7.14286c3.9449,0 7.14286,3.19797 7.14286,7.14286c0,3.9449 -3.19798,7.14285 -7.14286,7.14285c-3.9449,0 -7.14285,-3.19797 -7.14285,-7.14285z" fill="#01ff00" fill-rule="nonzero" stroke="#8a8a8a" stroke-width="5" stroke-linecap="butt" stroke-linejoin="miter"/><path d="M161.16669,232.73093c0,-7.73198 6.26801,-14.00001 13.99999,-14.00001c7.73198,0 14.00001,6.26801 14.00001,14.00001c0,7.73198 -6.26803,13.99999 -14.00001,13.99999c-7.73198,0 -13.99999,-6.26801 -13.99999,-13.99999z" fill="none" fill-rule="nonzero" stroke="#000000" stroke-width="5" stroke-linecap="butt" stroke-linejoin="miter"/><path d="M283.02383,231.89759c0,-3.9449 3.19796,-7.14286 7.14284,-7.14286c3.94489,0 7.14286,3.19797 7.14286,7.14286c0,3.9449 -3.19798,7.14285 -7.14286,7.14285c-3.94489,0 -7.14284,-3.19797 -7.14284,-7.14285z" fill="#0008ff" fill-rule="nonzero" stroke="#8a8a8a" stroke-width="5" stroke-linecap="butt" stroke-linejoin="miter"/><path d="M276.16668,232.39759c0,-7.73198 6.26801,-14.00001 13.99999,-14.00001c7.73198,0 14.00001,6.26801 14.00001,14.00001c0,7.73198 -6.26803,13.99999 -14.00001,13.99999c-7.73198,0 -13.99999,-6.26801 -13.99999,-13.99999z" fill="none" fill-rule="nonzero" stroke="#000000" stroke-width="5" stroke-linecap="butt" stroke-linejoin="miter"/><path d="M171.75004,125.42857h115.5" fill="none" fill-rule="nonzero" stroke="#000000" stroke-width="5" stroke-linecap="round" stroke-linejoin="miter"/><path d="M164.52382,125.73093c0,-3.9449 3.19797,-7.14286 7.14285,-7.14286c3.9449,0 7.14286,3.19797 7.14286,7.14286c0,3.9449 -3.19798,7.14285 -7.14286,7.14285c-3.9449,0 -7.14285,-3.19797 -7.14285,-7.14285z" fill="#ff0000" fill-rule="nonzero" stroke="#8a8a8a" stroke-width="5" stroke-linecap="butt" stroke-linejoin="miter"/><path d="M157.66669,125.73093c0,-7.73198 6.26801,-14.00001 13.99999,-14.00001c7.73198,0 14.00001,6.26801 14.00001,14.00001c0,7.73198 -6.26803,13.99999 -14.00001,13.99999c-7.73198,0 -13.99999,-6.26801 -13.99999,-13.99999z" fill="none" fill-rule="nonzero" stroke="#000000" stroke-width="5" stroke-linecap="butt" stroke-linejoin="miter"/><path d="M279.52383,125.39759c0,-3.9449 3.19796,-7.14286 7.14284,-7.14286c3.94489,0 7.14286,3.19797 7.14286,7.14286c0,3.9449 -3.19798,7.14285 -7.14286,7.14285c-3.94489,0 -7.14284,-3.19797 -7.14284,-7.14285z" fill="#00ffff" fill-rule="nonzero" stroke="#8a8a8a" stroke-width="5" stroke-linecap="butt" stroke-linejoin="miter"/><path d="M272.66668,125.39759c0,-7.73198 6.26801,-14.00001 13.99999,-14.00001c7.73198,0 14.00001,6.26801 14.00001,14.00001c0,7.73198 -6.26803,13.99999 -14.00001,13.99999c-7.73198,0 -13.99999,-6.26801 -13.99999,-13.99999z" fill="none" fill-rule="nonzero" stroke="#000000" stroke-width="5" stroke-linecap="butt" stroke-linejoin="miter"/></g></g></svg>