<svg version="1.1" xmlns="http://www.w3.org/2000/svg" xmlns:xlink="http://www.w3.org/1999/xlink" width="514.65981" height="104.83731" viewBox="0,0,514.65981,104.83731"><g transform="translate(52.36059,-312.48014)"><g data-paper-data="{&quot;isPaintingLayer&quot;:true}" fill-rule="nonzero" stroke-linejoin="miter" stroke-miterlimit="10" stroke-dasharray="" stroke-dashoffset="0" style="mix-blend-mode: normal"><path d="M-47.87207,417.31745v-64.9411h510.1713v64.9411z" fill="#9c7e3b" stroke="none" stroke-width="0" stroke-linecap="butt"/><path d="M7.21726,347.05694l-3.24495,3.24495l-24.50019,29.65188l-30.93594,-33.51952z" fill="#836932" stroke="none" stroke-width="0" stroke-linecap="round"/><path d="M52.21726,349.05694l-3.24494,3.24495l-24.50019,29.65188l-30.93594,-33.51952z" fill="#836932" stroke="none" stroke-width="0" stroke-linecap="round"/><path d="M101.21727,351.05694l-3.24494,3.24495l-24.50019,29.65188l-30.93594,-33.51952z" fill="#836932" stroke="none" stroke-width="0" stroke-linecap="round"/><path d="M145.21725,354.05694l-3.24495,3.24495l-24.50019,29.65188l-30.93594,-33.51952z" fill="#836932" stroke="none" stroke-width="0" stroke-linecap="round"/><path d="M246.21726,354.05694l-3.24495,3.24495l-24.50019,29.65188l-30.93594,-33.51952z" fill="#836932" stroke="none" stroke-width="0" stroke-linecap="round"/><path d="M194.21726,355.05694l-3.24495,3.24495l-24.50019,29.65188l-30.93594,-33.51952z" fill="#836932" stroke="none" stroke-width="0" stroke-linecap="round"/><path d="M292.21725,355.05694l-3.24494,3.24495l-24.50019,29.65188l-30.93594,-33.51952z" fill="#836932" stroke="none" stroke-width="0" stroke-linecap="round"/><path d="M339.21727,357.05694l-3.24494,3.24495l-24.50019,29.65188l-30.93594,-33.51952z" fill="#836932" stroke="none" stroke-width="0" stroke-linecap="round"/><path d="M392.21727,357.05694l-3.24494,3.24495l-24.50019,29.65188l-30.93594,-33.51952z" fill="#836932" stroke="none" stroke-width="0" stroke-linecap="round"/><path d="M449.21727,357.05694l-3.24494,3.24495l-24.50019,29.65188l-30.93594,-33.51952z" fill="#836932" stroke="none" stroke-width="0" stroke-linecap="round"/><path d="M-20.18003,356.90873v-42h468v42z" fill="#836932" stroke="none" stroke-width="0" stroke-linecap="butt"/><path d="M-52.36058,343.36483v-30.88469h506.87222v30.88469c0,0 -414.2029,0 -477.48035,0c-15.69946,0 -29.39187,0 -29.39187,0z" fill="#00a706" stroke="none" stroke-width="0" stroke-linecap="butt"/><path d="M8.21726,332.05694l-3.24495,3.24495l-24.50019,29.65188l-30.93594,-33.51952z" fill="#00a706" stroke="#00a706" stroke-width="0.5" stroke-linecap="round"/><path d="M53.21728,334.05694l-3.24495,3.24495l-24.50019,29.65188l-30.93594,-33.51952z" fill="#00a706" stroke="#00a706" stroke-width="0.5" stroke-linecap="round"/><path d="M102.21728,336.05694l-3.24495,3.24495l-24.50019,29.65188l-30.93594,-33.51952z" fill="#00a706" stroke="#00a706" stroke-width="0.5" stroke-linecap="round"/><path d="M146.21727,339.05694l-3.24495,3.24495l-24.50019,29.65188l-30.93594,-33.51952z" fill="#00a706" stroke="none" stroke-width="0" stroke-linecap="round"/><path d="M247.21727,339.05694l-3.24495,3.24495l-24.50019,29.65188l-30.93594,-33.51952z" fill="#00a706" stroke="none" stroke-width="0" stroke-linecap="round"/><path d="M195.21726,340.05694l-3.24495,3.24495l-24.50019,29.65188l-30.93594,-33.51952z" fill="#00a706" stroke="none" stroke-width="0" stroke-linecap="round"/><path d="M293.21725,340.05694l-3.24494,3.24495l-24.50019,29.65188l-30.93594,-33.51952z" fill="#00a706" stroke="none" stroke-width="0" stroke-linecap="round"/><path d="M340.21727,342.05694l-3.24494,3.24495l-24.50019,29.65188l-30.93594,-33.51952z" fill="#00a706" stroke="none" stroke-width="0" stroke-linecap="round"/><path d="M393.21727,342.05694l-3.24494,3.24495l-24.50019,29.65188l-30.93594,-33.51952z" fill="#00a706" stroke="none" stroke-width="0" stroke-linecap="round"/><path d="M450.21727,343.05694l-3.24494,3.24495l-24.50019,29.65188l-30.93594,-33.51952z" fill="#00a706" stroke="none" stroke-width="0" stroke-linecap="round"/></g></g></svg>