<svg version="1.1" xmlns="http://www.w3.org/2000/svg" xmlns:xlink="http://www.w3.org/1999/xlink" width="551.74856" height="514.65981" viewBox="0,0,551.74856,514.65981"><g transform="translate(52.36058,67.43111)"><g data-paper-data="{&quot;isPaintingLayer&quot;:true}" fill-rule="nonzero" stroke-linejoin="miter" stroke-miterlimit="10" stroke-dasharray="" stroke-dashoffset="0" style="mix-blend-mode: normal"><path d="M394.55067,-62.9426l64.9411,0l0,510.1713l-64.9411,0z" fill="#9c7e3b" stroke="none" stroke-width="0" stroke-linecap="butt"/><path d="M464.81118,-7.85327l-3.24495,-3.24495l-29.65188,-24.50019l33.51952,-30.93594z" fill="#836932" stroke="none" stroke-width="0" stroke-linecap="round"/><path d="M462.81119,37.14673l-3.24495,-3.24494l-29.65188,-24.50019l33.51952,-30.93594z" fill="#836932" stroke="none" stroke-width="0" stroke-linecap="round"/><path d="M460.81119,86.14674l-3.24495,-3.24494l-29.65188,-24.50019l33.51952,-30.93594z" fill="#836932" stroke="none" stroke-width="0" stroke-linecap="round"/><path d="M457.81119,130.14672l-3.24495,-3.24495l-29.65188,-24.50019l33.51952,-30.93594z" fill="#836932" stroke="none" stroke-width="0" stroke-linecap="round"/><path d="M457.81119,231.14673l-3.24495,-3.24495l-29.65188,-24.50019l33.51952,-30.93594z" fill="#836932" stroke="none" stroke-width="0" stroke-linecap="round"/><path d="M456.81118,179.14673l-3.24495,-3.24495l-29.65188,-24.50019l33.51952,-30.93594z" fill="#836932" stroke="none" stroke-width="0" stroke-linecap="round"/><path d="M456.81119,277.14672l-3.24495,-3.24494l-29.65188,-24.50019l33.51952,-30.93594z" fill="#836932" stroke="none" stroke-width="0" stroke-linecap="round"/><path d="M454.81119,324.14674l-3.24495,-3.24494l-29.65188,-24.50019l33.51952,-30.93594z" fill="#836932" stroke="none" stroke-width="0" stroke-linecap="round"/><path d="M454.81119,377.14674l-3.24495,-3.24494l-29.65188,-24.50019l33.51952,-30.93594z" fill="#836932" stroke="none" stroke-width="0" stroke-linecap="round"/><path d="M454.81119,434.14674l-3.24495,-3.24494l-29.65188,-24.50019l33.51952,-30.93594z" fill="#836932" stroke="none" stroke-width="0" stroke-linecap="round"/><path d="M454.9594,-35.25056l42,0v468l-42,0z" fill="#836932" stroke="none" stroke-width="0" stroke-linecap="butt"/><path d="M468.50329,-67.43111l30.88469,0l0,506.87222l-30.88469,0c0,0 0,-414.2029 0,-477.48035c0,-15.69946 0,-29.39187 0,-29.39187z" fill="#00a706" stroke="none" stroke-width="0" stroke-linecap="butt"/><path d="M479.81118,-6.85327l-3.24495,-3.24495l-29.65188,-24.50019l33.51952,-30.93594z" fill="#00a706" stroke="#00a706" stroke-width="0.5" stroke-linecap="round"/><path d="M477.81118,38.14675l-3.24495,-3.24495l-29.65188,-24.50019l33.51952,-30.93594z" fill="#00a706" stroke="#00a706" stroke-width="0.5" stroke-linecap="round"/><path d="M475.81118,87.14675l-3.24495,-3.24495l-29.65188,-24.50019l33.51952,-30.93594z" fill="#00a706" stroke="#00a706" stroke-width="0.5" stroke-linecap="round"/><path d="M472.81118,131.14674l-3.24495,-3.24495l-29.65188,-24.50019l33.51952,-30.93594z" fill="#00a706" stroke="none" stroke-width="0" stroke-linecap="round"/><path d="M472.81119,232.14674l-3.24495,-3.24495l-29.65188,-24.50019l33.51952,-30.93594z" fill="#00a706" stroke="none" stroke-width="0" stroke-linecap="round"/><path d="M471.81119,180.14673l-3.24495,-3.24495l-29.65188,-24.50019l33.51952,-30.93594z" fill="#00a706" stroke="none" stroke-width="0" stroke-linecap="round"/><path d="M471.81119,278.14672l-3.24495,-3.24494l-29.65188,-24.50019l33.51952,-30.93594z" fill="#00a706" stroke="none" stroke-width="0" stroke-linecap="round"/><path d="M469.81119,325.14674l-3.24495,-3.24494l-29.65188,-24.50019l33.51952,-30.93594z" fill="#00a706" stroke="none" stroke-width="0" stroke-linecap="round"/><path d="M469.81119,378.14674l-3.24495,-3.24494l-29.65188,-24.50019l33.51952,-30.93594z" fill="#00a706" stroke="none" stroke-width="0" stroke-linecap="round"/><path d="M468.81118,435.14674l-3.24495,-3.24494l-29.65188,-24.50019l33.51952,-30.93594z" fill="#00a706" stroke="none" stroke-width="0" stroke-linecap="round"/><path d="M-47.87206,417.31745v-64.9411h510.1713v64.9411z" fill="#9c7e3b" stroke="none" stroke-width="0" stroke-linecap="butt"/><path d="M7.21727,347.05694l-3.24495,3.24495l-24.50019,29.65188l-30.93594,-33.51952z" fill="#836932" stroke="none" stroke-width="0" stroke-linecap="round"/><path d="M52.21727,349.05694l-3.24494,3.24495l-24.50019,29.65188l-30.93594,-33.51952z" fill="#836932" stroke="none" stroke-width="0" stroke-linecap="round"/><path d="M101.21728,351.05694l-3.24494,3.24495l-24.50019,29.65188l-30.93594,-33.51952z" fill="#836932" stroke="none" stroke-width="0" stroke-linecap="round"/><path d="M145.21726,354.05694l-3.24495,3.24495l-24.50019,29.65188l-30.93594,-33.51952z" fill="#836932" stroke="none" stroke-width="0" stroke-linecap="round"/><path d="M246.21727,354.05694l-3.24495,3.24495l-24.50019,29.65188l-30.93594,-33.51952z" fill="#836932" stroke="none" stroke-width="0" stroke-linecap="round"/><path d="M194.21727,355.05694l-3.24495,3.24495l-24.50019,29.65188l-30.93594,-33.51952z" fill="#836932" stroke="none" stroke-width="0" stroke-linecap="round"/><path d="M292.21726,355.05694l-3.24494,3.24495l-24.50019,29.65188l-30.93594,-33.51952z" fill="#836932" stroke="none" stroke-width="0" stroke-linecap="round"/><path d="M339.21728,357.05694l-3.24494,3.24495l-24.50019,29.65188l-30.93594,-33.51952z" fill="#836932" stroke="none" stroke-width="0" stroke-linecap="round"/><path d="M392.21728,357.05694l-3.24494,3.24495l-24.50019,29.65188l-30.93594,-33.51952z" fill="#836932" stroke="none" stroke-width="0" stroke-linecap="round"/><path d="M449.21728,357.05694l-3.24494,3.24495l-24.50019,29.65188l-30.93594,-33.51952z" fill="#836932" stroke="none" stroke-width="0" stroke-linecap="round"/><path d="M-20.18002,356.90873v-42h468v42z" fill="#836932" stroke="none" stroke-width="0" stroke-linecap="butt"/><path d="M-52.36057,343.36483v-30.88469h506.87222v30.88469c0,0 -414.2029,0 -477.48035,0c-15.69946,0 -29.39187,0 -29.39187,0z" fill="#00a706" stroke="none" stroke-width="0" stroke-linecap="butt"/><path d="M8.21726,332.05694l-3.24495,3.24495l-24.50019,29.65188l-30.93594,-33.51952z" fill="#00a706" stroke="#00a706" stroke-width="0.5" stroke-linecap="round"/><path d="M53.21729,334.05694l-3.24495,3.24495l-24.50019,29.65188l-30.93594,-33.51952z" fill="#00a706" stroke="#00a706" stroke-width="0.5" stroke-linecap="round"/><path d="M102.21729,336.05694l-3.24495,3.24495l-24.50019,29.65188l-30.93594,-33.51952z" fill="#00a706" stroke="#00a706" stroke-width="0.5" stroke-linecap="round"/><path d="M146.21728,339.05694l-3.24495,3.24495l-24.50019,29.65188l-30.93594,-33.51952z" fill="#00a706" stroke="none" stroke-width="0" stroke-linecap="round"/><path d="M247.21728,339.05694l-3.24495,3.24495l-24.50019,29.65188l-30.93594,-33.51952z" fill="#00a706" stroke="none" stroke-width="0" stroke-linecap="round"/><path d="M195.21727,340.05694l-3.24495,3.24495l-24.50019,29.65188l-30.93594,-33.51952z" fill="#00a706" stroke="none" stroke-width="0" stroke-linecap="round"/><path d="M293.21726,340.05694l-3.24494,3.24495l-24.50019,29.65188l-30.93594,-33.51952z" fill="#00a706" stroke="none" stroke-width="0" stroke-linecap="round"/><path d="M340.21728,342.05694l-3.24494,3.24495l-24.50019,29.65188l-30.93594,-33.51952z" fill="#00a706" stroke="none" stroke-width="0" stroke-linecap="round"/><path d="M393.21728,342.05694l-3.24494,3.24495l-24.50019,29.65188l-30.93594,-33.51952z" fill="#00a706" stroke="none" stroke-width="0" stroke-linecap="round"/><path d="M450.21728,343.05694l-3.24494,3.24495l-24.50019,29.65188l-30.93594,-33.51952z" fill="#00a706" stroke="none" stroke-width="0" stroke-linecap="round"/></g></g></svg>