<svg version="1.1" xmlns="http://www.w3.org/2000/svg" xmlns:xlink="http://www.w3.org/1999/xlink" width="288.29092" height="38.21221" viewBox="0,0,288.29092,38.21221"><g transform="translate(-154.414,-275.97356)"><g data-paper-data="{&quot;isPaintingLayer&quot;:true}" fill-rule="nonzero" stroke="#ff0000" stroke-width="5.5" stroke-linejoin="miter" stroke-miterlimit="10" stroke-dasharray="" stroke-dashoffset="0" style="mix-blend-mode: normal"><path d="M160.38115,309.2738l7.05702,-13.47249c0,0 4.67019,-15.18328 7.05702,-15.18328c0.25738,0 5.77392,13.25864 5.77392,13.25864l4.91853,13.68634z" data-paper-data="{&quot;index&quot;:null}" fill="#ff0000" stroke-linecap="butt"/><path d="M157.164,309.57946l16.17687,-30.8559" data-paper-data="{&quot;index&quot;:null}" fill="none" stroke-linecap="round"/><path d="M174.23959,279.62228l13.03137,29.20825" data-paper-data="{&quot;index&quot;:null}" fill="none" stroke-linecap="round"/><path d="M157.52855,310.43577l30.42637,-0.32123" data-paper-data="{&quot;index&quot;:null}" fill="none" stroke-linecap="round"/><path d="M290.38115,309.2738l7.05702,-13.47249c0,0 4.67019,-15.18328 7.05702,-15.18328c0.25738,0 5.77392,13.25864 5.77392,13.25864l4.91853,13.68634z" data-paper-data="{&quot;index&quot;:null}" fill="#ff0000" stroke-linecap="butt"/><path d="M287.164,309.57946l16.17687,-30.8559" data-paper-data="{&quot;index&quot;:null}" fill="none" stroke-linecap="round"/><path d="M304.23959,279.62228l13.03137,29.20825" data-paper-data="{&quot;index&quot;:null}" fill="none" stroke-linecap="round"/><path d="M287.52855,310.43577l30.42637,-0.32123" data-paper-data="{&quot;index&quot;:null}" fill="none" stroke-linecap="round"/><path d="M412.38115,310.2738l7.05702,-13.47249c0,0 4.67019,-15.18328 7.05702,-15.18328c0.25738,0 5.77392,13.25864 5.77392,13.25864l4.91853,13.68634z" data-paper-data="{&quot;index&quot;:null}" fill="#ff0000" stroke-linecap="butt"/><path d="M409.164,310.57946l16.17687,-30.8559" data-paper-data="{&quot;index&quot;:null}" fill="none" stroke-linecap="round"/><path d="M426.23959,280.62228l13.03137,29.20825" data-paper-data="{&quot;index&quot;:null}" fill="none" stroke-linecap="round"/><path d="M409.52855,311.43577l30.42637,-0.32123" data-paper-data="{&quot;index&quot;:null}" fill="none" stroke-linecap="round"/></g></g></svg>