<svg xmlns="http://www.w3.org/2000/svg" xmlns:xlink="http://www.w3.org/1999/xlink" version="1.1" width="419.367364409375" height="68.54836416523437" viewBox="0.2333207116485596 0.21732067922363285 419.367364409375 68.54836416523437">
  <!-- Exported by Scratch - http://scratch.mit.edu/ -->
  <g id="ID0.5194637710228562">
    <g id="layer1">
      <g id="g4241">
        <g id="g4214">
          <path id="rect4144-3" fill="#f2f2f2" stroke="#606060" stroke-width="1.40649056" stroke-linecap="round" stroke-linejoin="miter" d="M 1.464 25.495 L 31.351 25.495 L 31.351 45.838 L 1.464 45.838 Z "/>
          <path id="rect4144-7-5" fill="#f2f2f2" stroke="#606060" stroke-width="1.40649056" stroke-linecap="round" stroke-linejoin="miter" d="M 35.295 25.495 L 65.183 25.495 L 65.183 45.838 L 35.295 45.838 Z "/>
          <path id="rect4144-1-5" fill="#f2f2f2" stroke="#606060" stroke-width="1.40649056" stroke-linecap="round" stroke-linejoin="miter" d="M 35.295 1.448 L 65.183 1.448 L 65.183 21.792 L 35.295 21.792 Z "/>
          <path id="rect4144-0-1" fill="#f2f2f2" stroke="#606060" stroke-width="1.40649056" stroke-linecap="round" stroke-linejoin="miter" d="M 69.201 25.495 L 99.089 25.495 L 99.089 45.838 L 69.201 45.838 Z "/>
          <g id="text4177">
            <path id="path4343" fill="#606060" stroke="none" stroke-width="1" d="M 50.281 10.8 L 49.597 17.184 L 47.012 17.184 L 45.677 5.204 L 47.509 5.204 L 48.519 14.651 L 49.426 5.204 L 51.24 5.204 L 52.181 14.719 L 53.157 5.204 L 54.8 5.204 L 53.465 17.184 L 50.966 17.184 L 50.281 10.8 Z "/>
          </g>
          <g id="text4177-4">
            <path id="path4346" fill="#606060" stroke="none" stroke-width="1" d="M 47.201 32.66 C 47.201 31.691 47.429 30.949 47.885 30.436 C 48.353 29.911 49.049 29.648 49.973 29.648 C 50.898 29.648 51.588 29.911 52.044 30.436 C 52.512 30.949 52.746 31.691 52.746 32.66 L 52.746 33.037 L 50.966 33.037 L 50.966 32.541 C 50.966 32.107 50.88 31.805 50.709 31.634 C 50.55 31.451 50.321 31.36 50.025 31.36 C 49.728 31.36 49.494 31.451 49.323 31.634 C 49.163 31.805 49.083 32.107 49.083 32.541 C 49.083 32.951 49.175 33.317 49.357 33.636 C 49.54 33.944 49.768 34.241 50.042 34.526 C 50.316 34.8 50.607 35.079 50.915 35.365 C 51.234 35.638 51.531 35.941 51.805 36.272 C 52.078 36.603 52.307 36.979 52.489 37.401 C 52.672 37.823 52.763 38.32 52.763 38.89 C 52.763 39.86 52.523 40.607 52.044 41.132 C 51.576 41.646 50.88 41.902 49.956 41.902 C 49.032 41.902 48.33 41.646 47.851 41.132 C 47.383 40.607 47.149 39.86 47.149 38.89 L 47.149 38.154 L 48.929 38.154 L 48.929 39.01 C 48.929 39.444 49.015 39.746 49.186 39.917 C 49.369 40.088 49.608 40.174 49.905 40.174 C 50.202 40.174 50.435 40.088 50.607 39.917 C 50.789 39.746 50.88 39.444 50.88 39.01 C 50.88 38.599 50.789 38.24 50.607 37.932 C 50.424 37.612 50.196 37.316 49.922 37.042 C 49.648 36.757 49.352 36.477 49.032 36.203 C 48.724 35.918 48.433 35.61 48.159 35.279 C 47.885 34.948 47.657 34.572 47.475 34.149 C 47.292 33.727 47.201 33.231 47.201 32.66 Z "/>
          </g>
          <g id="text4177-7">
            <path id="path4349" fill="#606060" stroke="none" stroke-width="1" d="M 19.984 41.629 L 18.085 41.629 L 17.76 39.455 L 15.449 39.455 L 15.124 41.629 L 13.395 41.629 L 15.312 29.648 L 18.068 29.648 L 19.984 41.629 Z M 15.689 37.829 L 17.503 37.829 L 16.596 31.771 L 15.689 37.829 Z "/>
          </g>
          <g id="text4177-8">
            <path id="path4352" fill="#606060" stroke="none" stroke-width="1" d="M 81.253 29.785 L 84.231 29.785 C 85.178 29.785 85.879 30.036 86.336 30.538 C 86.804 31.04 87.037 31.776 87.037 32.746 L 87.037 38.805 C 87.037 39.774 86.804 40.51 86.336 41.012 C 85.879 41.514 85.178 41.765 84.231 41.765 L 81.253 41.765 L 81.253 29.785 Z M 83.135 31.497 L 83.135 40.054 L 84.196 40.054 C 84.493 40.054 84.727 39.968 84.898 39.797 C 85.069 39.626 85.155 39.324 85.155 38.89 L 85.155 32.66 C 85.155 32.227 85.069 31.925 84.898 31.753 C 84.727 31.582 84.493 31.497 84.196 31.497 L 83.135 31.497 Z "/>
          </g>
        </g>
        <g id="text4177-4-8">
          <path id="path4355" fill="#f2f2f2" stroke="none" stroke-width="1" d="M 41.843 64.338 L 42.98 56.805 L 45.299 56.805 L 45.299 67.414 L 43.723 67.414 L 43.723 59.806 L 42.571 67.414 L 40.995 67.414 L 39.752 59.912 L 39.752 67.414 L 38.297 67.414 L 38.297 56.805 L 40.616 56.805 L 41.843 64.338 Z "/>
          <path id="path4357" fill="#f2f2f2" stroke="none" stroke-width="1" d="M 48.042 64.974 C 48.042 65.358 48.118 65.631 48.27 65.793 C 48.431 65.944 48.644 66.02 48.906 66.02 C 49.169 66.02 49.376 65.944 49.528 65.793 C 49.689 65.631 49.77 65.358 49.77 64.974 L 49.77 59.245 C 49.77 58.861 49.689 58.594 49.528 58.442 C 49.376 58.28 49.169 58.199 48.906 58.199 C 48.644 58.199 48.431 58.28 48.27 58.442 C 48.118 58.594 48.042 58.861 48.042 59.245 L 48.042 64.974 Z M 46.375 59.351 C 46.375 58.493 46.592 57.836 47.027 57.381 C 47.461 56.916 48.088 56.684 48.906 56.684 C 49.725 56.684 50.351 56.916 50.786 57.381 C 51.22 57.836 51.437 58.493 51.437 59.351 L 51.437 64.868 C 51.437 65.727 51.22 66.389 50.786 66.853 C 50.351 67.308 49.725 67.535 48.906 67.535 C 48.088 67.535 47.461 67.308 47.027 66.853 C 46.592 66.389 46.375 65.727 46.375 64.868 L 46.375 59.351 Z "/>
          <path id="path4359" fill="#f2f2f2" stroke="none" stroke-width="1" d="M 55.007 65.459 L 56.28 56.805 L 57.811 56.805 L 56.174 67.414 L 53.688 67.414 L 52.052 56.805 L 53.734 56.805 L 55.007 65.459 Z "/>
          <path id="path4361" fill="#f2f2f2" stroke="none" stroke-width="1" d="M 60.256 61.276 L 62.544 61.276 L 62.544 62.792 L 60.256 62.792 L 60.256 65.899 L 63.135 65.899 L 63.135 67.414 L 58.589 67.414 L 58.589 56.805 L 63.135 56.805 L 63.135 58.321 L 60.256 58.321 L 60.256 61.276 Z "/>
        </g>
      </g>
      <g id="g4228">
        <g id="g4204">
          <path id="rect4144" fill="#f2f2f2" stroke="#606060" stroke-width="1.40649056" stroke-linecap="round" stroke-linejoin="miter" d="M 120.358 25.495 L 150.246 25.495 L 150.246 45.838 L 120.358 45.838 Z "/>
          <path id="path4146" fill="none" stroke="#606060" stroke-width="2.46135855" stroke-linecap="round" stroke-linejoin="miter" d="M 137.975 31.271 L 133.203 35.792 L 137.975 40.062 "/>
          <path id="rect4144-7" fill="#f2f2f2" stroke="#606060" stroke-width="1.40649056" stroke-linecap="round" stroke-linejoin="miter" d="M 154.19 25.495 L 184.077 25.495 L 184.077 45.838 L 154.19 45.838 Z "/>
          <path id="path4146-0" fill="none" stroke="#606060" stroke-width="2.46135855" stroke-linecap="round" stroke-linejoin="miter" d="M 164.738 32.994 L 169.259 37.766 L 173.529 32.994 "/>
          <path id="rect4144-1" fill="#f2f2f2" stroke="#606060" stroke-width="1.40649056" stroke-linecap="round" stroke-linejoin="miter" d="M 154.189 1.448 L 184.077 1.448 L 184.077 21.792 L 154.189 21.792 Z "/>
          <path id="path4146-6" fill="none" stroke="#606060" stroke-width="2.46135855" stroke-linecap="round" stroke-linejoin="miter" d="M 173.529 14.293 L 169.008 9.521 L 164.738 14.293 "/>
          <path id="rect4144-0" fill="#f2f2f2" stroke="#606060" stroke-width="1.40651095" stroke-linecap="round" stroke-linejoin="miter" d="M 188.096 25.495 L 217.984 25.495 L 217.984 45.838 L 188.096 45.838 Z "/>
          <path id="path4146-3" fill="none" stroke="#606060" stroke-width="2.46135855" stroke-linecap="round" stroke-linejoin="miter" d="M 200.368 31.271 L 205.14 35.792 L 200.368 40.062 "/>
        </g>
        <g id="text4177-4-8-1">
          <path id="path4330" fill="#f2f2f2" stroke="none" stroke-width="1" d="M 156.098 55.197 L 158.015 55.197 L 158.015 65.653 L 161.169 65.653 L 161.169 67.396 L 156.098 67.396 L 156.098 55.197 Z "/>
          <path id="path4332" fill="#f2f2f2" stroke="none" stroke-width="1" d="M 163.78 64.59 C 163.78 65.032 163.868 65.345 164.042 65.531 C 164.228 65.706 164.472 65.793 164.774 65.793 C 165.076 65.793 165.314 65.706 165.488 65.531 C 165.674 65.345 165.767 65.032 165.767 64.59 L 165.767 58.003 C 165.767 57.561 165.674 57.253 165.488 57.079 C 165.314 56.893 165.076 56.8 164.774 56.8 C 164.472 56.8 164.228 56.893 164.042 57.079 C 163.868 57.253 163.78 57.561 163.78 58.003 L 163.78 64.59 Z M 161.863 58.125 C 161.863 57.137 162.113 56.382 162.613 55.859 C 163.112 55.325 163.833 55.057 164.774 55.057 C 165.715 55.057 166.435 55.325 166.935 55.859 C 167.434 56.382 167.684 57.137 167.684 58.125 L 167.684 64.468 C 167.684 65.456 167.434 66.217 166.935 66.751 C 166.435 67.274 165.715 67.535 164.774 67.535 C 163.833 67.535 163.112 67.274 162.613 66.751 C 162.113 66.217 161.863 65.456 161.863 64.468 L 161.863 58.125 Z "/>
          <path id="path4334" fill="#f2f2f2" stroke="none" stroke-width="1" d="M 170.69 64.59 C 170.69 65.032 170.777 65.345 170.951 65.531 C 171.137 65.706 171.381 65.793 171.683 65.793 C 171.986 65.793 172.224 65.706 172.398 65.531 C 172.584 65.345 172.677 65.032 172.677 64.59 L 172.677 58.003 C 172.677 57.561 172.584 57.253 172.398 57.079 C 172.224 56.893 171.986 56.8 171.683 56.8 C 171.381 56.8 171.137 56.893 170.951 57.079 C 170.777 57.253 170.69 57.561 170.69 58.003 L 170.69 64.59 Z M 168.773 58.125 C 168.773 57.137 169.023 56.382 169.522 55.859 C 170.022 55.325 170.742 55.057 171.683 55.057 C 172.625 55.057 173.345 55.325 173.844 55.859 C 174.344 56.382 174.594 57.137 174.594 58.125 L 174.594 64.468 C 174.594 65.456 174.344 66.217 173.844 66.751 C 173.345 67.274 172.625 67.535 171.683 67.535 C 170.742 67.535 170.022 67.274 169.522 66.751 C 169.023 66.217 168.773 65.456 168.773 64.468 L 168.773 58.125 Z "/>
          <path id="path4336" fill="#f2f2f2" stroke="none" stroke-width="1" d="M 178.349 62.534 L 177.757 63.649 L 177.757 67.396 L 175.84 67.396 L 175.84 55.197 L 177.757 55.197 L 177.757 60.512 L 180.266 55.197 L 182.183 55.197 L 179.517 60.634 L 182.183 67.396 L 180.214 67.396 L 178.349 62.534 Z "/>
        </g>
      </g>
      <g id="g4276">
        <g id="text4177-4-8-3">
          <path id="path4297" fill="#f2f2f2" stroke="none" stroke-width="1" d="M 250.133 60.617 L 252.608 60.617 L 252.608 62.359 L 250.133 62.359 L 250.133 67.396 L 248.216 67.396 L 248.216 55.197 L 253.287 55.197 L 253.287 56.94 L 250.133 56.94 L 250.133 60.617 Z "/>
          <path id="path4299" fill="#f2f2f2" stroke="none" stroke-width="1" d="M 254.206 55.197 L 256.123 55.197 L 256.123 67.396 L 254.206 67.396 L 254.206 55.197 Z "/>
          <path id="path4301" fill="#f2f2f2" stroke="none" stroke-width="1" d="M 261.516 67.396 C 261.493 67.315 261.47 67.239 261.447 67.169 C 261.424 67.1 261.4 67.013 261.377 66.908 C 261.365 66.803 261.354 66.67 261.342 66.507 C 261.342 66.345 261.342 66.141 261.342 65.897 L 261.342 63.98 C 261.342 63.411 261.243 63.01 261.046 62.778 C 260.848 62.545 260.529 62.429 260.087 62.429 L 259.425 62.429 L 259.425 67.396 L 257.508 67.396 L 257.508 55.197 L 260.401 55.197 C 261.4 55.197 262.121 55.429 262.562 55.894 C 263.015 56.359 263.242 57.062 263.242 58.003 L 263.242 58.961 C 263.242 60.216 262.823 61.041 261.987 61.436 C 262.475 61.633 262.806 61.959 262.98 62.412 C 263.166 62.853 263.259 63.394 263.259 64.033 L 263.259 65.915 C 263.259 66.217 263.271 66.484 263.294 66.716 C 263.317 66.937 263.375 67.164 263.468 67.396 L 261.516 67.396 Z M 259.425 56.94 L 259.425 60.687 L 260.175 60.687 C 260.535 60.687 260.814 60.594 261.011 60.408 C 261.22 60.222 261.325 59.885 261.325 59.397 L 261.325 58.194 C 261.325 57.753 261.243 57.433 261.081 57.236 C 260.93 57.038 260.686 56.94 260.349 56.94 L 259.425 56.94 Z "/>
          <path id="path4303" fill="#f2f2f2" stroke="none" stroke-width="1" d="M 266.437 60.338 L 269.068 60.338 L 269.068 62.081 L 266.437 62.081 L 266.437 65.653 L 269.748 65.653 L 269.748 67.396 L 264.52 67.396 L 264.52 55.197 L 269.748 55.197 L 269.748 56.94 L 266.437 56.94 L 266.437 60.338 Z "/>
          <path id="path4305" fill="#f2f2f2" stroke="none" stroke-width="1" d="M 276.431 55.197 C 277.396 55.197 278.11 55.452 278.575 55.964 C 279.051 56.475 279.289 57.224 279.289 58.212 L 279.289 59.798 C 279.289 60.785 279.051 61.535 278.575 62.046 C 278.11 62.557 277.396 62.813 276.431 62.813 L 275.525 62.813 L 275.525 67.396 L 273.608 67.396 L 273.608 55.197 L 276.431 55.197 Z M 275.525 56.94 L 275.525 61.07 L 276.431 61.07 C 276.733 61.07 276.966 60.989 277.128 60.826 C 277.291 60.663 277.372 60.361 277.372 59.92 L 277.372 58.09 C 277.372 57.648 277.291 57.346 277.128 57.184 C 276.966 57.021 276.733 56.94 276.431 56.94 L 275.525 56.94 Z "/>
          <path id="path4307" fill="#f2f2f2" stroke="none" stroke-width="1" d="M 282.04 64.59 C 282.04 65.032 282.127 65.345 282.301 65.531 C 282.487 65.706 282.731 65.793 283.033 65.793 C 283.335 65.793 283.573 65.706 283.747 65.531 C 283.933 65.345 284.026 65.032 284.026 64.59 L 284.026 58.003 C 284.026 57.561 283.933 57.253 283.747 57.079 C 283.573 56.893 283.335 56.8 283.033 56.8 C 282.731 56.8 282.487 56.893 282.301 57.079 C 282.127 57.253 282.04 57.561 282.04 58.003 L 282.04 64.59 Z M 280.123 58.125 C 280.123 57.137 280.372 56.382 280.872 55.859 C 281.371 55.325 282.092 55.057 283.033 55.057 C 283.974 55.057 284.694 55.325 285.194 55.859 C 285.693 56.382 285.943 57.137 285.943 58.125 L 285.943 64.468 C 285.943 65.456 285.693 66.217 285.194 66.751 C 284.694 67.274 283.974 67.535 283.033 67.535 C 282.092 67.535 281.371 67.274 280.872 66.751 C 280.372 66.217 280.123 65.456 280.123 64.468 L 280.123 58.125 Z "/>
          <path id="path4309" fill="#f2f2f2" stroke="none" stroke-width="1" d="M 291.197 67.396 C 291.174 67.315 291.151 67.239 291.128 67.169 C 291.104 67.1 291.081 67.013 291.058 66.908 C 291.046 66.803 291.035 66.67 291.023 66.507 C 291.023 66.345 291.023 66.141 291.023 65.897 L 291.023 63.98 C 291.023 63.411 290.924 63.01 290.727 62.778 C 290.529 62.545 290.21 62.429 289.768 62.429 L 289.106 62.429 L 289.106 67.396 L 287.189 67.396 L 287.189 55.197 L 290.082 55.197 C 291.081 55.197 291.801 55.429 292.243 55.894 C 292.696 56.359 292.923 57.062 292.923 58.003 L 292.923 58.961 C 292.923 60.216 292.504 61.041 291.668 61.436 C 292.156 61.633 292.487 61.959 292.661 62.412 C 292.847 62.853 292.94 63.394 292.94 64.033 L 292.94 65.915 C 292.94 66.217 292.952 66.484 292.975 66.716 C 292.998 66.937 293.056 67.164 293.149 67.396 L 291.197 67.396 Z M 289.106 56.94 L 289.106 60.687 L 289.855 60.687 C 290.216 60.687 290.494 60.594 290.692 60.408 C 290.901 60.222 291.006 59.885 291.006 59.397 L 291.006 58.194 C 291.006 57.753 290.924 57.433 290.762 57.236 C 290.611 57.038 290.367 56.94 290.03 56.94 L 289.106 56.94 Z "/>
          <path id="path4311" fill="#f2f2f2" stroke="none" stroke-width="1" d="M 293.643 55.197 L 299.568 55.197 L 299.568 56.94 L 297.564 56.94 L 297.564 67.396 L 295.647 67.396 L 295.647 56.94 L 293.643 56.94 L 293.643 55.197 Z "/>
          <path id="path4313" fill="#f2f2f2" stroke="none" stroke-width="1" d="M 305.953 67.396 L 304.019 67.396 L 303.688 65.183 L 301.335 65.183 L 301.004 67.396 L 299.244 67.396 L 301.195 55.197 L 304.001 55.197 L 305.953 67.396 Z M 301.579 63.527 L 303.426 63.527 L 302.502 57.358 L 301.579 63.527 Z "/>
          <path id="path4315" fill="#f2f2f2" stroke="none" stroke-width="1" d="M 306.829 55.197 L 308.746 55.197 L 308.746 65.653 L 311.9 65.653 L 311.9 67.396 L 306.829 67.396 L 306.829 55.197 Z "/>
        </g>
        <g id="g4266">
          <g id="g4261">
            <path id="rect4144-3-0" fill="#f2f2f2" stroke="#606060" stroke-width="1.40649056" stroke-linecap="round" stroke-linejoin="miter" d="M 239.258 25.501 L 269.146 25.501 L 269.146 45.845 L 239.258 45.845 Z "/>
            <g id="text4177-7-9">
              <path id="path4319" fill="#606060" stroke="none" stroke-width="1" d="M 253.568 34.703 L 256.153 34.703 L 256.153 36.415 L 253.568 36.415 L 253.568 39.923 L 256.82 39.923 L 256.82 41.635 L 251.686 41.635 L 251.686 29.655 L 256.82 29.655 L 256.82 31.366 L 253.568 31.366 L 253.568 34.703 Z "/>
            </g>
          </g>
          <g id="g4256">
            <path id="rect4144-0-1-8" fill="#f2f2f2" stroke="#606060" stroke-width="1.40649056" stroke-linecap="round" stroke-linejoin="miter" d="M 290.995 25.501 L 320.883 25.501 L 320.883 45.845 L 290.995 45.845 Z "/>
            <g id="text4177-8-8">
              <path id="path4323" fill="#606060" stroke="none" stroke-width="1" d="M 302.893 32.667 C 302.893 31.697 303.138 30.955 303.629 30.442 C 304.119 29.917 304.827 29.655 305.751 29.655 C 306.675 29.655 307.383 29.917 307.873 30.442 C 308.364 30.955 308.609 31.697 308.609 32.667 L 308.609 38.896 C 308.609 39.57 308.489 40.129 308.25 40.574 C 308.295 40.688 308.352 40.762 308.421 40.796 C 308.501 40.819 308.62 40.83 308.78 40.83 L 308.951 40.83 L 308.951 42.508 L 308.695 42.508 C 308.272 42.508 307.924 42.433 307.651 42.285 C 307.388 42.148 307.194 41.949 307.069 41.686 C 306.875 41.755 306.669 41.806 306.453 41.84 C 306.236 41.886 306.002 41.909 305.751 41.909 C 304.827 41.909 304.119 41.652 303.629 41.139 C 303.138 40.614 302.893 39.866 302.893 38.897 L 302.893 32.667 Z M 304.775 39.016 C 304.775 39.45 304.861 39.758 305.032 39.941 C 305.215 40.112 305.454 40.197 305.751 40.197 C 306.048 40.197 306.281 40.112 306.453 39.941 C 306.635 39.758 306.726 39.45 306.726 39.016 L 306.726 32.547 C 306.726 32.113 306.635 31.811 306.453 31.64 C 306.281 31.457 306.048 31.366 305.751 31.366 C 305.454 31.366 305.215 31.457 305.032 31.64 C 304.861 31.811 304.775 32.113 304.775 32.547 L 304.775 39.016 Z "/>
            </g>
          </g>
        </g>
      </g>
      <g id="g4258">
        <g id="g4379">
          <g id="g4316">
            <path id="rect4144-7-5-4" fill="#f2f2f2" stroke="#606060" stroke-width="1.40649056" stroke-linecap="round" stroke-linejoin="miter" d="M 364.992 25.515 L 394.88 25.515 L 394.88 45.859 L 364.992 45.859 Z "/>
            <g id="text4177-4-3">
              <path id="path4269" fill="#606060" stroke="none" stroke-width="1" d="M 381.074 41.786 C 381.051 41.706 381.028 41.632 381.005 41.563 C 380.983 41.495 380.96 41.409 380.937 41.307 C 380.925 41.204 380.914 41.073 380.903 40.913 C 380.903 40.753 380.903 40.553 380.903 40.314 L 380.903 38.431 C 380.903 37.872 380.806 37.478 380.612 37.25 C 380.418 37.022 380.104 36.908 379.67 36.908 L 379.02 36.908 L 379.02 41.786 L 377.137 41.786 L 377.137 29.805 L 379.978 29.805 C 380.96 29.805 381.667 30.034 382.101 30.49 C 382.546 30.946 382.768 31.637 382.768 32.561 L 382.768 33.502 C 382.768 34.734 382.357 35.545 381.536 35.933 C 382.015 36.126 382.34 36.446 382.511 36.891 C 382.694 37.325 382.785 37.855 382.785 38.483 L 382.785 40.331 C 382.785 40.628 382.797 40.89 382.819 41.118 C 382.842 41.335 382.899 41.558 382.991 41.786 L 381.074 41.786 Z M 379.02 31.517 L 379.02 35.197 L 379.756 35.197 C 380.11 35.197 380.383 35.105 380.577 34.923 C 380.783 34.74 380.886 34.409 380.886 33.93 L 380.886 32.749 C 380.886 32.316 380.806 32.002 380.646 31.808 C 380.498 31.614 380.258 31.517 379.927 31.517 L 379.02 31.517 Z "/>
            </g>
          </g>
          <g id="text4177-4-8-0">
            <path id="path4272" fill="#f2f2f2" stroke="none" stroke-width="1" d="M 344.176 55.179 C 345.14 55.179 345.855 55.435 346.319 55.946 C 346.796 56.457 347.034 57.207 347.034 58.194 L 347.034 59.78 C 347.034 60.768 346.796 61.517 346.319 62.028 C 345.855 62.54 345.14 62.795 344.176 62.795 L 343.27 62.795 L 343.27 67.379 L 341.353 67.379 L 341.353 55.179 L 344.176 55.179 Z M 343.27 56.922 L 343.27 61.052 L 344.176 61.052 C 344.478 61.052 344.71 60.971 344.873 60.808 C 345.036 60.646 345.117 60.344 345.117 59.902 L 345.117 58.072 C 345.117 57.631 345.036 57.329 344.873 57.166 C 344.71 57.003 344.478 56.922 344.176 56.922 L 343.27 56.922 Z "/>
            <path id="path4274" fill="#f2f2f2" stroke="none" stroke-width="1" d="M 348.024 55.179 L 349.941 55.179 L 349.941 67.378 L 348.024 67.378 L 348.024 55.179 Z "/>
            <path id="path4276" fill="#f2f2f2" stroke="none" stroke-width="1" d="M 356.885 62.83 L 356.885 64.451 C 356.885 65.438 356.641 66.199 356.153 66.734 C 355.677 67.256 354.968 67.518 354.027 67.518 C 353.086 67.518 352.371 67.256 351.883 66.734 C 351.407 66.199 351.169 65.438 351.169 64.451 L 351.169 58.107 C 351.169 57.12 351.407 56.364 351.883 55.842 C 352.371 55.307 353.086 55.04 354.027 55.04 C 354.968 55.04 355.677 55.307 356.153 55.842 C 356.641 56.364 356.885 57.12 356.885 58.107 L 356.885 59.292 L 355.073 59.292 L 355.073 57.985 C 355.073 57.544 354.98 57.236 354.794 57.061 C 354.619 56.876 354.381 56.783 354.079 56.783 C 353.777 56.783 353.533 56.876 353.347 57.061 C 353.173 57.236 353.086 57.544 353.086 57.985 L 353.086 64.573 C 353.086 65.014 353.173 65.322 353.347 65.496 C 353.533 65.671 353.777 65.758 354.079 65.758 C 354.381 65.758 354.619 65.671 354.794 65.496 C 354.98 65.322 355.073 65.014 355.073 64.573 L 355.073 62.83 L 356.885 62.83 Z "/>
            <path id="path4278" fill="#f2f2f2" stroke="none" stroke-width="1" d="M 360.575 62.516 L 359.982 63.632 L 359.982 67.378 L 358.065 67.378 L 358.065 55.179 L 359.982 55.179 L 359.982 60.495 L 362.492 55.179 L 364.409 55.179 L 361.742 60.617 L 364.409 67.378 L 362.439 67.378 L 360.575 62.516 Z "/>
            <path id="path4280" fill="#f2f2f2" stroke="none" stroke-width="1" d="M 367.043 55.179 L 367.043 64.59 C 367.043 65.032 367.13 65.34 367.304 65.514 C 367.49 65.688 367.734 65.775 368.036 65.775 C 368.338 65.775 368.577 65.688 368.751 65.514 C 368.937 65.34 369.03 65.032 369.03 64.59 L 369.03 55.179 L 370.842 55.179 L 370.842 64.468 C 370.842 65.456 370.598 66.217 370.11 66.751 C 369.634 67.274 368.925 67.535 367.984 67.535 C 367.043 67.535 366.328 67.274 365.84 66.751 C 365.364 66.217 365.126 65.456 365.126 64.468 L 365.126 55.179 L 367.043 55.179 Z "/>
            <path id="path4282" fill="#f2f2f2" stroke="none" stroke-width="1" d="M 374.98 55.179 C 375.944 55.179 376.659 55.435 377.124 55.946 C 377.6 56.457 377.838 57.207 377.838 58.194 L 377.838 59.78 C 377.838 60.768 377.6 61.517 377.124 62.028 C 376.659 62.54 375.944 62.795 374.98 62.795 L 374.074 62.795 L 374.074 67.379 L 372.157 67.379 L 372.157 55.179 L 374.98 55.179 Z M 374.074 56.922 L 374.074 61.052 L 374.98 61.052 C 375.282 61.052 375.514 60.971 375.677 60.808 C 375.84 60.646 375.921 60.344 375.921 59.902 L 375.921 58.072 C 375.921 57.631 375.84 57.329 375.677 57.166 C 375.514 57.003 375.282 56.922 374.98 56.922 L 374.074 56.922 Z "/>
            <path id="path4284" fill="#f2f2f2" stroke="none" stroke-width="1" d="M 383.175 64.573 C 383.175 65.014 383.262 65.328 383.437 65.514 C 383.622 65.688 383.866 65.775 384.169 65.775 C 384.471 65.775 384.709 65.688 384.883 65.514 C 385.069 65.328 385.162 65.014 385.162 64.573 L 385.162 57.985 C 385.162 57.544 385.069 57.236 384.883 57.061 C 384.709 56.876 384.471 56.783 384.169 56.783 C 383.866 56.783 383.622 56.876 383.437 57.061 C 383.262 57.236 383.175 57.544 383.175 57.985 L 383.175 64.573 Z M 381.258 58.107 C 381.258 57.12 381.508 56.364 382.008 55.842 C 382.507 55.307 383.227 55.04 384.169 55.04 C 385.11 55.04 385.83 55.307 386.33 55.842 C 386.829 56.364 387.079 57.12 387.079 58.107 L 387.079 64.451 C 387.079 65.438 386.829 66.199 386.33 66.734 C 385.83 67.256 385.11 67.518 384.169 67.518 C 383.227 67.518 382.507 67.256 382.008 66.734 C 381.508 66.199 381.258 65.438 381.258 64.451 L 381.258 58.107 Z "/>
            <path id="path4286" fill="#f2f2f2" stroke="none" stroke-width="1" d="M 391.218 55.179 C 392.217 55.179 392.937 55.412 393.379 55.876 C 393.832 56.341 394.058 57.044 394.058 57.985 L 394.058 58.421 C 394.058 59.048 393.96 59.565 393.762 59.972 C 393.564 60.379 393.251 60.681 392.821 60.878 C 393.344 61.076 393.71 61.401 393.919 61.854 C 394.14 62.296 394.25 62.842 394.25 63.492 L 394.25 64.486 C 394.25 65.427 394.006 66.147 393.518 66.647 C 393.03 67.135 392.304 67.378 391.34 67.378 L 388.325 67.378 L 388.325 55.179 L 391.218 55.179 Z M 390.242 61.889 L 390.242 65.636 L 391.34 65.636 C 391.665 65.636 391.909 65.549 392.072 65.374 C 392.246 65.2 392.333 64.886 392.333 64.433 L 392.333 63.37 C 392.333 62.801 392.234 62.412 392.037 62.203 C 391.851 61.993 391.537 61.889 391.096 61.889 L 390.242 61.889 Z M 390.242 56.922 L 390.242 60.146 L 390.991 60.146 C 391.351 60.146 391.63 60.053 391.828 59.867 C 392.037 59.681 392.141 59.345 392.141 58.857 L 392.141 58.177 C 392.141 57.735 392.06 57.416 391.897 57.218 C 391.746 57.021 391.502 56.922 391.165 56.922 L 390.242 56.922 Z "/>
            <path id="path4288" fill="#f2f2f2" stroke="none" stroke-width="1" d="M 394.882 65.636 C 394.986 65.647 395.097 65.653 395.213 65.653 C 395.329 65.653 395.439 65.653 395.544 65.653 C 395.846 65.653 396.102 65.577 396.311 65.426 C 396.531 65.275 396.642 64.962 396.642 64.485 L 396.642 55.179 L 398.559 55.179 L 398.559 64.346 C 398.559 64.962 398.483 65.467 398.332 65.862 C 398.181 66.257 397.978 66.571 397.722 66.803 C 397.467 67.024 397.17 67.181 396.834 67.274 C 396.508 67.367 396.166 67.413 395.805 67.413 C 395.631 67.413 395.474 67.413 395.335 67.413 C 395.195 67.413 395.044 67.401 394.882 67.378 L 394.882 65.635 Z "/>
            <path id="path4290" fill="#f2f2f2" stroke="none" stroke-width="1" d="M 401.78 60.32 L 404.412 60.32 L 404.412 62.063 L 401.78 62.063 L 401.78 65.636 L 405.092 65.636 L 405.092 67.378 L 399.863 67.378 L 399.863 55.179 L 405.092 55.179 L 405.092 56.922 L 401.78 56.922 L 401.78 60.32 Z "/>
            <path id="path4292" fill="#f2f2f2" stroke="none" stroke-width="1" d="M 411.822 62.83 L 411.822 64.451 C 411.822 65.438 411.578 66.199 411.09 66.734 C 410.614 67.256 409.905 67.518 408.964 67.518 C 408.023 67.518 407.308 67.256 406.82 66.734 C 406.344 66.199 406.106 65.438 406.106 64.451 L 406.106 58.107 C 406.106 57.12 406.344 56.364 406.82 55.842 C 407.308 55.307 408.023 55.04 408.964 55.04 C 409.905 55.04 410.614 55.307 411.09 55.842 C 411.578 56.364 411.822 57.12 411.822 58.107 L 411.822 59.292 L 410.009 59.292 L 410.009 57.985 C 410.009 57.544 409.916 57.236 409.731 57.061 C 409.556 56.876 409.318 56.783 409.016 56.783 C 408.714 56.783 408.47 56.876 408.284 57.061 C 408.11 57.236 408.023 57.544 408.023 57.985 L 408.023 64.573 C 408.023 65.014 408.11 65.322 408.284 65.496 C 408.47 65.671 408.714 65.758 409.016 65.758 C 409.318 65.758 409.556 65.671 409.731 65.496 C 409.916 65.322 410.009 65.014 410.009 64.573 L 410.009 62.83 L 411.822 62.83 Z "/>
            <path id="path4294" fill="#f2f2f2" stroke="none" stroke-width="1" d="M 412.444 55.179 L 418.37 55.179 L 418.37 56.922 L 416.366 56.922 L 416.366 67.378 L 414.449 67.378 L 414.449 56.922 L 412.444 56.922 L 412.444 55.179 Z "/>
          </g>
        </g>
      </g>
    </g>
  </g>
</svg>