<svg xmlns="http://www.w3.org/2000/svg" xmlns:xlink="http://www.w3.org/1999/xlink" version="1.1" width="360.3500061035156" height="277.96099853515625" viewBox="0.10289996862411499 0.37720000743865967 360.3500061035156 277.96099853515625">
  <!-- Exported by Scratch - http://scratch.mit.edu/ -->
  <path id="ID0.16235970007255673" fill="#E5E5E5" stroke="none" d="M 357.9529 0.8772 L 359.9529 0.8772 L 359.9529 2.5882 L 357.9529 2.5882 L 357.9529 0.8772 Z " stroke-width="0.005780346691608429"/>
  <path id="ID0.16235970007255673" fill="#E5E5E5" stroke="none" d="M 0.6029 276.1272 L 2.6029 276.1272 L 2.6029 277.8382 L 0.6029 277.8382 L 0.6029 276.1272 Z " stroke-width="0.005780346691608429"/>
  <g id="ID0.7687012255191803">
    <g id="ID0.055788740050047636">
      <g id="ID0.5426472770050168">
        <path id="ID0.6909661805257201" fill="#666666" d="M 135.77 38.2655 C 128.3038 39.5802 120.8984 45.2537 117.3738 52.4201 L 115.403 56.4813 L 115.1053 87.0589 L 114.8077 117.6974 L 93.4868 139.0792 C 73.6587 158.9073 72.105 160.5805 72.105 162.4905 C 72.105 164.4027 74.6734 167.0884 112.3001 204.7737 C 134.3381 226.8726 153.1514 245.386 154.0467 245.8641 C 154.9419 246.3421 156.2566 246.7007 157.0323 246.7007 C 158.047 246.7007 171.1259 233.9803 207.677 197.4878 L 256.9485 148.275 L 260.7098 147.9165 C 265.4881 147.4993 266.8027 146.7822 266.8027 144.6918 C 266.8027 143.3772 259.456 135.7937 223.3244 99.6011 C 183.49 59.7668 179.6678 56.1228 178.0555 56.3032 L 176.3237 56.4813 L 176.1455 81.0268 L 176.026 105.5746 L 178.0555 109.0383 C 180.3849 112.8605 181.0411 115.9656 180.6826 121.461 C 180.2654 128.3883 176.1433 134.3009 169.5745 137.5278 C 165.9913 139.3205 165.0961 139.4986 160.4959 139.4377 C 154.403 139.3791 151.1783 138.1253 146.9976 134.3009 C 139.8312 127.7321 138.3384 116.8022 143.473 108.6797 L 145.5025 105.4551 L 145.5634 96.1984 L 145.5634 86.9417 L 135.4092 97.0936 L 125.2573 107.2455 L 125.2573 83.3562 C 125.2573 56.4813 125.2573 56.8376 129.7966 52.4787 C 132.9017 49.5517 136.1263 48.298 140.5461 48.298 C 147.0562 48.2393 152.7298 52.4201 154.7593 58.6912 C 155.5959 61.2596 155.7154 65.1404 155.7154 85.9247 L 155.7154 110.1139 L 153.386 112.6214 C 150.459 115.8461 149.7419 119.1902 151.2347 122.9538 C 155.4155 133.4056 170.6456 130.5982 170.6456 119.3097 C 170.6456 116.0851 169.6895 113.9338 167.421 111.7848 L 165.8673 110.3529 L 165.8673 85.8051 C 165.8673 65.9162 165.6892 60.5425 164.9112 57.3765 C 161.8692 44.4171 149.0293 35.997 135.77 38.2655 Z " stroke-width="0.02254986200555953"/>
        <path id="ID0.022413842845708132" fill="#666666" d="M 264.9537 164.4613 C 262.4461 166.3735 249.7844 187.514 246.1989 195.756 C 241.4206 206.8054 241.2425 213.1352 245.4232 221.0795 C 255.2775 239.7733 281.9134 239.1171 290.8725 220.0039 C 293.38 214.5694 293.7994 208.0592 291.9481 202.0271 C 289.6187 194.3218 275.9422 169.8349 271.5224 165.2979 C 269.732 163.5661 266.6855 163.1489 264.9537 164.4613 Z " stroke-width="0.02254986200555953"/>
      </g>
    </g>
  </g>
</svg>