<svg xmlns="http://www.w3.org/2000/svg" xmlns:xlink="http://www.w3.org/1999/xlink" version="1.1" width="73.52735137939453" height="17.228599548339844" viewBox="-0.18250000476837158 -0.3874000012874603 73.52735137939453 17.228599548339844">
  <!-- Exported by Scratch - http://scratch.mit.edu/ -->
  <g id="ID0.2624227316118777">
    <g id="layer1">
      <g id="text4177-4-8-3">
        <path id="path4168" fill="#f2f2f2" stroke="none" stroke-width="0.8904109597206116" d="M 2.9799 2.6538 L 2.9799 7.4923 L 6.4151 7.4923 C 7.2627 7.4923 7.8923 7.2386 8.3045 6.7301 C 8.7239 6.2368 8.934 5.6839 8.934 5.0731 C 8.934 4.1595 8.6099 3.4935 7.9617 3.0732 C 7.5423 2.7936 6.9974 2.6538 6.3269 2.6538 L 2.9799 2.6538 Z M 0.4502 16.2077 C 0.3621 16.2077 0.3175 16.164 0.3175 16.0759 L 0.3175 0.2453 C 0.3175 0.1571 0.3621 0.1126 0.4502 0.1126 L 6.1942 0.1126 C 6.8282 0.1126 7.4284 0.1794 7.9947 0.3121 C 8.5699 0.4447 9.1807 0.7608 9.8289 1.2621 C 10.0791 1.4607 10.3079 1.6931 10.5136 1.9575 C 10.7273 2.2158 10.9188 2.5025 11.0879 2.8195 C 11.25 3.1436 11.3755 3.5006 11.4637 3.8906 C 11.5518 4.2815 11.5964 4.6973 11.5964 5.139 C 11.5964 6.2956 11.1618 7.4006 10.2928 8.4531 C 9.4238 9.4993 8.1612 10.022 6.5041 10.022 L 2.9799 10.022 L 2.9799 16.0759 C 2.9799 16.164 2.9353 16.2086 2.8472 16.2086 L 0.4502 16.2086 Z "/>
        <path id="path4170" fill="#f2f2f2" stroke="none" stroke-width="0.8904109597206116" d="M 13.6728 16.2086 C 13.5918 16.2086 13.5517 16.164 13.5517 16.0759 L 13.5517 4.8745 C 13.5517 4.7855 13.5918 4.7418 13.6728 4.7418 L 15.938 4.7418 C 16.019 4.7418 16.0591 4.7855 16.0591 4.8745 L 16.0591 5.7801 C 16.7661 5.0072 17.709 4.6199 18.8871 4.6199 C 19.7338 4.6199 20.5405 4.9146 21.3063 5.504 C 21.3357 5.5254 21.3508 5.5548 21.3508 5.5922 C 21.3579 5.6287 21.3508 5.6616 21.3286 5.6919 L 19.7045 7.6357 C 19.6528 7.7016 19.594 7.7096 19.5282 7.6579 C 19.0491 7.3045 18.5781 7.1282 18.1142 7.1282 C 17.5906 7.1282 17.116 7.3045 16.6886 7.6579 C 16.2692 8.0114 16.0591 8.5751 16.0591 9.3479 L 16.0591 16.0759 C 16.0591 16.164 16.019 16.2086 15.938 16.2086 L 13.6728 16.2086 Z "/>
        <path id="path4172" fill="#f2f2f2" stroke="none" stroke-width="0.8904109597206116" d="M 31.2264 11.3255 C 31.2264 11.4137 31.1818 11.4582 31.0937 11.4582 L 24.2562 11.4582 C 24.2776 12.2685 24.51 12.8829 24.9516 13.3032 C 25.4378 13.7448 26.0531 13.9656 26.7966 13.9656 C 27.6808 13.9656 28.4688 13.6192 29.1606 12.9274 C 29.1758 12.9051 29.2007 12.8945 29.2381 12.8945 C 29.2746 12.8873 29.3075 12.8945 29.3369 12.9167 L 30.9726 14.3084 C 31.002 14.3307 31.0162 14.3601 31.0162 14.3966 C 31.0162 14.4331 31.0055 14.4669 30.9833 14.4963 C 30.409 15.1588 29.7643 15.6342 29.0502 15.921 C 28.3432 16.2005 27.6033 16.3412 26.8295 16.3412 C 25.6444 16.3412 24.5064 15.9619 23.4166 15.2033 C 22.2973 14.4375 21.7373 12.8758 21.7373 10.5188 C 21.7373 8.2955 22.2492 6.756 23.2723 5.9021 C 24.3186 5.0473 25.3897 4.6199 26.4876 4.6199 C 27.7538 4.6199 28.8588 5.0588 29.8017 5.935 C 30.7509 6.8183 31.2264 7.9972 31.2264 9.4699 L 31.2264 11.3255 Z M 28.7074 9.3479 C 28.6558 8.5822 28.4278 8.0008 28.0227 7.6027 C 27.6175 7.2056 27.1055 7.0062 26.4876 7.0062 C 25.8465 7.0062 25.3203 7.2127 24.908 7.625 C 24.7166 7.8164 24.5652 8.0595 24.4548 8.3542 C 24.3444 8.649 24.2776 8.9802 24.2562 9.3479 L 28.7074 9.3479 Z "/>
        <path id="path4174" fill="#f2f2f2" stroke="none" stroke-width="0.8904109597206116" d="M 33.9884 12.5739 C 34.0472 12.5151 34.1024 12.5116 34.154 12.5623 C 35.1112 13.4973 36.2599 13.9656 37.5999 13.9656 C 38.2045 13.9656 38.7121 13.8508 39.1252 13.6228 C 39.3015 13.5124 39.4377 13.3762 39.5339 13.2141 C 39.6363 13.0521 39.6879 12.8677 39.6879 12.6621 C 39.6879 12.0797 39.2686 11.7556 38.4289 11.6897 L 36.4406 11.5018 C 35.9767 11.4582 35.5422 11.3585 35.1371 11.2036 C 34.7319 11.0486 34.3713 10.8314 34.0543 10.5518 C 33.4212 9.9917 33.1042 9.2082 33.1042 8.1984 C 33.1042 7.0204 33.5201 6.1255 34.3526 5.5147 C 35.17 4.9182 36.186 4.6199 37.4014 4.6199 C 37.9027 4.6199 38.363 4.6564 38.7824 4.7303 C 39.2098 4.8042 39.6034 4.9066 39.964 5.0392 C 40.3326 5.1719 40.671 5.334 40.9808 5.5254 C 41.2969 5.7168 41.5997 5.9305 41.8864 6.1665 C 41.9158 6.1879 41.9309 6.2173 41.9309 6.2547 C 41.9309 6.2912 41.9193 6.3241 41.8979 6.3535 L 40.5053 7.9892 C 40.4537 8.0408 40.3949 8.0479 40.329 8.0114 C 39.8945 7.7167 39.4449 7.4772 38.981 7.2929 C 38.5171 7.1014 37.9908 7.0062 37.4014 7.0062 C 36.7166 7.0062 36.2456 7.1237 35.9874 7.3597 C 35.7372 7.5876 35.6116 7.8752 35.6116 8.2207 C 35.6116 8.4344 35.7042 8.6329 35.8877 8.8173 C 36.0649 8.9945 36.4255 9.1049 36.9704 9.1485 C 37.2803 9.1708 37.5892 9.193 37.8982 9.2144 C 38.2152 9.2366 38.5242 9.2589 38.8269 9.2803 C 39.4012 9.3177 39.9088 9.4352 40.3513 9.6338 C 40.8001 9.8252 41.1536 10.0834 41.4118 10.4075 C 41.9345 11.07 42.1953 11.8545 42.1953 12.76 C 42.1953 13.9095 41.7279 14.7964 40.7929 15.4223 C 40.329 15.7242 39.8171 15.953 39.257 16.1079 C 38.7049 16.262 38.0941 16.3395 37.4236 16.3395 C 35.5386 16.3395 33.8664 15.6618 32.4079 14.3066 C 32.3421 14.2408 32.3421 14.174 32.4079 14.1081 L 33.9884 12.573 Z "/>
        <path id="path4176" fill="#f2f2f2" stroke="none" stroke-width="0.8904109597206116" d="M 44.8577 12.5739 C 44.9173 12.5151 44.9725 12.5116 45.0242 12.5623 C 45.9814 13.4973 47.13 13.9656 48.4701 13.9656 C 49.0747 13.9656 49.5822 13.8508 49.9945 13.6228 C 50.1716 13.5124 50.3079 13.3762 50.4032 13.2141 C 50.5064 13.0521 50.5581 12.8677 50.5581 12.6621 C 50.5581 12.0797 50.1387 11.7556 49.299 11.6897 L 47.3108 11.5018 C 46.8468 11.4582 46.4123 11.3585 46.0072 11.2036 C 45.6021 11.0486 45.2414 10.8314 44.9245 10.5518 C 44.2914 9.9917 43.9744 9.2082 43.9744 8.1984 C 43.9744 7.0204 44.3902 6.1255 45.2227 5.5147 C 46.0401 4.9182 47.0561 4.6199 48.2715 4.6199 C 48.7719 4.6199 49.2323 4.6564 49.6525 4.7303 C 50.079 4.8042 50.4735 4.9066 50.8341 5.0392 C 51.2027 5.1719 51.5411 5.334 51.851 5.5254 C 52.1671 5.7168 52.4689 5.9305 52.7565 6.1665 C 52.7859 6.1879 52.801 6.2173 52.801 6.2547 C 52.801 6.2912 52.7895 6.3241 52.7672 6.3535 L 51.3755 7.9892 C 51.3238 8.0408 51.2651 8.0479 51.1992 8.0114 C 50.7647 7.7167 50.315 7.4772 49.8511 7.2929 C 49.3872 7.1014 48.861 7.0062 48.2715 7.0062 C 47.5868 7.0062 47.1149 7.1237 46.8575 7.3597 C 46.6073 7.5876 46.4818 7.8752 46.4818 8.2207 C 46.4818 8.4344 46.5744 8.6329 46.7578 8.8173 C 46.935 8.9945 47.2956 9.1049 47.8405 9.1485 C 48.1504 9.1708 48.4594 9.193 48.7684 9.2144 C 49.0853 9.2366 49.3943 9.2589 49.6962 9.2803 C 50.2714 9.3177 50.7789 9.4352 51.2205 9.6338 C 51.6702 9.8252 52.0237 10.0834 52.281 10.4075 C 52.8046 11.07 53.0655 11.8545 53.0655 12.76 C 53.0655 13.9095 52.598 14.7964 51.6631 15.4223 C 51.1992 15.7242 50.6872 15.953 50.1271 16.1079 C 49.5751 16.262 48.9634 16.3395 48.2938 16.3395 C 46.4079 16.3395 44.7366 15.6618 43.2781 14.3066 C 43.2122 14.2408 43.2122 14.174 43.2781 14.1081 L 44.8577 12.573 Z "/>
        <path id="path4178" fill="#f2f2f2" stroke="none" stroke-width="0.8904109597206116" d="M 63.6489 2.5105 L 63.6489 7.0507 L 67.15 7.0507 C 68.0048 7.0507 68.645 6.8147 69.0724 6.3437 C 69.4998 5.8718 69.7135 5.3126 69.7135 4.6644 C 69.7135 4.2958 69.6467 3.9681 69.514 3.6814 C 69.3894 3.3938 69.2051 3.1578 68.962 2.9744 C 68.7483 2.8266 68.4981 2.7126 68.2105 2.6316 C 67.9309 2.5505 67.6255 2.5105 67.2942 2.5105 L 63.6489 2.5105 Z M 61.1192 16.2077 C 61.0302 16.2077 60.9866 16.164 60.9866 16.0759 L 60.9866 0.2453 C 60.9866 0.1571 61.0302 0.1126 61.1192 0.1126 L 67.3165 0.1126 C 68.0012 0.1126 68.6192 0.2088 69.1721 0.4002 C 69.7242 0.5845 70.2068 0.8499 70.619 1.1953 C 70.8327 1.3948 71.0349 1.6227 71.2263 1.8801 C 71.4258 2.1312 71.5985 2.4036 71.7454 2.6984 C 71.9003 2.9922 72.0223 3.3056 72.1105 3.6368 C 72.1986 3.9681 72.2432 4.3109 72.2432 4.6644 C 72.2432 5.1871 72.1692 5.6839 72.0223 6.1558 C 71.8745 6.6197 71.6688 7.0542 71.4035 7.4594 C 71.131 7.8342 70.814 8.1664 70.4534 8.4531 C 70.0928 8.7336 69.6841 8.9579 69.2273 9.1271 C 69.8239 10.2686 70.424 11.4173 71.0277 12.5739 C 71.6314 13.7225 72.2316 14.8676 72.8282 16.0091 C 72.8504 16.0608 72.8504 16.1088 72.8282 16.1525 C 72.8059 16.1899 72.7694 16.2077 72.7177 16.2077 L 69.8675 16.2077 C 69.8462 16.2077 69.8239 16.2005 69.8016 16.1854 C 69.7794 16.164 69.7616 16.1453 69.7464 16.1302 L 66.5098 9.4477 L 63.6489 9.4477 L 63.6489 16.075 C 63.6489 16.164 63.6044 16.2077 63.5162 16.2077 L 61.1192 16.2077 Z "/>
      </g>
    </g>
  </g>
</svg>