<svg xmlns="http://www.w3.org/2000/svg" xmlns:xlink="http://www.w3.org/1999/xlink" version="1.1" width="360.35003662109375" height="277.86102294921875" viewBox="0.10289996862411499 -0.47279999777674675 360.35003662109375 277.86102294921875">
  <!-- Exported by Scratch - http://scratch.mit.edu/ -->
  <path id="ID0.16235970007255673" fill="#E5E5E5" stroke="none" d="M 357.9529 0.0272 L 359.9529 0.0272 L 359.9529 1.7382 L 357.9529 1.7382 L 357.9529 0.0272 Z " stroke-width="0.005780346691608429"/>
  <g id="ID0.746894552372396">
    <g id="g3">
      <path id="circle5" fill="#666666" d="M 188.2502 107.8624 C 197.0276 107.8624 204.9811 111.4272 210.7403 117.1868 C 216.4999 122.9459 220.0646 130.8995 220.0646 139.6769 C 220.0646 148.4544 216.4999 156.4079 210.7403 162.167 C 204.9811 167.9266 197.0276 171.4914 188.2502 171.4914 C 179.4727 171.4914 171.5192 167.9266 165.7601 162.167 C 160.0005 156.4079 156.4357 148.4544 156.4357 139.6769 C 156.4357 130.8995 160.0005 122.9459 165.7601 117.1868 C 171.5192 111.4272 179.4727 107.8624 188.2502 107.8624 Z " stroke-width="0.42296919226646423"/>
      <path id="path7" fill="#666666" d="M 281.8063 76.9468 L 229.2388 76.9468 L 227.6662 64.6807 C 227.6662 57.6729 221.9849 51.9916 214.9772 51.9916 L 160.8371 51.9916 C 153.8294 51.9916 148.148 57.6729 148.148 64.6807 L 146.5754 76.9468 L 94.431 76.9468 C 89.7588 76.9468 85.9716 80.5226 85.9716 85.1947 L 85.9716 194.3207 C 85.9716 198.9928 89.7588 202.9916 94.431 202.9916 L 281.8063 202.9916 C 286.4784 202.9916 290.2657 198.9928 290.2657 194.3207 L 290.2657 85.1947 C 290.2657 80.5226 286.4784 76.9468 281.8063 76.9468 Z M 188.1588 191.8091 C 159.4274 191.8091 136.1361 168.5179 136.1361 139.7869 C 136.1361 111.0554 159.4274 87.7642 188.1588 87.7642 C 216.8903 87.7642 240.1815 111.0554 240.1815 139.7869 C 240.1815 168.5175 216.8903 191.8091 188.1588 191.8091 Z M 280.5374 99.3641 L 236.1256 99.3641 L 236.1256 86.2521 L 280.5374 86.2521 L 280.5374 99.3641 Z " stroke-width="0.42296919226646423"/>
    </g>
  </g>
  <path id="ID0.16235970007255673" fill="#E5E5E5" stroke="none" d="M 0.6029 275.1772 L 2.6029 275.1772 L 2.6029 276.8882 L 0.6029 276.8882 L 0.6029 275.1772 Z " stroke-width="0.005780346691608429"/>
</svg>