<svg xmlns="http://www.w3.org/2000/svg" xmlns:xlink="http://www.w3.org/1999/xlink" version="1.1" width="110.31599426269531" height="22.26799964904785" viewBox="-0.15799999237060547 -0.4519999958574772 110.31599426269531 22.26799964904785">
  <!-- Exported by Scratch - http://scratch.mit.edu/ -->
  <g id="text4164-5-1">
    <path id="path4205" fill="#f2f2f2" stroke="none" stroke-width="1" d="M 11.955 11.876 C 12.001 11.876 12.038 11.895 12.068 11.933 C 12.099 11.963 12.106 12.001 12.091 12.046 C 11.774 13.585 11.072 14.77 9.986 15.6 C 9.458 16 8.884 16.302 8.265 16.505 C 7.647 16.709 6.979 16.811 6.262 16.811 C 4.957 16.811 3.859 16.498 2.968 15.872 C 2.093 15.253 1.459 14.574 1.067 13.834 C 0.931 13.578 0.814 13.321 0.716 13.065 C 0.618 12.8 0.542 12.525 0.489 12.238 C 0.391 11.68 0.342 10.412 0.342 8.435 C 0.342 7.447 0.354 6.639 0.376 6.013 C 0.399 5.387 0.437 4.93 0.49 4.643 C 0.542 4.357 0.618 4.081 0.716 3.817 C 0.814 3.553 0.931 3.293 1.067 3.036 C 1.459 2.304 2.093 1.625 2.968 0.999 C 3.851 0.365 4.949 0.048 6.262 0.048 C 7.832 0.048 9.129 0.531 10.156 1.497 C 11.197 2.47 11.842 3.625 12.091 4.96 C 12.106 5.006 12.099 5.043 12.068 5.074 C 12.038 5.104 12.001 5.119 11.955 5.119 L 9.363 5.119 C 9.295 5.119 9.254 5.089 9.239 5.028 C 9.141 4.726 9.001 4.447 8.82 4.191 C 8.639 3.927 8.416 3.681 8.152 3.455 C 7.654 3.01 7.024 2.787 6.262 2.787 C 5.696 2.787 5.213 2.9 4.813 3.127 C 4.413 3.353 4.093 3.613 3.851 3.908 C 3.708 4.089 3.583 4.296 3.478 4.53 C 3.372 4.757 3.289 4.991 3.229 5.232 C 3.168 5.489 3.127 5.885 3.104 6.42 C 3.081 6.956 3.07 7.628 3.07 8.435 C 3.07 9.258 3.081 9.937 3.104 10.473 C 3.127 11.001 3.168 11.393 3.229 11.65 C 3.289 11.884 3.372 12.118 3.478 12.351 C 3.591 12.578 3.715 12.778 3.851 12.951 C 4.093 13.268 4.413 13.54 4.813 13.766 C 5.213 13.985 5.696 14.094 6.262 14.094 C 7.567 14.094 8.56 13.381 9.239 11.955 C 9.254 11.94 9.273 11.925 9.295 11.91 C 9.318 11.887 9.341 11.876 9.363 11.876 L 11.955 11.876 Z "/>
    <path id="path4207" fill="#f2f2f2" stroke="none" stroke-width="1" d="M 13.721 16.675 C 13.63 16.675 13.585 16.63 13.585 16.539 L 13.585 0.433 C 13.585 0.342 13.63 0.297 13.721 0.297 L 16.03 0.297 C 16.121 0.297 16.166 0.342 16.166 0.433 L 16.166 5.99 C 16.89 5.198 17.856 4.802 19.063 4.802 C 19.531 4.802 19.984 4.889 20.422 5.062 C 20.859 5.236 21.297 5.496 21.735 5.843 C 22.595 6.545 23.025 7.567 23.025 8.911 L 23.025 16.539 C 23.025 16.63 22.98 16.675 22.889 16.675 L 20.58 16.675 C 20.49 16.675 20.444 16.63 20.444 16.539 L 20.444 9.703 C 20.444 8.956 20.244 8.382 19.844 7.982 C 19.422 7.575 18.916 7.371 18.328 7.371 C 17.694 7.371 17.173 7.575 16.766 7.982 C 16.366 8.382 16.166 8.956 16.166 9.703 L 16.166 16.539 C 16.166 16.63 16.121 16.675 16.03 16.675 L 13.721 16.675 Z "/>
    <path id="path4209" fill="#f2f2f2" stroke="none" stroke-width="1" d="M 25.47 10.789 C 25.47 9.56 25.572 8.628 25.775 7.994 C 25.971 7.36 26.296 6.798 26.749 6.307 C 27.066 5.968 27.511 5.632 28.084 5.3 C 28.658 4.968 29.409 4.802 30.337 4.802 C 31.257 4.802 32.001 4.968 32.566 5.3 C 32.861 5.466 33.117 5.632 33.336 5.798 C 33.563 5.964 33.759 6.134 33.925 6.307 C 34.37 6.798 34.694 7.36 34.898 7.994 C 35.094 8.643 35.192 9.575 35.192 10.789 C 35.192 12.042 35.094 12.985 34.898 13.619 C 34.694 14.238 34.37 14.8 33.925 15.306 C 33.585 15.668 33.132 16.011 32.566 16.336 C 32.001 16.653 31.257 16.811 30.337 16.811 C 29.409 16.811 28.658 16.653 28.084 16.336 C 27.828 16.185 27.583 16.019 27.349 15.838 C 27.122 15.656 26.922 15.479 26.749 15.306 C 26.288 14.8 25.964 14.238 25.775 13.619 C 25.572 13 25.47 12.057 25.47 10.789 Z M 32.623 10.812 C 32.623 10.02 32.582 9.446 32.499 9.092 C 32.423 8.767 32.284 8.458 32.08 8.164 C 31.884 7.907 31.638 7.711 31.344 7.575 C 31.057 7.439 30.722 7.371 30.337 7.371 C 29.537 7.371 28.956 7.635 28.594 8.164 C 28.488 8.314 28.397 8.465 28.322 8.616 C 28.254 8.76 28.201 8.918 28.164 9.092 C 28.088 9.416 28.05 9.982 28.05 10.789 C 28.05 11.197 28.058 11.548 28.073 11.842 C 28.096 12.136 28.126 12.37 28.164 12.544 C 28.231 12.868 28.375 13.174 28.594 13.461 C 28.948 13.981 29.529 14.242 30.337 14.242 C 31.106 14.242 31.687 13.981 32.08 13.461 C 32.276 13.166 32.416 12.861 32.499 12.544 C 32.582 12.174 32.623 11.597 32.623 10.812 Z "/>
    <path id="path4211" fill="#f2f2f2" stroke="none" stroke-width="1" d="M 37.105 10.789 C 37.105 9.56 37.207 8.628 37.411 7.994 C 37.607 7.36 37.932 6.798 38.384 6.307 C 38.701 5.968 39.146 5.632 39.72 5.3 C 40.293 4.968 41.044 4.802 41.972 4.802 C 42.893 4.802 43.636 4.968 44.202 5.3 C 44.496 5.466 44.753 5.632 44.972 5.798 C 45.198 5.964 45.394 6.134 45.56 6.307 C 46.005 6.798 46.33 7.36 46.534 7.994 C 46.73 8.643 46.828 9.575 46.828 10.789 C 46.828 12.042 46.73 12.985 46.534 13.619 C 46.33 14.238 46.005 14.8 45.56 15.306 C 45.221 15.668 44.768 16.011 44.202 16.336 C 43.636 16.653 42.893 16.811 41.972 16.811 C 41.044 16.811 40.293 16.653 39.72 16.336 C 39.463 16.185 39.218 16.019 38.984 15.838 C 38.758 15.656 38.558 15.479 38.384 15.306 C 37.924 14.8 37.6 14.238 37.411 13.619 C 37.207 13 37.105 12.057 37.105 10.789 Z M 44.259 10.812 C 44.259 10.02 44.217 9.446 44.134 9.092 C 44.059 8.767 43.919 8.458 43.715 8.164 C 43.519 7.907 43.274 7.711 42.98 7.575 C 42.693 7.439 42.357 7.371 41.972 7.371 C 41.172 7.371 40.591 7.635 40.229 8.164 C 40.124 8.314 40.033 8.465 39.958 8.616 C 39.89 8.76 39.837 8.918 39.799 9.092 C 39.724 9.416 39.686 9.982 39.686 10.789 C 39.686 11.197 39.693 11.548 39.709 11.842 C 39.731 12.136 39.761 12.37 39.799 12.544 C 39.867 12.868 40.01 13.174 40.229 13.461 C 40.584 13.981 41.165 14.242 41.972 14.242 C 42.742 14.242 43.323 13.981 43.715 13.461 C 43.912 13.166 44.051 12.861 44.134 12.544 C 44.217 12.174 44.259 11.597 44.259 10.812 Z "/>
    <path id="path4213" fill="#f2f2f2" stroke="none" stroke-width="1" d="M 49.443 21.316 C 49.352 21.316 49.307 21.274 49.307 21.191 L 49.307 5.062 C 49.307 4.972 49.352 4.926 49.443 4.926 L 51.752 4.926 C 51.842 4.926 51.887 4.972 51.887 5.062 L 51.887 5.934 C 52.672 5.179 53.615 4.802 54.717 4.802 C 55.064 4.802 55.392 4.843 55.702 4.926 C 56.011 5.009 56.298 5.123 56.562 5.266 C 56.834 5.402 57.079 5.564 57.298 5.753 C 57.524 5.934 57.724 6.13 57.898 6.341 C 58.064 6.553 58.203 6.786 58.316 7.043 C 58.43 7.3 58.513 7.567 58.565 7.847 L 58.565 7.835 C 58.686 8.364 58.746 9.356 58.746 10.812 C 58.746 11.529 58.731 12.136 58.701 12.634 C 58.671 13.125 58.626 13.51 58.565 13.789 L 58.565 13.778 C 58.467 14.336 58.245 14.834 57.898 15.272 L 57.909 15.272 C 57.562 15.724 57.124 16.094 56.596 16.381 C 56.075 16.668 55.449 16.811 54.717 16.811 C 54.151 16.811 53.638 16.705 53.178 16.494 C 52.725 16.283 52.295 15.996 51.887 15.634 L 51.887 21.191 C 51.887 21.274 51.842 21.316 51.752 21.316 L 49.443 21.316 Z M 54.027 14.242 C 55.038 14.242 55.641 13.902 55.838 13.223 C 56.056 12.476 56.166 11.672 56.166 10.812 C 56.166 9.975 56.056 9.171 55.838 8.401 C 55.641 7.715 55.038 7.371 54.027 7.371 C 53.008 7.371 52.4 7.726 52.204 8.435 C 52.099 8.82 52.019 9.212 51.967 9.612 C 51.914 10.005 51.887 10.405 51.887 10.812 C 51.887 11.205 51.914 11.604 51.967 12.012 C 52.027 12.419 52.106 12.812 52.204 13.189 C 52.31 13.529 52.514 13.789 52.815 13.97 C 53.117 14.151 53.521 14.242 54.027 14.242 Z "/>
    <path id="path4215" fill="#f2f2f2" stroke="none" stroke-width="1" d="M 70.45 11.672 C 70.45 11.763 70.405 11.808 70.314 11.808 L 63.308 11.808 C 63.33 12.638 63.568 13.268 64.021 13.698 C 64.519 14.151 65.149 14.377 65.911 14.377 C 66.817 14.377 67.624 14.023 68.333 13.314 C 68.348 13.291 68.375 13.28 68.413 13.28 C 68.45 13.272 68.484 13.28 68.514 13.302 L 70.19 14.728 C 70.22 14.751 70.235 14.781 70.235 14.819 C 70.235 14.857 70.224 14.891 70.201 14.921 C 69.612 15.6 68.952 16.087 68.22 16.381 C 67.496 16.668 66.737 16.811 65.945 16.811 C 64.73 16.811 63.564 16.422 62.448 15.645 C 61.301 14.86 60.727 13.261 60.727 10.846 C 60.727 8.567 61.252 6.99 62.3 6.115 C 63.372 5.24 64.47 4.802 65.594 4.802 C 66.892 4.802 68.024 5.251 68.99 6.149 C 69.963 7.054 70.45 8.262 70.45 9.771 L 70.45 11.672 Z M 67.869 9.646 C 67.816 8.862 67.583 8.265 67.167 7.858 C 66.752 7.45 66.228 7.247 65.594 7.247 C 64.938 7.247 64.398 7.458 63.976 7.881 C 63.779 8.077 63.625 8.326 63.512 8.628 C 63.398 8.929 63.33 9.269 63.308 9.646 L 67.869 9.646 Z "/>
    <path id="path4217" fill="#f2f2f2" stroke="none" stroke-width="1" d="M 73.019 16.675 C 72.936 16.675 72.895 16.63 72.895 16.539 L 72.895 5.062 C 72.895 4.972 72.936 4.926 73.019 4.926 L 75.34 4.926 C 75.423 4.926 75.464 4.972 75.464 5.062 L 75.464 5.99 C 76.188 5.198 77.154 4.802 78.362 4.802 C 79.229 4.802 80.056 5.104 80.84 5.707 C 80.871 5.73 80.886 5.76 80.886 5.798 C 80.893 5.836 80.886 5.87 80.863 5.9 L 79.199 7.892 C 79.146 7.96 79.086 7.967 79.018 7.915 C 78.528 7.552 78.045 7.371 77.569 7.371 C 77.034 7.371 76.547 7.552 76.109 7.915 C 75.679 8.277 75.464 8.854 75.464 9.646 L 75.464 16.539 C 75.464 16.63 75.423 16.675 75.34 16.675 L 73.019 16.675 Z "/>
    <path id="path4219" fill="#f2f2f2" stroke="none" stroke-width="1" d="M 84.304 16.709 C 84.213 16.709 84.168 16.664 84.168 16.573 L 84.168 3.127 C 83.821 3.383 83.474 3.644 83.127 3.908 C 82.78 4.164 82.433 4.417 82.085 4.666 C 82.033 4.704 81.984 4.711 81.938 4.689 C 81.893 4.658 81.87 4.613 81.87 4.553 L 81.87 2.097 C 81.87 2.082 81.874 2.063 81.882 2.04 C 81.897 2.017 81.912 1.999 81.927 1.984 L 84.259 0.297 L 86.624 0.297 C 86.715 0.297 86.76 0.342 86.76 0.433 L 86.76 16.573 C 86.76 16.664 86.715 16.709 86.624 16.709 L 84.304 16.709 Z "/>
    <path id="path4221" fill="#f2f2f2" stroke="none" stroke-width="1" d="M 95.939 5.062 C 95.939 4.33 95.743 3.761 95.351 3.353 C 94.966 2.938 94.449 2.731 93.8 2.731 C 93.151 2.731 92.634 2.938 92.25 3.353 C 91.865 3.761 91.672 4.33 91.672 5.062 L 91.672 11.91 C 91.672 12.65 91.865 13.223 92.25 13.63 C 92.634 14.038 93.151 14.242 93.8 14.242 C 94.449 14.242 94.966 14.038 95.351 13.63 C 95.743 13.223 95.939 12.649 95.939 11.91 L 95.939 5.062 Z M 89.092 4.926 C 89.092 3.402 89.571 2.229 90.529 1.406 C 91.48 0.569 92.57 0.15 93.8 0.15 C 94.411 0.15 94.989 0.259 95.532 0.478 C 96.083 0.689 96.596 0.999 97.071 1.406 C 97.547 1.829 97.905 2.334 98.147 2.923 C 98.396 3.504 98.52 4.172 98.52 4.926 L 98.52 12.046 C 98.52 13.563 98.037 14.736 97.071 15.566 C 96.121 16.396 95.03 16.811 93.8 16.811 C 92.57 16.811 91.48 16.396 90.529 15.566 C 89.571 14.743 89.092 13.57 89.092 12.046 L 89.092 4.926 Z "/>
    <path id="path4223" fill="#f2f2f2" stroke="none" stroke-width="1" d="M 107.077 5.062 C 107.077 4.33 106.881 3.761 106.488 3.353 C 106.104 2.938 105.587 2.731 104.938 2.731 C 104.289 2.731 103.772 2.938 103.387 3.353 C 103.002 3.761 102.81 4.33 102.81 5.062 L 102.81 11.91 C 102.81 12.65 103.002 13.223 103.387 13.63 C 103.772 14.038 104.289 14.242 104.938 14.242 C 105.587 14.242 106.104 14.038 106.488 13.63 C 106.881 13.223 107.077 12.649 107.077 11.91 L 107.077 5.062 Z M 100.229 4.926 C 100.229 3.402 100.708 2.229 101.667 1.406 C 102.617 0.569 103.708 0.15 104.938 0.15 C 105.549 0.15 106.126 0.259 106.67 0.478 C 107.22 0.689 107.733 0.999 108.209 1.406 C 108.684 1.829 109.043 2.334 109.284 2.923 C 109.533 3.504 109.658 4.172 109.658 4.926 L 109.658 12.046 C 109.658 13.563 109.175 14.736 108.209 15.566 C 107.258 16.396 106.168 16.811 104.938 16.811 C 103.708 16.811 102.617 16.396 101.667 15.566 C 100.708 14.743 100.229 13.57 100.229 12.046 L 100.229 4.926 Z "/>
  </g>
</svg>