<svg xmlns="http://www.w3.org/2000/svg" xmlns:xlink="http://www.w3.org/1999/xlink" version="1.1" width="486.80000019" height="366.80000019" viewBox="-3.400000095 -3.3880000939643695 486.80000019 366.80000019">
  <!-- Exported by Scratch - http://scratch.mit.edu/ -->
  <g id="ID0.5481560020707548">
    <g id="layer1">
      <path id="rect4133" fill="#333333" stroke="none" stroke-width="6.80000019" stroke-linecap="round" stroke-linejoin="round" d="M 0 0.012 L 480 0.012 L 480 360.012 L 0 360.012 L 0 0.012 Z "/>
      <g id="text4135">
        <path id="path4192" fill="#ffffff" stroke="none" stroke-width="1" d="M 146.389 207.876 L 146.389 152.149 L 150.051 152.149 L 150.051 204.532 L 167.566 204.532 L 167.566 207.876 L 146.389 207.876 Z "/>
        <path id="path4194" fill="#ffffff" stroke="none" stroke-width="1" d="M 172.894 165.762 C 172.894 163.745 173.133 161.888 173.611 160.189 C 174.089 158.438 174.805 156.952 175.76 155.731 C 176.769 154.457 178.043 153.476 179.582 152.786 C 181.121 152.043 182.952 151.671 185.075 151.671 C 187.198 151.671 189.029 152.043 190.568 152.786 C 192.16 153.476 193.46 154.457 194.469 155.731 C 195.477 156.952 196.22 158.438 196.698 160.189 C 197.175 161.888 197.414 163.745 197.414 165.762 L 197.414 194.262 C 197.414 196.279 197.175 198.163 196.698 199.915 C 196.22 201.613 195.477 203.099 194.469 204.373 C 193.46 205.593 192.16 206.575 190.568 207.318 C 189.029 208.008 187.198 208.353 185.075 208.353 C 182.952 208.353 181.121 208.008 179.582 207.318 C 178.043 206.575 176.769 205.593 175.76 204.373 C 174.805 203.099 174.089 201.613 173.611 199.915 C 173.133 198.163 172.894 196.279 172.894 194.262 L 172.894 165.762 Z M 176.556 194.501 C 176.556 197.526 177.193 200.047 178.467 202.064 C 179.794 204.028 181.996 205.01 185.075 205.01 C 188.153 205.01 190.356 204.028 191.682 202.064 C 193.062 200.047 193.752 197.526 193.752 194.501 L 193.752 165.523 C 193.752 162.498 193.062 160.004 191.682 158.04 C 190.356 156.023 188.153 155.015 185.075 155.015 C 181.996 155.015 179.794 156.023 178.467 158.04 C 177.193 160.004 176.556 162.498 176.556 165.523 L 176.556 194.501 Z "/>
        <path id="path4196" fill="#ffffff" stroke="none" stroke-width="1" d="M 208.632 195.536 L 205.845 207.876 L 202.502 207.876 L 214.682 152.069 L 220.016 152.069 L 232.435 207.876 L 228.773 207.876 L 225.987 195.536 L 208.632 195.536 Z M 209.189 192.352 L 225.43 192.352 L 217.23 156.288 L 209.189 192.352 Z "/>
        <path id="path4198" fill="#ffffff" stroke="none" stroke-width="1" d="M 250.232 152.149 C 252.355 152.149 254.186 152.494 255.725 153.184 C 257.317 153.821 258.617 154.749 259.626 155.97 C 260.634 157.191 261.377 158.65 261.855 160.349 C 262.332 162.047 262.571 163.931 262.571 166.001 L 262.571 194.024 C 262.571 196.093 262.332 197.977 261.855 199.676 C 261.377 201.374 260.634 202.834 259.626 204.054 C 258.617 205.275 257.317 206.23 255.725 206.92 C 254.186 207.557 252.355 207.876 250.232 207.876 L 237.972 207.876 L 237.972 152.149 L 250.232 152.149 Z M 250.152 204.532 C 253.283 204.532 255.513 203.577 256.839 201.666 C 258.219 199.755 258.909 197.261 258.909 194.183 L 258.909 165.842 C 258.909 162.763 258.219 160.269 256.839 158.358 C 255.459 156.448 253.23 155.492 250.152 155.492 L 241.634 155.492 L 241.634 204.532 L 250.152 204.532 Z "/>
        <path id="path4200" fill="#ffffff" stroke="none" stroke-width="1" d="M 272.265 152.149 L 272.265 207.876 L 268.603 207.876 L 268.603 152.149 L 272.265 152.149 Z "/>
        <path id="path4202" fill="#ffffff" stroke="none" stroke-width="1" d="M 282.053 207.876 L 278.71 207.876 L 278.71 152.149 L 283.486 152.149 L 300.204 199.198 L 300.204 152.149 L 303.548 152.149 L 303.548 207.876 L 299.488 207.876 L 282.053 158.199 L 282.053 207.876 Z "/>
        <path id="path4204" fill="#ffffff" stroke="none" stroke-width="1" d="M 321.59 151.671 C 323.713 151.671 325.517 152.043 327.003 152.786 C 328.542 153.476 329.789 154.457 330.745 155.731 C 331.753 156.952 332.47 158.438 332.894 160.189 C 333.372 161.888 333.611 163.745 333.611 165.762 L 333.611 169.902 L 330.108 169.902 L 330.108 165.523 C 330.108 164.037 329.949 162.657 329.63 161.383 C 329.365 160.11 328.887 158.995 328.197 158.04 C 327.507 157.085 326.632 156.341 325.57 155.811 C 324.509 155.28 323.208 155.015 321.669 155.015 C 320.13 155.015 318.83 155.28 317.768 155.811 C 316.707 156.341 315.831 157.085 315.141 158.04 C 314.451 158.995 313.947 160.11 313.629 161.383 C 313.363 162.657 313.231 164.037 313.231 165.523 L 313.231 194.501 C 313.231 195.987 313.363 197.367 313.629 198.641 C 313.947 199.915 314.451 201.029 315.141 201.985 C 315.831 202.887 316.707 203.603 317.768 204.134 C 318.83 204.665 320.13 204.93 321.669 204.93 C 323.208 204.93 324.509 204.665 325.57 204.134 C 326.632 203.603 327.507 202.887 328.197 201.985 C 328.887 201.029 329.365 199.915 329.63 198.641 C 329.949 197.367 330.108 195.987 330.108 194.501 L 330.108 182.48 L 322.704 182.48 L 322.704 179.136 L 333.611 179.136 L 333.611 194.262 C 333.611 196.279 333.372 198.163 332.894 199.915 C 332.47 201.613 331.753 203.099 330.745 204.373 C 329.789 205.593 328.542 206.575 327.003 207.318 C 325.517 208.008 323.713 208.353 321.59 208.353 C 319.467 208.353 317.636 208.008 316.097 207.318 C 314.61 206.575 313.363 205.593 312.355 204.373 C 311.4 203.099 310.683 201.613 310.205 199.915 C 309.781 198.163 309.569 196.279 309.569 194.262 L 309.569 165.762 C 309.569 163.745 309.781 161.888 310.205 160.189 C 310.683 158.438 311.4 156.952 312.355 155.731 C 313.363 154.457 314.61 153.476 316.097 152.786 C 317.636 152.043 319.467 151.671 321.59 151.671 Z "/>
      </g>
      <g id="text4135-8">
        <path id="path4139" fill="#666666" stroke="none" stroke-width="1" d="M 15.046 345.107 L 15.046 346.246 C 15.046 346.941 14.874 347.476 14.531 347.851 C 14.196 348.219 13.698 348.403 13.036 348.403 C 12.375 348.403 11.872 348.219 11.529 347.851 C 11.194 347.476 11.027 346.941 11.027 346.246 L 11.027 341.786 C 11.027 341.092 11.194 340.561 11.529 340.193 C 11.872 339.818 12.375 339.63 13.036 339.63 C 13.698 339.63 14.196 339.818 14.531 340.193 C 14.874 340.561 15.046 341.092 15.046 341.786 L 15.046 342.619 L 13.771 342.619 L 13.771 341.7 C 13.771 341.39 13.706 341.174 13.575 341.051 C 13.453 340.92 13.285 340.855 13.073 340.855 C 12.861 340.855 12.689 340.92 12.558 341.051 C 12.436 341.174 12.375 341.39 12.375 341.7 L 12.375 346.332 C 12.375 346.642 12.436 346.859 12.558 346.981 C 12.689 347.104 12.861 347.165 13.073 347.165 C 13.285 347.165 13.453 347.104 13.575 346.981 C 13.706 346.859 13.771 346.642 13.771 346.332 L 13.771 345.107 L 15.046 345.107 Z "/>
        <path id="path4141" fill="#666666" stroke="none" stroke-width="1" d="M 17.223 348.305 L 15.875 348.305 L 15.875 339.728 L 17.223 339.728 L 17.223 343.404 L 18.755 343.404 L 18.755 339.728 L 20.127 339.728 L 20.127 348.305 L 18.755 348.305 L 18.755 344.629 L 17.223 344.629 L 17.223 348.305 Z "/>
        <path id="path4143" fill="#666666" stroke="none" stroke-width="1" d="M 22.354 346.332 C 22.354 346.643 22.415 346.863 22.538 346.994 C 22.669 347.116 22.84 347.177 23.052 347.177 C 23.265 347.177 23.432 347.116 23.555 346.994 C 23.686 346.863 23.751 346.643 23.751 346.332 L 23.751 341.7 C 23.751 341.39 23.686 341.174 23.555 341.051 C 23.432 340.92 23.265 340.855 23.052 340.855 C 22.84 340.855 22.669 340.92 22.538 341.051 C 22.415 341.174 22.354 341.39 22.354 341.7 L 22.354 346.332 Z M 21.006 341.786 C 21.006 341.092 21.182 340.561 21.533 340.193 C 21.884 339.818 22.391 339.63 23.052 339.63 C 23.714 339.63 24.221 339.818 24.572 340.193 C 24.923 340.561 25.099 341.092 25.099 341.786 L 25.099 346.246 C 25.099 346.941 24.923 347.476 24.572 347.851 C 24.221 348.219 23.714 348.403 23.052 348.403 C 22.391 348.403 21.884 348.219 21.533 347.851 C 21.182 347.476 21.006 346.941 21.006 346.246 L 21.006 341.786 Z "/>
        <path id="path4145" fill="#666666" stroke="none" stroke-width="1" d="M 27.212 346.332 C 27.212 346.643 27.273 346.863 27.396 346.994 C 27.527 347.116 27.698 347.177 27.911 347.177 C 28.123 347.177 28.29 347.116 28.413 346.994 C 28.544 346.863 28.609 346.643 28.609 346.332 L 28.609 341.7 C 28.609 341.39 28.544 341.174 28.413 341.051 C 28.29 340.92 28.123 340.855 27.911 340.855 C 27.698 340.855 27.527 340.92 27.396 341.051 C 27.273 341.174 27.212 341.39 27.212 341.7 L 27.212 346.332 Z M 25.864 341.786 C 25.864 341.092 26.04 340.561 26.391 340.193 C 26.742 339.818 27.249 339.63 27.911 339.63 C 28.572 339.63 29.079 339.818 29.43 340.193 C 29.781 340.561 29.957 341.092 29.957 341.786 L 29.957 346.246 C 29.957 346.941 29.781 347.476 29.43 347.851 C 29.079 348.219 28.572 348.403 27.911 348.403 C 27.249 348.403 26.742 348.219 26.391 347.851 C 26.04 347.476 25.864 346.941 25.864 346.246 L 25.864 341.786 Z "/>
        <path id="path4147" fill="#666666" stroke="none" stroke-width="1" d="M 32.818 339.728 C 33.496 339.728 33.998 339.907 34.325 340.267 C 34.66 340.626 34.827 341.153 34.827 341.847 L 34.827 342.963 C 34.827 343.657 34.66 344.184 34.325 344.543 C 33.998 344.903 33.496 345.082 32.818 345.082 L 32.181 345.082 L 32.181 348.305 L 30.833 348.305 L 30.833 339.728 L 32.818 339.728 Z M 32.181 340.953 L 32.181 343.857 L 32.818 343.857 C 33.03 343.857 33.193 343.8 33.308 343.685 C 33.422 343.571 33.479 343.359 33.479 343.048 L 33.479 341.762 C 33.479 341.451 33.422 341.239 33.308 341.125 C 33.193 341.01 33.03 340.953 32.818 340.953 L 32.181 340.953 Z "/>
        <path id="path4149" fill="#666666" stroke="none" stroke-width="1" d="M 36.799 343.342 L 38.65 343.342 L 38.65 344.568 L 36.799 344.568 L 36.799 347.079 L 39.127 347.079 L 39.127 348.305 L 35.451 348.305 L 35.451 339.728 L 39.127 339.728 L 39.127 340.953 L 36.799 340.953 L 36.799 343.342 Z "/>
        <path id="path4151" fill="#666666" stroke="none" stroke-width="1" d="M 42.769 348.305 C 42.752 348.247 42.736 348.194 42.72 348.145 C 42.703 348.097 42.687 348.036 42.671 347.962 C 42.663 347.888 42.654 347.794 42.646 347.68 C 42.646 347.566 42.646 347.423 42.646 347.251 L 42.646 345.903 C 42.646 345.503 42.577 345.221 42.438 345.058 C 42.299 344.894 42.074 344.813 41.764 344.813 L 41.298 344.813 L 41.298 348.305 L 39.951 348.305 L 39.951 339.728 L 41.985 339.728 C 42.687 339.728 43.194 339.891 43.504 340.218 C 43.823 340.545 43.982 341.039 43.982 341.7 L 43.982 342.374 C 43.982 343.257 43.688 343.837 43.1 344.114 C 43.443 344.253 43.676 344.482 43.798 344.8 C 43.929 345.111 43.994 345.491 43.994 345.94 L 43.994 347.263 C 43.994 347.476 44.002 347.664 44.019 347.827 C 44.035 347.982 44.076 348.141 44.141 348.305 L 42.769 348.305 Z M 41.298 340.953 L 41.298 343.587 L 41.825 343.587 C 42.079 343.587 42.275 343.522 42.413 343.391 C 42.561 343.261 42.634 343.024 42.634 342.681 L 42.634 341.835 C 42.634 341.525 42.577 341.3 42.462 341.161 C 42.356 341.022 42.185 340.953 41.948 340.953 L 41.298 340.953 Z "/>
        <path id="path4153" fill="#666666" stroke="none" stroke-width="1" d="M 45.714 340.806 C 45.975 340.806 46.188 340.777 46.351 340.72 C 46.522 340.663 46.661 340.585 46.767 340.487 C 46.874 340.389 46.959 340.275 47.025 340.144 C 47.09 340.013 47.147 339.875 47.196 339.727 L 48.103 339.727 L 48.103 348.305 L 46.755 348.305 L 46.755 341.761 L 45.714 341.761 L 45.714 340.806 Z "/>
        <path id="path4155" fill="#666666" stroke="none" stroke-width="1" d="M 50.976 346.332 C 50.976 346.643 51.037 346.863 51.16 346.994 C 51.291 347.116 51.462 347.177 51.675 347.177 C 51.887 347.177 52.054 347.116 52.177 346.994 C 52.308 346.863 52.373 346.643 52.373 346.332 L 52.373 341.7 C 52.373 341.39 52.308 341.174 52.177 341.051 C 52.054 340.92 51.887 340.855 51.675 340.855 C 51.462 340.855 51.291 340.92 51.16 341.051 C 51.037 341.174 50.976 341.39 50.976 341.7 L 50.976 346.332 Z M 49.628 341.786 C 49.628 341.092 49.804 340.561 50.155 340.193 C 50.507 339.818 51.013 339.63 51.675 339.63 C 52.336 339.63 52.843 339.818 53.194 340.193 C 53.545 340.561 53.721 341.092 53.721 341.786 L 53.721 346.246 C 53.721 346.941 53.545 347.476 53.194 347.851 C 52.843 348.219 52.336 348.403 51.675 348.403 C 51.013 348.403 50.507 348.219 50.155 347.851 C 49.804 347.476 49.628 346.941 49.628 346.246 L 49.628 341.786 Z "/>
        <path id="path4157" fill="#666666" stroke="none" stroke-width="1" d="M 55.834 346.332 C 55.834 346.643 55.896 346.863 56.018 346.994 C 56.149 347.116 56.32 347.177 56.533 347.177 C 56.745 347.177 56.913 347.116 57.035 346.994 C 57.166 346.863 57.231 346.643 57.231 346.332 L 57.231 341.7 C 57.231 341.39 57.166 341.174 57.035 341.051 C 56.913 340.92 56.745 340.855 56.533 340.855 C 56.32 340.855 56.149 340.92 56.018 341.051 C 55.896 341.174 55.834 341.39 55.834 341.7 L 55.834 346.332 Z M 54.486 341.786 C 54.486 341.092 54.662 340.561 55.013 340.193 C 55.365 339.818 55.871 339.63 56.533 339.63 C 57.194 339.63 57.701 339.818 58.052 340.193 C 58.403 340.561 58.579 341.092 58.579 341.786 L 58.579 346.246 C 58.579 346.941 58.403 347.476 58.052 347.851 C 57.701 348.219 57.194 348.403 56.533 348.403 C 55.871 348.403 55.365 348.219 55.013 347.851 C 54.662 347.476 54.486 346.941 54.486 346.246 L 54.486 341.786 Z "/>
        <path id="path4159" fill="#666666" stroke="none" stroke-width="1" d="M 62.693 343.538 L 64.433 343.538 L 64.433 344.764 L 62.693 344.764 L 62.693 348.305 L 61.345 348.305 L 61.345 339.728 L 64.911 339.728 L 64.911 340.953 L 62.693 340.953 L 62.693 343.538 Z "/>
        <path id="path4161" fill="#666666" stroke="none" stroke-width="1" d="M 66.844 339.728 L 66.844 346.344 C 66.844 346.655 66.905 346.871 67.028 346.994 C 67.158 347.116 67.33 347.178 67.542 347.178 C 67.755 347.178 67.922 347.116 68.045 346.994 C 68.175 346.871 68.241 346.655 68.241 346.344 L 68.241 339.728 L 69.515 339.728 L 69.515 346.259 C 69.515 346.953 69.344 347.488 69.001 347.864 C 68.666 348.231 68.167 348.415 67.506 348.415 C 66.844 348.415 66.342 348.231 65.999 347.864 C 65.664 347.488 65.496 346.953 65.496 346.259 L 65.496 339.728 L 66.844 339.728 Z "/>
        <path id="path4163" fill="#666666" stroke="none" stroke-width="1" d="M 70.439 339.728 L 71.787 339.728 L 71.787 347.079 L 74.005 347.079 L 74.005 348.305 L 70.439 348.305 L 70.439 339.728 Z "/>
        <path id="path4165" fill="#666666" stroke="none" stroke-width="1" d="M 74.604 339.728 L 75.951 339.728 L 75.951 347.079 L 78.169 347.079 L 78.169 348.305 L 74.604 348.305 L 74.604 339.728 Z "/>
        <path id="path4167" fill="#666666" stroke="none" stroke-width="1" d="M 83.256 341.835 C 83.256 341.451 83.191 341.194 83.06 341.063 C 82.937 340.924 82.77 340.855 82.557 340.855 C 82.345 340.855 82.174 340.92 82.043 341.051 C 81.92 341.174 81.859 341.39 81.859 341.7 L 81.859 342.252 L 80.585 342.252 L 80.585 341.786 C 80.585 341.092 80.752 340.561 81.087 340.193 C 81.43 339.818 81.933 339.63 82.594 339.63 C 83.256 339.63 83.754 339.818 84.089 340.193 C 84.432 340.561 84.604 341.092 84.604 341.786 L 84.604 342.007 C 84.604 342.922 84.289 343.51 83.66 343.771 C 84.003 343.918 84.244 344.147 84.383 344.457 C 84.53 344.76 84.604 345.131 84.604 345.572 L 84.604 346.246 C 84.604 346.941 84.432 347.476 84.089 347.851 C 83.754 348.219 83.256 348.403 82.594 348.403 C 81.933 348.403 81.43 348.219 81.087 347.851 C 80.752 347.476 80.585 346.941 80.585 346.246 L 80.585 345.536 L 81.859 345.536 L 81.859 346.332 C 81.859 346.643 81.92 346.863 82.043 346.994 C 82.174 347.116 82.345 347.177 82.557 347.177 C 82.77 347.177 82.937 347.112 83.06 346.982 C 83.191 346.851 83.256 346.593 83.256 346.21 L 83.256 345.536 C 83.256 345.135 83.186 344.854 83.048 344.69 C 82.909 344.527 82.684 344.445 82.374 344.445 L 81.92 344.445 L 81.92 343.22 L 82.447 343.22 C 82.7 343.22 82.896 343.154 83.035 343.024 C 83.182 342.893 83.256 342.656 83.256 342.313 L 83.256 341.835 Z "/>
        <path id="path4169" fill="#666666" stroke="none" stroke-width="1" d="M 85.516 339.728 L 87.648 339.728 C 88.326 339.728 88.829 339.907 89.155 340.267 C 89.49 340.626 89.658 341.153 89.658 341.847 L 89.658 346.185 C 89.658 346.879 89.49 347.406 89.155 347.766 C 88.829 348.125 88.326 348.305 87.648 348.305 L 85.516 348.305 L 85.516 339.728 Z M 86.864 340.953 L 86.864 347.08 L 87.624 347.08 C 87.836 347.08 88.004 347.018 88.126 346.896 C 88.249 346.773 88.31 346.557 88.31 346.246 L 88.31 341.786 C 88.31 341.476 88.249 341.259 88.126 341.137 C 88.004 341.014 87.836 340.953 87.624 340.953 L 86.864 340.953 Z "/>
        <path id="path4171" fill="#666666" stroke="none" stroke-width="1" d="M 93.756 343.342 L 95.607 343.342 L 95.607 344.568 L 93.756 344.568 L 93.756 347.079 L 96.085 347.079 L 96.085 348.305 L 92.409 348.305 L 92.409 339.728 L 96.085 339.728 L 96.085 340.953 L 93.756 340.953 L 93.756 343.342 Z "/>
        <path id="path4173" fill="#666666" stroke="none" stroke-width="1" d="M 98.109 342.093 L 98.109 348.305 L 96.896 348.305 L 96.896 339.728 L 98.586 339.728 L 99.971 344.862 L 99.971 339.728 L 101.172 339.728 L 101.172 348.305 L 99.787 348.305 L 98.109 342.093 Z "/>
        <path id="path4175" fill="#666666" stroke="none" stroke-width="1" d="M 104.171 343.526 L 106.058 343.526 L 106.058 346.246 C 106.058 346.941 105.886 347.476 105.543 347.851 C 105.208 348.219 104.71 348.403 104.048 348.403 C 103.386 348.403 102.884 348.219 102.541 347.851 C 102.206 347.476 102.039 346.941 102.039 346.246 L 102.039 341.786 C 102.039 341.092 102.206 340.561 102.541 340.193 C 102.884 339.818 103.386 339.63 104.048 339.63 C 104.71 339.63 105.208 339.818 105.543 340.193 C 105.886 340.561 106.058 341.092 106.058 341.786 L 106.058 342.619 L 104.783 342.619 L 104.783 341.7 C 104.783 341.39 104.718 341.174 104.587 341.051 C 104.465 340.92 104.297 340.855 104.085 340.855 C 103.872 340.855 103.701 340.92 103.57 341.051 C 103.448 341.174 103.386 341.39 103.386 341.7 L 103.386 346.332 C 103.386 346.642 103.448 346.859 103.57 346.981 C 103.701 347.104 103.872 347.165 104.085 347.165 C 104.297 347.165 104.465 347.104 104.587 346.981 C 104.718 346.859 104.783 346.642 104.783 346.332 L 104.783 344.751 L 104.171 344.751 L 104.171 343.526 Z "/>
        <path id="path4177" fill="#666666" stroke="none" stroke-width="1" d="M 106.935 339.728 L 108.283 339.728 L 108.283 348.305 L 106.935 348.305 L 106.935 339.728 Z "/>
        <path id="path4179" fill="#666666" stroke="none" stroke-width="1" d="M 110.457 342.093 L 110.457 348.305 L 109.244 348.305 L 109.244 339.728 L 110.935 339.728 L 112.32 344.862 L 112.32 339.728 L 113.521 339.728 L 113.521 348.305 L 112.136 348.305 L 110.457 342.093 Z "/>
        <path id="path4181" fill="#666666" stroke="none" stroke-width="1" d="M 115.845 343.342 L 117.696 343.342 L 117.696 344.568 L 115.845 344.568 L 115.845 347.079 L 118.173 347.079 L 118.173 348.305 L 114.497 348.305 L 114.497 339.728 L 118.173 339.728 L 118.173 340.953 L 115.845 340.953 L 115.845 343.342 Z "/>
        <path id="path4183" fill="#666666" stroke="none" stroke-width="1" d="M 122.921 346.724 L 123.95 339.728 L 125.188 339.728 L 123.865 348.305 L 121.855 348.305 L 120.532 339.728 L 121.892 339.728 L 122.921 346.724 Z "/>
        <path id="path4185" fill="#666666" stroke="none" stroke-width="1" d="M 128.488 341.835 C 128.488 341.451 128.423 341.194 128.292 341.063 C 128.17 340.924 128.002 340.855 127.79 340.855 C 127.577 340.855 127.406 340.92 127.275 341.051 C 127.153 341.174 127.091 341.39 127.091 341.7 L 127.091 342.619 L 125.817 342.619 L 125.817 341.786 C 125.817 341.092 125.985 340.561 126.32 340.193 C 126.663 339.818 127.165 339.63 127.827 339.63 C 128.488 339.63 128.987 339.818 129.321 340.193 C 129.665 340.561 129.836 341.092 129.836 341.786 C 129.836 342.235 129.771 342.644 129.64 343.011 C 129.509 343.371 129.342 343.702 129.138 344.004 C 128.942 344.298 128.725 344.572 128.488 344.825 C 128.26 345.078 128.043 345.319 127.839 345.548 C 127.643 345.777 127.479 346.001 127.349 346.222 C 127.218 346.434 127.153 346.659 127.153 346.896 C 127.153 346.977 127.157 347.039 127.165 347.079 L 129.714 347.079 L 129.714 348.305 L 125.817 348.305 L 125.817 347.251 C 125.817 346.834 125.882 346.467 126.013 346.148 C 126.144 345.83 126.307 345.54 126.503 345.278 C 126.707 345.009 126.924 344.76 127.153 344.531 C 127.381 344.294 127.594 344.045 127.79 343.783 C 127.994 343.522 128.161 343.236 128.292 342.926 C 128.423 342.615 128.488 342.252 128.488 341.835 Z "/>
        <path id="path4187" fill="#666666" stroke="none" stroke-width="1" d="M 131.974 347.006 L 131.974 348.305 L 130.675 348.305 L 130.675 347.006 L 131.974 347.006 Z "/>
        <path id="path4189" fill="#666666" stroke="none" stroke-width="1" d="M 135.62 341.835 C 135.62 341.451 135.555 341.194 135.424 341.063 C 135.301 340.924 135.134 340.855 134.921 340.855 C 134.709 340.855 134.538 340.92 134.407 341.051 C 134.284 341.174 134.223 341.39 134.223 341.7 L 134.223 342.619 L 132.949 342.619 L 132.949 341.786 C 132.949 341.092 133.116 340.561 133.451 340.193 C 133.794 339.818 134.297 339.63 134.958 339.63 C 135.62 339.63 136.118 339.818 136.453 340.193 C 136.796 340.561 136.968 341.092 136.968 341.786 C 136.968 342.235 136.902 342.644 136.772 343.011 C 136.641 343.371 136.474 343.702 136.269 344.004 C 136.073 344.298 135.857 344.572 135.62 344.825 C 135.391 345.078 135.175 345.319 134.97 345.548 C 134.774 345.777 134.611 346.001 134.48 346.222 C 134.35 346.434 134.284 346.659 134.284 346.896 C 134.284 346.977 134.288 347.039 134.297 347.079 L 136.845 347.079 L 136.845 348.305 L 132.949 348.305 L 132.949 347.251 C 132.949 346.834 133.014 346.467 133.145 346.148 C 133.276 345.83 133.439 345.54 133.635 345.278 C 133.839 345.009 134.056 344.76 134.284 344.531 C 134.513 344.294 134.725 344.045 134.922 343.783 C 135.126 343.522 135.293 343.236 135.424 342.926 C 135.555 342.615 135.62 342.252 135.62 341.835 Z "/>
      </g>
    </g>
  </g>
</svg>