<svg xmlns="http://www.w3.org/2000/svg" xmlns:xlink="http://www.w3.org/1999/xlink" version="1.1" width="347.29998779296875" height="291.29998779296875" viewBox="0 0 347.29998779296875 291.29998779296875">
  <!-- Exported by Scratch - http://scratch.mit.edu/ -->
  <g id="ID0.4430956528522074">
    <path id="path4140" fill="#666666" d="M 131.6807 165.6217 C 120.7616 176.3533 129.9858 187.3734 115.4751 203.7088 C 108.9265 211.0796 142.4339 208.8294 159.0362 192.5084 C 166.0752 185.592 164.0918 175.5023 156.5408 168.0738 C 148.9897 160.6526 138.7197 158.7053 131.6807 165.6217 Z " stroke-width="0.2884839177131653"/>
    <path id="path4" fill="#666666" d="M 252.6853 72.5568 C 247.0815 67.054 185.043 116.7669 166.5728 134.9198 C 157.4062 143.9277 154.3483 148.7598 151.5356 152.3731 C 150.3167 153.9453 151.9322 154.4285 152.6535 154.8036 C 156.2811 156.6498 158.8198 158.3663 162.1085 161.5973 C 165.3972 164.8212 167.1498 167.3165 169.0249 170.8865 C 169.3999 171.6005 169.8976 173.1872 171.4915 171.9828 C 175.1696 169.2205 180.0811 166.2131 189.2404 157.2052 C 207.7106 139.0523 258.2746 78.0668 252.6853 72.5568 Z " stroke-width="0.2884839177131653"/>
  </g>
  <path id="ID0.24205651367083192" fill="none" stroke="#E5E5E5" stroke-width="2" stroke-linecap="round" d="M 346 1 L 346.3 1.3 "/>
  <path id="ID0.6479355148039758" fill="none" stroke="#E5E5E5" stroke-width="2" stroke-linecap="round" d="M 1 290 L 1.3 290.3 "/>
</svg>