<svg xmlns="http://www.w3.org/2000/svg" xmlns:xlink="http://www.w3.org/1999/xlink" version="1.1" width="451.18964660167694" height="358.18964660167694" viewBox="-0.5948233008384705 -0.5948233008384705 451.18964660167694 358.18964660167694">
  <!-- Exported by Scratch - http://scratch.mit.edu/ -->
  <path id="ID0.28591495333239436" fill="#E5E5E5" stroke="none" d="M 448 0 L 450 0 L 450 2 L 448 2 L 448 0 Z " stroke-width="1"/>
  <path id="ID0.28591495333239436" fill="#E5E5E5" stroke="none" d="M 0 355 L 2 355 L 2 357 L 0 357 L 0 355 Z " stroke-width="1"/>
  <g id="ID0.30831563007086515">
    <g id="layer1">
      <path id="path4173" fill="#666666" d="M 219.6841 312.7621 C 209.4853 307.0709 206.6611 305.6623 206.14 306.0097 C 205.8747 306.187 204.6648 305.4553 203.4514 304.3847 C 202.238 303.314 195.6188 299.5297 188.7438 295.975 C 181.8688 292.4216 174.9094 288.6504 173.2784 287.594 C 171.6474 286.5388 169.5108 285.5038 168.5293 285.2956 C 167.5479 285.0874 166.4772 284.5901 166.15 284.1916 C 165.8229 283.7919 160.2018 280.6464 153.6587 277.2024 C 147.1157 273.7572 141.0937 270.4048 140.2752 269.7528 C 139.4579 269.0997 138.7882 268.8832 138.7882 269.271 C 138.7882 269.6577 137.0299 268.7869 134.8814 267.3343 C 132.7329 265.8817 126.0732 262.2842 120.0822 259.3399 L 109.1897 253.9865 L 109.1921 186.7714 L 109.1945 119.5564 L 119.9668 114.203 C 125.8924 111.2586 132.4164 107.8336 134.4662 106.5928 C 136.5171 105.3508 144.3509 101.149 151.8755 97.2541 C 159.4 93.358 165.949 89.5559 166.4296 88.804 C 166.9102 88.0522 167.3123 87.8987 167.3218 88.465 C 167.3313 89.0313 168.634 88.647 170.215 87.6108 C 171.7949 86.5758 179.4241 82.4299 187.1675 78.3994 C 194.9097 74.3677 201.7811 70.6512 202.4354 70.1397 C 203.0897 69.6269 208.9452 66.4518 215.449 63.0815 C 227.5798 56.7966 230.8109 56.291 235.1507 60.0003 C 236.1322 60.839 243.3593 64.8564 251.2109 68.9286 C 259.0626 72.9996 265.9947 76.8219 266.6169 77.4227 C 267.2379 78.0223 268.7107 78.5136 269.8884 78.5136 C 271.0662 78.5136 272.0321 78.9157 272.0357 79.4058 C 272.0393 79.8971 278.3289 83.5101 286.0141 87.4359 C 293.698 91.3618 300.2541 94.8867 300.5813 95.2686 C 300.9084 95.6504 308.1355 99.5727 316.6415 103.9851 C 325.1475 108.3963 332.6149 112.5006 333.2371 113.1049 C 333.8581 113.7093 335.3309 114.203 336.5086 114.203 C 337.6864 114.203 338.65 114.6574 338.65 115.2118 C 338.65 115.7674 340.7913 117.1866 343.4086 118.3667 L 348.1671 120.5129 L 348.1671 186.7714 L 348.1671 253.03 L 343.4086 255.1761 C 340.7913 256.3562 338.65 257.7767 338.65 258.3311 C 338.65 258.8866 337.6983 259.3399 336.5348 259.3399 C 335.3713 259.3399 333.2549 260.156 331.8309 261.1541 C 330.4057 262.1522 322.9264 266.2458 315.208 270.2525 C 307.4908 274.258 300.9084 277.8591 300.5813 278.2529 C 300.2541 278.6466 293.698 282.1811 286.0141 286.1069 C 278.3289 290.0328 272.0393 293.6469 272.0357 294.137 C 272.0321 294.6284 271.078 295.0293 269.9146 295.0293 C 268.7511 295.0293 266.6502 295.8347 265.244 296.8197 C 263.8379 297.8047 256.8927 301.6175 249.8107 305.2912 C 242.7288 308.966 236.0965 312.705 235.0722 313.5997 C 231.3415 316.8569 226.5555 316.5964 219.6853 312.7621 Z M 216.4269 192.6066 C 215.9284 192.1367 211.7742 189.761 207.194 187.327 C 202.6139 184.893 198.1967 182.3685 197.3794 181.7166 C 196.561 181.0647 195.8841 180.9993 195.8733 181.5703 C 195.8638 182.1413 195.4558 181.9795 194.9668 181.211 C 194.4779 180.4425 189.8073 177.5909 184.5872 174.8738 C 179.367 172.1566 174.5561 169.5132 173.8958 168.9981 C 173.2344 168.4842 168.5388 165.8563 163.4602 163.1593 C 158.3816 160.4636 152.895 157.3836 151.2664 156.3177 C 149.6377 155.2506 148.2982 154.8401 148.2875 155.4064 C 148.278 155.9727 147.8759 155.8692 147.3952 155.1756 C 146.5197 153.9134 131.2851 145.1338 129.9705 145.1338 C 129.5862 145.1338 129.2722 163.8707 129.2722 186.7714 C 129.2722 209.6721 129.6077 228.4091 130.0193 228.4091 C 131.1756 228.4091 143.887 221.1213 146.2246 219.1179 C 147.3691 218.1365 148.3065 217.7498 148.3065 218.259 C 148.3065 218.767 148.9751 218.6468 149.7936 217.9925 C 150.6109 217.337 156.0987 214.2535 161.9875 211.1401 C 167.8762 208.0268 173.2296 205.0634 173.8839 204.5555 C 175.5387 203.2706 193.2847 193.9093 194.0651 193.9093 C 194.416 193.9093 194.6992 199.1295 194.6944 205.5084 L 194.6861 217.1074 L 186.0695 221.7696 C 181.3299 224.3345 177.184 226.7436 176.8568 227.1231 C 176.5297 227.5037 171.4785 230.2233 165.6325 233.1676 C 159.7854 236.112 153.3613 239.5965 151.3568 240.9122 C 149.351 242.2268 146.1378 244.0006 144.2153 244.8547 L 140.7201 246.4072 L 147.7843 250.458 C 151.6696 252.6862 155.3837 254.5373 156.038 254.5718 C 156.6923 254.6063 158.566 255.6817 160.2018 256.9606 C 161.8376 258.2406 164.1134 259.2994 165.2578 259.3137 C 166.4034 259.328 167.3397 259.7515 167.3397 260.2535 C 167.3397 260.7556 173.6091 264.3685 181.2704 268.2836 C 188.9329 272.1976 195.758 275.8498 196.4384 276.4006 C 197.1189 276.9502 201.9584 279.6448 207.1928 282.3869 L 216.71 287.3739 L 217.0217 240.4174 C 217.193 214.5913 216.9253 193.0766 216.4269 192.6066 Z M 243.4771 284.8792 C 243.4771 285.3872 244.1468 285.2623 244.9641 284.6008 C 245.7826 283.9394 253.4106 279.7816 261.9166 275.3608 C 270.4226 270.9401 277.9173 266.9108 278.5716 266.4076 C 279.2259 265.9043 285.65 262.4377 292.8474 258.7034 C 300.0448 254.9691 306.7365 251.2396 307.718 250.414 C 308.6994 249.5895 310.7611 248.5307 312.2993 248.0608 C 315.735 247.0116 315.1473 246.4477 304.9437 241.0015 C 300.473 238.615 295.5205 235.8146 293.9395 234.7784 C 292.3573 233.7422 291.0546 233.3568 291.0451 233.9231 C 291.0356 234.4893 290.6335 234.3585 290.1528 233.6328 C 289.3938 232.4884 277.4855 225.6336 265.1881 219.2642 L 261.3218 217.2621 L 261.3218 205.0896 L 261.3218 192.9171 L 266.3778 195.4951 C 269.158 196.9132 271.7014 198.4086 272.0286 198.819 C 272.3557 199.2282 276.9061 201.8466 282.1406 204.6364 C 287.375 207.4261 294.8698 211.4935 298.7956 213.6741 C 302.7215 215.8547 308.8779 219.1251 312.4766 220.9416 C 316.0752 222.7594 319.2873 224.5665 319.6144 224.9591 C 320.3496 225.8418 325.1606 228.4091 326.079 228.4091 C 326.449 228.4091 326.7523 209.6721 326.7523 186.7714 C 326.7523 163.8707 326.5096 145.1338 326.2134 145.1338 C 324.6954 145.1338 319.6144 148.0294 319.6144 148.8943 C 319.6144 149.4427 318.6508 149.8924 317.4731 149.8924 C 316.2953 149.8924 314.8225 150.3813 314.2015 150.9773 C 313.5806 151.5745 308.7887 154.3238 303.5542 157.0886 C 298.3198 159.8533 293.5017 162.53 292.8474 163.0392 C 292.1931 163.5471 287.375 166.2227 282.1406 168.9838 C 276.9061 171.745 272.445 174.4681 272.2272 175.0344 C 272.0084 175.6006 271.0209 176.0646 270.0312 176.0646 C 269.0414 176.0646 266.8108 177.0294 265.0739 178.2084 C 263.337 179.3885 258.4369 182.1413 254.1839 184.3255 C 249.9309 186.5109 245.6482 188.9449 244.6667 189.7336 C 243.6852 190.5224 241.9448 191.5003 240.8004 191.9071 C 238.8648 192.5936 238.7185 195.9959 238.7185 240.453 C 238.7185 288.1852 238.722 288.2566 241.0978 286.1069 C 242.4064 284.9232 243.4771 284.37 243.4771 284.8792 Z M 231.0452 173.7733 C 231.6674 173.1666 235.9228 170.7029 240.5029 168.2974 C 245.0831 165.8919 249.6335 163.214 250.6149 162.3468 C 251.5964 161.4784 252.9347 160.6932 253.5891 160.6016 C 255.2748 160.3637 267.4544 153.4447 269.9467 151.3081 C 271.0911 150.3266 272.0286 149.8817 272.0286 150.3183 C 272.0286 150.7549 274.1592 149.7675 276.7634 148.1234 C 279.3675 146.4793 281.7254 145.1338 282.0026 145.1338 C 282.2798 145.1338 285.9046 143.1959 290.0565 140.8273 C 294.2083 138.4587 301.2689 134.534 305.7443 132.1072 C 314.0088 127.6246 315.5078 125.8413 311.6474 125.0847 C 310.4672 124.8539 308.6994 123.97 307.718 123.1218 C 306.7365 122.2735 300.0448 118.5321 292.8474 114.8073 C 285.65 111.0837 279.2259 107.6266 278.5716 107.127 C 277.9173 106.6273 271.1114 102.9537 263.4465 98.9636 C 255.7816 94.9747 248.1536 90.8217 246.494 89.7343 C 244.8344 88.647 243.4771 88.1699 243.4771 88.6732 C 243.4771 89.1776 242.4064 88.6208 241.0978 87.4359 C 238.7244 85.2886 238.7185 85.3588 238.7185 113.9686 L 238.7185 142.6546 L 233.5197 145.7013 C 227.9653 148.9561 226.2367 148.8217 220.5764 144.6936 L 217.3048 142.3072 L 217.3048 114.0174 L 217.3048 85.7288 L 206.8954 91.2369 C 201.1708 94.2657 196.2183 97.059 195.8912 97.4432 C 195.564 97.8287 189.0067 101.3453 181.318 105.2604 C 173.6293 109.1743 167.3397 112.7885 167.3397 113.2905 C 167.3397 113.7926 166.3416 114.203 165.121 114.203 C 163.9004 114.203 161.6258 115.1452 160.065 116.2956 C 158.5042 117.446 153.5564 120.2214 149.0691 122.4627 C 141.7016 126.1435 141.1175 126.6907 143.0507 128.104 C 144.2284 128.9641 145.7155 129.6684 146.3567 129.6684 C 146.9979 129.6684 148.3684 130.4 149.401 131.2946 C 150.4348 132.1893 155.2945 135.0694 160.2018 137.6937 C 165.1091 140.3181 172.3362 144.2784 176.262 146.4948 C 180.1879 148.7111 186.0623 151.8553 189.3172 153.4804 C 192.5721 155.1054 195.8246 156.9708 196.5455 157.6251 C 197.2652 158.2794 201.5444 160.6884 206.0555 162.9785 C 210.5655 165.2686 214.8078 167.5848 215.4823 168.1237 C 218.3827 170.4435 226.3771 174.6596 228.0711 174.7631 C 229.0859 174.825 230.4243 174.3789 231.0452 173.7733 Z " stroke-width="1.189646601676941"/>
    </g>
  </g>
</svg>