<svg xmlns="http://www.w3.org/2000/svg" xmlns:xlink="http://www.w3.org/1999/xlink" version="1.1" width="280.0690002441406" height="234.17860412597656" viewBox="0.16670000553131104 -0.37859999388456345 280.0690002441406 234.17860412597656">
  <!-- Exported by Scratch - http://scratch.mit.edu/ -->
  <g id="ID0.4430956528522074">
    <path id="path4140" fill="#666666" d="M 57.677 121.6105 C 46.7579 132.3421 55.9822 143.3622 41.4714 159.6976 C 34.9229 167.0683 68.4303 164.8182 85.0325 148.4972 C 92.0715 141.5808 90.0882 131.491 82.5371 124.0626 C 74.9861 116.6413 64.716 114.6941 57.677 121.6105 Z " stroke-width="0.2884839177131653"/>
    <path id="path4" fill="#666666" d="M 178.6816 28.5456 C 173.0778 23.0427 111.0393 72.7557 92.5692 90.9086 C 83.4026 99.9165 80.3447 104.7486 77.5319 108.3618 C 76.3131 109.9341 77.9286 110.4173 78.6498 110.7923 C 82.2775 112.6386 84.8162 114.3551 88.1049 117.5861 C 91.3936 120.8099 93.1461 123.3053 95.0213 126.8753 C 95.3963 127.5893 95.8939 129.176 97.4878 127.9715 C 101.166 125.2093 106.0774 122.2019 115.2368 113.194 C 133.707 95.0411 184.271 34.0556 178.6816 28.5456 Z " stroke-width="0.2884839177131653"/>
  </g>
  <path id="ID0.6547161065973341" fill="#666666" d="M 236.0782 171.5682 L 236.0782 158.4882 L 223.7987 154.1282 C 222.7661 150.1338 221.1737 146.3651 219.1226 142.8982 L 219.1392 142.8813 L 224.7395 131.1154 L 215.4904 121.8663 L 203.725 127.4663 L 203.7081 127.4832 C 200.2412 125.4321 196.4717 123.8396 192.4782 122.8076 L 188.1182 110.5282 L 175.0382 110.5282 L 170.6782 122.8079 C 166.6843 123.8396 162.9151 125.4321 159.4482 127.484 L 159.4313 127.4665 L 147.6654 121.8665 L 138.4163 131.1157 L 144.0163 142.8816 L 144.0337 142.8985 C 141.9821 146.3653 140.3896 150.1348 139.3576 154.1284 L 127.0782 158.4882 L 127.0782 171.5682 L 139.3579 175.9282 C 140.3896 179.922 141.9826 183.6912 144.034 187.1581 L 144.0165 187.175 L 138.4165 198.9404 L 147.6657 208.1895 L 159.4316 202.5892 L 159.4485 202.5726 C 162.9153 204.6237 166.6848 206.2159 170.6784 207.2487 L 175.0382 219.5282 L 188.1182 219.5282 L 192.4782 207.2487 C 196.472 206.2161 200.2412 204.6237 203.7081 202.5726 L 203.725 202.5892 L 215.4904 208.1895 L 224.7395 198.9404 L 219.1392 187.175 L 219.1226 187.1581 C 221.1737 183.6912 222.7659 179.9217 223.7987 175.9282 L 236.0782 171.5682 Z M 181.5782 186.8282 C 169.5382 186.8282 159.7782 177.0679 159.7782 165.0282 C 159.7782 152.9882 169.5382 143.2282 181.5782 143.2282 C 193.6182 143.2282 203.3782 152.9882 203.3782 165.0282 C 203.3782 177.0682 193.6182 186.8282 181.5782 186.8282 Z " stroke-width="0.26456311345100403"/>
  <path id="ID0.808433891274035" fill="none" stroke="#FFFFFF" d="M 0.6667 232.8333 L 1.25 232.8333 L 1.25 233.3 L 0.6667 233.3 L 0.6667 232.8333 Z " stroke-width="0.11666666716337204"/>
  <path id="ID0.8432634118944407" fill="none" stroke="#FFFFFF" d="M 278.7071 0.1214 L 279.7357 0.1214 L 279.7357 0.9786 L 278.7071 0.9786 L 278.7071 0.1214 Z " stroke-width="0.17142857611179352"/>
</svg>