<svg xmlns="http://www.w3.org/2000/svg" xmlns:xlink="http://www.w3.org/1999/xlink" version="1.1" width="405.7234766439844" height="67.49349617523437" viewBox="-0.00024527094009396677 0.7447546742236328 405.7234766439844 67.49349617523437">
  <!-- Exported by Scratch - http://scratch.mit.edu/ -->
  <g id="ID0.24938722141087055">
    <g id="layer1">
      <g id="g4387">
        <g id="g4359">
          <path id="rect4144-3" fill="#f2f2f2" stroke="#606060" stroke-width="1.40649056" stroke-linecap="round" stroke-linejoin="miter" d="M 0.703 25.495 L 30.591 25.495 L 30.591 45.838 L 0.703 45.838 Z "/>
          <path id="rect4144-7-5" fill="#f2f2f2" stroke="#606060" stroke-width="1.40649056" stroke-linecap="round" stroke-linejoin="miter" d="M 34.534 25.495 L 64.422 25.495 L 64.422 45.838 L 34.534 45.838 Z "/>
          <path id="rect4144-1-5" fill="#f2f2f2" stroke="#606060" stroke-width="1.40649056" stroke-linecap="round" stroke-linejoin="miter" d="M 34.534 1.448 L 64.422 1.448 L 64.422 21.792 L 34.534 21.792 Z "/>
          <path id="rect4144-0-1" fill="#f2f2f2" stroke="#606060" stroke-width="1.40649056" stroke-linecap="round" stroke-linejoin="miter" d="M 68.441 25.495 L 98.329 25.495 L 98.329 45.838 L 68.441 45.838 Z "/>
          <g id="text4177">
            <path id="path4308" fill="#606060" stroke="none" stroke-width="1" d="M 49.521 10.8 L 48.836 17.184 L 46.252 17.184 L 44.917 5.204 L 46.748 5.204 L 47.758 14.651 L 48.665 5.204 L 50.479 5.204 L 51.421 14.719 L 52.396 5.204 L 54.039 5.204 L 52.704 17.184 L 50.206 17.184 L 49.521 10.8 Z "/>
          </g>
          <g id="text4177-4">
            <path id="path4311" fill="#606060" stroke="none" stroke-width="1" d="M 46.44 32.66 C 46.44 31.691 46.669 30.949 47.125 30.436 C 47.593 29.911 48.289 29.648 49.213 29.648 C 50.137 29.648 50.828 29.911 51.284 30.436 C 51.752 30.949 51.986 31.691 51.986 32.66 L 51.986 33.037 L 50.206 33.037 L 50.206 32.541 C 50.206 32.107 50.12 31.805 49.949 31.634 C 49.789 31.451 49.561 31.36 49.264 31.36 C 48.968 31.36 48.734 31.451 48.563 31.634 C 48.403 31.805 48.323 32.107 48.323 32.541 C 48.323 32.951 48.414 33.317 48.597 33.636 C 48.779 33.944 49.008 34.241 49.282 34.526 C 49.555 34.8 49.846 35.079 50.154 35.365 C 50.474 35.638 50.77 35.941 51.044 36.272 C 51.318 36.603 51.546 36.979 51.729 37.401 C 51.911 37.823 52.003 38.32 52.003 38.89 C 52.003 39.86 51.763 40.607 51.284 41.132 C 50.816 41.646 50.12 41.902 49.196 41.902 C 48.272 41.902 47.57 41.646 47.091 41.132 C 46.623 40.607 46.389 39.86 46.389 38.89 L 46.389 38.154 L 48.169 38.154 L 48.169 39.01 C 48.169 39.444 48.255 39.746 48.426 39.917 C 48.608 40.088 48.848 40.174 49.145 40.174 C 49.441 40.174 49.675 40.088 49.846 39.917 C 50.029 39.746 50.12 39.444 50.12 39.01 C 50.12 38.599 50.029 38.24 49.846 37.932 C 49.664 37.612 49.436 37.316 49.162 37.042 C 48.888 36.757 48.591 36.477 48.272 36.203 C 47.964 35.918 47.673 35.61 47.399 35.279 C 47.125 34.948 46.897 34.572 46.714 34.149 C 46.532 33.727 46.44 33.231 46.44 32.66 Z "/>
          </g>
          <g id="text4177-7">
            <path id="path4314" fill="#606060" stroke="none" stroke-width="1" d="M 19.224 41.629 L 17.324 41.629 L 16.999 39.455 L 14.689 39.455 L 14.364 41.629 L 12.635 41.629 L 14.552 29.648 L 17.307 29.648 L 19.224 41.629 Z M 14.928 37.829 L 16.743 37.829 L 15.835 31.771 L 14.928 37.829 Z "/>
          </g>
          <g id="text4177-8">
            <path id="path4317" fill="#606060" stroke="none" stroke-width="1" d="M 80.492 29.785 L 83.47 29.785 C 84.417 29.785 85.119 30.036 85.575 30.538 C 86.043 31.04 86.277 31.776 86.277 32.746 L 86.277 38.805 C 86.277 39.774 86.043 40.51 85.575 41.012 C 85.119 41.514 84.417 41.765 83.47 41.765 L 80.492 41.765 L 80.492 29.785 Z M 82.375 31.497 L 82.375 40.054 L 83.436 40.054 C 83.733 40.054 83.967 39.968 84.138 39.797 C 84.309 39.626 84.395 39.324 84.395 38.89 L 84.395 32.66 C 84.395 32.227 84.309 31.925 84.138 31.753 C 83.967 31.582 83.733 31.497 83.436 31.497 L 82.375 31.497 Z "/>
          </g>
        </g>
        <g id="text4177-4-8">
          <path id="path4320" fill="#f2f2f2" stroke="none" stroke-width="1" d="M 39.313 63.858 L 40.62 55.197 L 43.287 55.197 L 43.287 67.396 L 41.474 67.396 L 41.474 58.648 L 40.15 67.396 L 38.337 67.396 L 36.908 58.769 L 36.908 67.396 L 35.235 67.396 L 35.235 55.197 L 37.902 55.197 L 39.313 63.858 Z "/>
          <path id="path4322" fill="#f2f2f2" stroke="none" stroke-width="1" d="M 46.441 64.59 C 46.441 65.032 46.528 65.345 46.703 65.531 C 46.889 65.706 47.133 65.793 47.435 65.793 C 47.737 65.793 47.975 65.706 48.149 65.531 C 48.335 65.345 48.428 65.032 48.428 64.59 L 48.428 58.003 C 48.428 57.561 48.335 57.253 48.149 57.079 C 47.975 56.893 47.737 56.8 47.435 56.8 C 47.133 56.8 46.889 56.893 46.703 57.079 C 46.528 57.253 46.441 57.561 46.441 58.003 L 46.441 64.59 Z M 44.524 58.125 C 44.524 57.137 44.774 56.382 45.274 55.859 C 45.773 55.325 46.494 55.057 47.435 55.057 C 48.376 55.057 49.096 55.325 49.596 55.859 C 50.095 56.382 50.345 57.137 50.345 58.125 L 50.345 64.468 C 50.345 65.456 50.095 66.217 49.596 66.751 C 49.096 67.274 48.376 67.535 47.435 67.535 C 46.494 67.535 45.773 67.274 45.274 66.751 C 44.774 66.217 44.524 65.456 44.524 64.468 L 44.524 58.125 Z "/>
          <path id="path4324" fill="#f2f2f2" stroke="none" stroke-width="1" d="M 54.45 65.148 L 55.914 55.197 L 57.674 55.197 L 55.792 67.396 L 52.934 67.396 L 51.051 55.197 L 52.986 55.197 L 54.45 65.148 Z "/>
          <path id="path4326" fill="#f2f2f2" stroke="none" stroke-width="1" d="M 60.486 60.338 L 63.117 60.338 L 63.117 62.081 L 60.486 62.081 L 60.486 65.653 L 63.797 65.653 L 63.797 67.396 L 58.569 67.396 L 58.569 55.197 L 63.797 55.197 L 63.797 56.94 L 60.486 56.94 L 60.486 60.338 Z "/>
        </g>
      </g>
      <g id="g4193">
        <g id="text4177-4-8-1">
          <path id="path4294" fill="#f2f2f2" stroke="none" stroke-width="1" d="M 139.748 55.197 L 141.665 55.197 L 141.665 65.653 L 144.819 65.653 L 144.819 67.396 L 139.748 67.396 L 139.748 55.197 Z "/>
          <path id="path4296" fill="#f2f2f2" stroke="none" stroke-width="1" d="M 147.43 64.59 C 147.43 65.032 147.518 65.345 147.692 65.531 C 147.878 65.706 148.122 65.793 148.424 65.793 C 148.726 65.793 148.964 65.706 149.138 65.531 C 149.324 65.345 149.417 65.032 149.417 64.59 L 149.417 58.003 C 149.417 57.561 149.324 57.253 149.138 57.079 C 148.964 56.893 148.726 56.8 148.424 56.8 C 148.122 56.8 147.878 56.893 147.692 57.079 C 147.518 57.253 147.43 57.561 147.43 58.003 L 147.43 64.59 Z M 145.513 58.125 C 145.513 57.137 145.763 56.382 146.263 55.859 C 146.762 55.325 147.483 55.057 148.424 55.057 C 149.365 55.057 150.085 55.325 150.585 55.859 C 151.084 56.382 151.334 57.137 151.334 58.125 L 151.334 64.468 C 151.334 65.456 151.084 66.217 150.585 66.751 C 150.085 67.274 149.365 67.535 148.424 67.535 C 147.483 67.535 146.762 67.274 146.263 66.751 C 145.763 66.217 145.513 65.456 145.513 64.468 L 145.513 58.125 Z "/>
          <path id="path4298" fill="#f2f2f2" stroke="none" stroke-width="1" d="M 154.34 64.59 C 154.34 65.032 154.427 65.345 154.601 65.531 C 154.787 65.706 155.031 65.793 155.333 65.793 C 155.636 65.793 155.874 65.706 156.048 65.531 C 156.234 65.345 156.327 65.032 156.327 64.59 L 156.327 58.003 C 156.327 57.561 156.234 57.253 156.048 57.079 C 155.874 56.893 155.636 56.8 155.333 56.8 C 155.031 56.8 154.787 56.893 154.601 57.079 C 154.427 57.253 154.34 57.561 154.34 58.003 L 154.34 64.59 Z M 152.423 58.125 C 152.423 57.137 152.673 56.382 153.172 55.859 C 153.672 55.325 154.392 55.057 155.333 55.057 C 156.275 55.057 156.995 55.325 157.494 55.859 C 157.994 56.382 158.244 57.137 158.244 58.125 L 158.244 64.468 C 158.244 65.456 157.994 66.217 157.494 66.751 C 156.995 67.274 156.275 67.535 155.333 67.535 C 154.392 67.535 153.672 67.274 153.172 66.751 C 152.673 66.217 152.423 65.456 152.423 64.468 L 152.423 58.125 Z "/>
          <path id="path4300" fill="#f2f2f2" stroke="none" stroke-width="1" d="M 161.999 62.534 L 161.407 63.649 L 161.407 67.396 L 159.49 67.396 L 159.49 55.197 L 161.407 55.197 L 161.407 60.512 L 163.916 55.197 L 165.833 55.197 L 163.167 60.634 L 165.833 67.396 L 163.864 67.396 L 161.999 62.534 Z "/>
        </g>
        <path id="rect3803" fill="#606060" d="M 149.116 4.86 L 155.555 4.86 C 161.486 4.86 166.26 9.634 166.26 15.564 L 166.26 35.498 C 166.26 41.428 161.486 46.202 155.555 46.202 L 149.116 46.202 C 143.185 46.202 138.411 41.428 138.411 35.498 L 138.411 15.564 C 138.411 9.634 143.185 4.86 149.116 4.86 Z " stroke-width="1"/>
        <path id="path3840" fill="#bebebe" d="M 149.448 6.003 C 144.113 6.003 139.819 10.298 139.819 15.633 L 139.819 24.872 L 151.083 24.872 L 151.083 21.571 C 149.242 21.329 147.829 19.764 147.829 17.855 L 147.829 9.758 C 147.829 7.681 149.498 6.003 151.576 6.003 L 149.448 6.003 Z " stroke-width="1"/>
        <path id="path3836" fill="#f2f2f2" d="M 139.819 26.223 L 139.819 35.274 C 139.819 40.61 144.113 44.904 149.448 44.904 L 155.222 44.904 C 160.557 44.904 164.852 40.61 164.852 35.274 L 164.852 26.223 L 139.819 26.223 Z " stroke-width="1"/>
        <path id="rect3805" fill="#f2f2f2" d="M 164.852 24.872 L 164.852 15.633 C 164.852 10.298 160.557 6.003 155.222 6.003 L 153.094 6.003 C 155.172 6.003 156.841 7.681 156.841 9.758 L 156.841 17.855 C 156.841 19.764 155.428 21.329 153.587 21.571 L 153.587 24.872 L 164.852 24.872 Z " stroke-width="1"/>
        <path id="rect3813" fill="#f2f2f2" d="M 152.336 7.889 C 153.722 7.889 154.839 9.158 154.839 10.734 L 154.839 16.876 C 154.839 18.452 153.722 19.721 152.336 19.721 C 150.949 19.721 149.832 18.452 149.832 16.876 L 149.832 10.734 C 149.832 9.158 150.949 7.889 152.336 7.889 Z " stroke-width="1"/>
      </g>
      <g id="g4276">
        <g id="text4177-4-8-3">
          <path id="path4265" fill="#f2f2f2" stroke="none" stroke-width="1" d="M 217.233 60.617 L 219.708 60.617 L 219.708 62.359 L 217.233 62.359 L 217.233 67.396 L 215.316 67.396 L 215.316 55.197 L 220.387 55.197 L 220.387 56.94 L 217.233 56.94 L 217.233 60.617 Z "/>
          <path id="path4267" fill="#f2f2f2" stroke="none" stroke-width="1" d="M 221.306 55.197 L 223.223 55.197 L 223.223 67.396 L 221.306 67.396 L 221.306 55.197 Z "/>
          <path id="path4269" fill="#f2f2f2" stroke="none" stroke-width="1" d="M 228.616 67.396 C 228.593 67.315 228.57 67.239 228.547 67.169 C 228.524 67.1 228.5 67.013 228.477 66.908 C 228.465 66.803 228.454 66.67 228.442 66.507 C 228.442 66.345 228.442 66.141 228.442 65.897 L 228.442 63.98 C 228.442 63.411 228.343 63.01 228.146 62.778 C 227.948 62.545 227.629 62.429 227.187 62.429 L 226.525 62.429 L 226.525 67.396 L 224.608 67.396 L 224.608 55.197 L 227.501 55.197 C 228.5 55.197 229.221 55.429 229.662 55.894 C 230.115 56.359 230.342 57.062 230.342 58.003 L 230.342 58.961 C 230.342 60.216 229.923 61.041 229.087 61.436 C 229.575 61.633 229.906 61.959 230.08 62.412 C 230.266 62.853 230.359 63.394 230.359 64.033 L 230.359 65.915 C 230.359 66.217 230.371 66.484 230.394 66.716 C 230.417 66.937 230.475 67.164 230.568 67.396 L 228.616 67.396 Z M 226.525 56.94 L 226.525 60.687 L 227.275 60.687 C 227.635 60.687 227.914 60.594 228.111 60.408 C 228.32 60.222 228.425 59.885 228.425 59.397 L 228.425 58.194 C 228.425 57.753 228.343 57.433 228.181 57.236 C 228.03 57.038 227.786 56.94 227.449 56.94 L 226.525 56.94 Z "/>
          <path id="path4271" fill="#f2f2f2" stroke="none" stroke-width="1" d="M 233.537 60.338 L 236.168 60.338 L 236.168 62.081 L 233.537 62.081 L 233.537 65.653 L 236.848 65.653 L 236.848 67.396 L 231.62 67.396 L 231.62 55.197 L 236.848 55.197 L 236.848 56.94 L 233.537 56.94 L 233.537 60.338 Z "/>
          <path id="path4273" fill="#f2f2f2" stroke="none" stroke-width="1" d="M 243.531 55.197 C 244.496 55.197 245.21 55.452 245.675 55.964 C 246.151 56.475 246.389 57.224 246.389 58.212 L 246.389 59.798 C 246.389 60.785 246.151 61.535 245.675 62.046 C 245.21 62.557 244.496 62.813 243.531 62.813 L 242.625 62.813 L 242.625 67.396 L 240.708 67.396 L 240.708 55.197 L 243.531 55.197 Z M 242.625 56.94 L 242.625 61.07 L 243.531 61.07 C 243.833 61.07 244.066 60.989 244.228 60.826 C 244.391 60.663 244.472 60.361 244.472 59.92 L 244.472 58.09 C 244.472 57.648 244.391 57.346 244.228 57.184 C 244.066 57.021 243.833 56.94 243.531 56.94 L 242.625 56.94 Z "/>
          <path id="path4275" fill="#f2f2f2" stroke="none" stroke-width="1" d="M 249.14 64.59 C 249.14 65.032 249.227 65.345 249.401 65.531 C 249.587 65.706 249.831 65.793 250.133 65.793 C 250.435 65.793 250.673 65.706 250.847 65.531 C 251.033 65.345 251.126 65.032 251.126 64.59 L 251.126 58.003 C 251.126 57.561 251.033 57.253 250.847 57.079 C 250.673 56.893 250.435 56.8 250.133 56.8 C 249.831 56.8 249.587 56.893 249.401 57.079 C 249.227 57.253 249.14 57.561 249.14 58.003 L 249.14 64.59 Z M 247.223 58.125 C 247.223 57.137 247.472 56.382 247.972 55.859 C 248.471 55.325 249.192 55.057 250.133 55.057 C 251.074 55.057 251.794 55.325 252.294 55.859 C 252.793 56.382 253.043 57.137 253.043 58.125 L 253.043 64.468 C 253.043 65.456 252.793 66.217 252.294 66.751 C 251.794 67.274 251.074 67.535 250.133 67.535 C 249.192 67.535 248.471 67.274 247.972 66.751 C 247.472 66.217 247.223 65.456 247.223 64.468 L 247.223 58.125 Z "/>
          <path id="path4277" fill="#f2f2f2" stroke="none" stroke-width="1" d="M 258.297 67.396 C 258.274 67.315 258.251 67.239 258.228 67.169 C 258.204 67.1 258.181 67.013 258.158 66.908 C 258.146 66.803 258.135 66.67 258.123 66.507 C 258.123 66.345 258.123 66.141 258.123 65.897 L 258.123 63.98 C 258.123 63.411 258.024 63.01 257.827 62.778 C 257.629 62.545 257.31 62.429 256.868 62.429 L 256.206 62.429 L 256.206 67.396 L 254.289 67.396 L 254.289 55.197 L 257.182 55.197 C 258.181 55.197 258.901 55.429 259.343 55.894 C 259.796 56.359 260.023 57.062 260.023 58.003 L 260.023 58.961 C 260.023 60.216 259.604 61.041 258.768 61.436 C 259.256 61.633 259.587 61.959 259.761 62.412 C 259.947 62.853 260.04 63.394 260.04 64.033 L 260.04 65.915 C 260.04 66.217 260.052 66.484 260.075 66.716 C 260.098 66.937 260.156 67.164 260.249 67.396 L 258.297 67.396 Z M 256.206 56.94 L 256.206 60.687 L 256.955 60.687 C 257.316 60.687 257.594 60.594 257.792 60.408 C 258.001 60.222 258.106 59.885 258.106 59.397 L 258.106 58.194 C 258.106 57.753 258.024 57.433 257.862 57.236 C 257.711 57.038 257.467 56.94 257.13 56.94 L 256.206 56.94 Z "/>
          <path id="path4279" fill="#f2f2f2" stroke="none" stroke-width="1" d="M 260.743 55.197 L 266.668 55.197 L 266.668 56.94 L 264.664 56.94 L 264.664 67.396 L 262.747 67.396 L 262.747 56.94 L 260.743 56.94 L 260.743 55.197 Z "/>
          <path id="path4281" fill="#f2f2f2" stroke="none" stroke-width="1" d="M 273.053 67.396 L 271.119 67.396 L 270.788 65.183 L 268.435 65.183 L 268.104 67.396 L 266.344 67.396 L 268.295 55.197 L 271.101 55.197 L 273.053 67.396 Z M 268.679 63.527 L 270.526 63.527 L 269.602 57.358 L 268.679 63.527 Z "/>
          <path id="path4283" fill="#f2f2f2" stroke="none" stroke-width="1" d="M 273.929 55.197 L 275.846 55.197 L 275.846 65.653 L 279 65.653 L 279 67.396 L 273.929 67.396 L 273.929 55.197 Z "/>
        </g>
        <g id="g4266">
          <g id="g4261">
            <path id="rect4144-3-0" fill="#f2f2f2" stroke="#606060" stroke-width="1.40649056" stroke-linecap="round" stroke-linejoin="miter" d="M 206.358 25.501 L 236.246 25.501 L 236.246 45.845 L 206.358 45.845 Z "/>
            <g id="text4177-7-9">
              <path id="path4287" fill="#606060" stroke="none" stroke-width="1" d="M 220.668 34.703 L 223.253 34.703 L 223.253 36.415 L 220.668 36.415 L 220.668 39.923 L 223.92 39.923 L 223.92 41.635 L 218.786 41.635 L 218.786 29.655 L 223.92 29.655 L 223.92 31.366 L 220.668 31.366 L 220.668 34.703 Z "/>
            </g>
          </g>
          <g id="g4256">
            <path id="rect4144-0-1-8" fill="#f2f2f2" stroke="#606060" stroke-width="1.40649056" stroke-linecap="round" stroke-linejoin="miter" d="M 258.095 25.501 L 287.983 25.501 L 287.983 45.845 L 258.095 45.845 Z "/>
            <g id="text4177-8-8">
              <path id="path4291" fill="#606060" stroke="none" stroke-width="1" d="M 269.993 32.667 C 269.993 31.697 270.238 30.955 270.729 30.442 C 271.219 29.917 271.927 29.655 272.851 29.655 C 273.775 29.655 274.483 29.917 274.973 30.442 C 275.464 30.955 275.709 31.697 275.709 32.667 L 275.709 38.896 C 275.709 39.57 275.589 40.129 275.35 40.574 C 275.395 40.688 275.452 40.762 275.521 40.796 C 275.601 40.819 275.72 40.83 275.88 40.83 L 276.051 40.83 L 276.051 42.508 L 275.795 42.508 C 275.372 42.508 275.024 42.433 274.751 42.285 C 274.488 42.148 274.294 41.949 274.169 41.686 C 273.975 41.755 273.769 41.806 273.553 41.84 C 273.336 41.886 273.102 41.909 272.851 41.909 C 271.927 41.909 271.219 41.652 270.729 41.139 C 270.238 40.614 269.993 39.866 269.993 38.897 L 269.993 32.667 Z M 271.875 39.016 C 271.875 39.45 271.961 39.758 272.132 39.941 C 272.315 40.112 272.554 40.197 272.851 40.197 C 273.148 40.197 273.381 40.112 273.553 39.941 C 273.735 39.758 273.826 39.45 273.826 39.016 L 273.826 32.547 C 273.826 32.113 273.735 31.811 273.553 31.64 C 273.381 31.457 273.148 31.366 272.851 31.366 C 272.554 31.366 272.315 31.457 272.132 31.64 C 271.961 31.811 271.875 32.113 271.875 32.547 L 271.875 39.016 Z "/>
            </g>
          </g>
        </g>
      </g>
      <g id="g4379">
        <g id="g4316">
          <path id="rect4144-7-5-4" fill="#f2f2f2" stroke="#606060" stroke-width="1.40649056" stroke-linecap="round" stroke-linejoin="miter" d="M 351.592 25.515 L 381.48 25.515 L 381.48 45.859 L 351.592 45.859 Z "/>
          <g id="text4177-4-3">
            <path id="path4237" fill="#606060" stroke="none" stroke-width="1" d="M 367.674 41.786 C 367.651 41.706 367.628 41.632 367.605 41.563 C 367.583 41.495 367.56 41.409 367.537 41.307 C 367.525 41.204 367.514 41.073 367.503 40.913 C 367.503 40.753 367.503 40.553 367.503 40.314 L 367.503 38.431 C 367.503 37.872 367.406 37.478 367.212 37.25 C 367.018 37.022 366.704 36.908 366.27 36.908 L 365.62 36.908 L 365.62 41.786 L 363.737 41.786 L 363.737 29.805 L 366.578 29.805 C 367.56 29.805 368.267 30.034 368.701 30.49 C 369.146 30.946 369.368 31.637 369.368 32.561 L 369.368 33.502 C 369.368 34.734 368.957 35.545 368.136 35.933 C 368.615 36.126 368.94 36.446 369.111 36.891 C 369.294 37.325 369.385 37.855 369.385 38.483 L 369.385 40.331 C 369.385 40.628 369.397 40.89 369.419 41.118 C 369.442 41.335 369.499 41.558 369.591 41.786 L 367.674 41.786 Z M 365.62 31.517 L 365.62 35.197 L 366.356 35.197 C 366.71 35.197 366.983 35.105 367.177 34.923 C 367.383 34.74 367.486 34.409 367.486 33.93 L 367.486 32.749 C 367.486 32.316 367.406 32.002 367.246 31.808 C 367.098 31.614 366.858 31.517 366.527 31.517 L 365.62 31.517 Z "/>
          </g>
        </g>
        <g id="text4177-4-8-0">
          <path id="path4240" fill="#f2f2f2" stroke="none" stroke-width="1" d="M 330.826 55.179 C 331.79 55.179 332.505 55.435 332.969 55.946 C 333.446 56.457 333.684 57.207 333.684 58.194 L 333.684 59.78 C 333.684 60.768 333.446 61.517 332.969 62.028 C 332.505 62.54 331.79 62.795 330.826 62.795 L 329.92 62.795 L 329.92 67.379 L 328.003 67.379 L 328.003 55.179 L 330.826 55.179 Z M 329.92 56.922 L 329.92 61.052 L 330.826 61.052 C 331.128 61.052 331.36 60.971 331.523 60.808 C 331.686 60.646 331.767 60.344 331.767 59.902 L 331.767 58.072 C 331.767 57.631 331.686 57.329 331.523 57.166 C 331.36 57.003 331.128 56.922 330.826 56.922 L 329.92 56.922 Z "/>
          <path id="path4242" fill="#f2f2f2" stroke="none" stroke-width="1" d="M 334.674 55.179 L 336.591 55.179 L 336.591 67.378 L 334.674 67.378 L 334.674 55.179 Z "/>
          <path id="path4244" fill="#f2f2f2" stroke="none" stroke-width="1" d="M 343.535 62.83 L 343.535 64.451 C 343.535 65.438 343.291 66.199 342.803 66.734 C 342.327 67.256 341.618 67.518 340.677 67.518 C 339.736 67.518 339.021 67.256 338.533 66.734 C 338.057 66.199 337.819 65.438 337.819 64.451 L 337.819 58.107 C 337.819 57.12 338.057 56.364 338.533 55.842 C 339.021 55.307 339.736 55.04 340.677 55.04 C 341.618 55.04 342.327 55.307 342.803 55.842 C 343.291 56.364 343.535 57.12 343.535 58.107 L 343.535 59.292 L 341.723 59.292 L 341.723 57.985 C 341.723 57.544 341.63 57.236 341.444 57.061 C 341.269 56.876 341.031 56.783 340.729 56.783 C 340.427 56.783 340.183 56.876 339.997 57.061 C 339.823 57.236 339.736 57.544 339.736 57.985 L 339.736 64.573 C 339.736 65.014 339.823 65.322 339.997 65.496 C 340.183 65.671 340.427 65.758 340.729 65.758 C 341.031 65.758 341.269 65.671 341.444 65.496 C 341.63 65.322 341.723 65.014 341.723 64.573 L 341.723 62.83 L 343.535 62.83 Z "/>
          <path id="path4246" fill="#f2f2f2" stroke="none" stroke-width="1" d="M 347.225 62.516 L 346.632 63.632 L 346.632 67.378 L 344.715 67.378 L 344.715 55.179 L 346.632 55.179 L 346.632 60.495 L 349.142 55.179 L 351.059 55.179 L 348.392 60.617 L 351.059 67.378 L 349.089 67.378 L 347.225 62.516 Z "/>
          <path id="path4248" fill="#f2f2f2" stroke="none" stroke-width="1" d="M 353.693 55.179 L 353.693 64.59 C 353.693 65.032 353.78 65.34 353.954 65.514 C 354.14 65.688 354.384 65.775 354.686 65.775 C 354.988 65.775 355.227 65.688 355.401 65.514 C 355.587 65.34 355.68 65.032 355.68 64.59 L 355.68 55.179 L 357.492 55.179 L 357.492 64.468 C 357.492 65.456 357.248 66.217 356.76 66.751 C 356.284 67.274 355.575 67.535 354.634 67.535 C 353.693 67.535 352.978 67.274 352.49 66.751 C 352.014 66.217 351.776 65.456 351.776 64.468 L 351.776 55.179 L 353.693 55.179 Z "/>
          <path id="path4250" fill="#f2f2f2" stroke="none" stroke-width="1" d="M 361.63 55.179 C 362.594 55.179 363.309 55.435 363.774 55.946 C 364.25 56.457 364.488 57.207 364.488 58.194 L 364.488 59.78 C 364.488 60.768 364.25 61.517 363.774 62.028 C 363.309 62.54 362.594 62.795 361.63 62.795 L 360.724 62.795 L 360.724 67.379 L 358.807 67.379 L 358.807 55.179 L 361.63 55.179 Z M 360.724 56.922 L 360.724 61.052 L 361.63 61.052 C 361.932 61.052 362.164 60.971 362.327 60.808 C 362.49 60.646 362.571 60.344 362.571 59.902 L 362.571 58.072 C 362.571 57.631 362.49 57.329 362.327 57.166 C 362.164 57.003 361.932 56.922 361.63 56.922 L 360.724 56.922 Z "/>
          <path id="path4252" fill="#f2f2f2" stroke="none" stroke-width="1" d="M 369.825 64.573 C 369.825 65.014 369.912 65.328 370.087 65.514 C 370.272 65.688 370.516 65.775 370.819 65.775 C 371.121 65.775 371.359 65.688 371.533 65.514 C 371.719 65.328 371.812 65.014 371.812 64.573 L 371.812 57.985 C 371.812 57.544 371.719 57.236 371.533 57.061 C 371.359 56.876 371.121 56.783 370.819 56.783 C 370.516 56.783 370.272 56.876 370.087 57.061 C 369.912 57.236 369.825 57.544 369.825 57.985 L 369.825 64.573 Z M 367.908 58.107 C 367.908 57.12 368.158 56.364 368.658 55.842 C 369.157 55.307 369.877 55.04 370.819 55.04 C 371.76 55.04 372.48 55.307 372.98 55.842 C 373.479 56.364 373.729 57.12 373.729 58.107 L 373.729 64.451 C 373.729 65.438 373.479 66.199 372.98 66.734 C 372.48 67.256 371.76 67.518 370.819 67.518 C 369.877 67.518 369.157 67.256 368.658 66.734 C 368.158 66.199 367.908 65.438 367.908 64.451 L 367.908 58.107 Z "/>
          <path id="path4254" fill="#f2f2f2" stroke="none" stroke-width="1" d="M 377.868 55.179 C 378.867 55.179 379.587 55.412 380.029 55.876 C 380.482 56.341 380.708 57.044 380.708 57.985 L 380.708 58.421 C 380.708 59.048 380.61 59.565 380.412 59.972 C 380.214 60.379 379.901 60.681 379.471 60.878 C 379.994 61.076 380.36 61.401 380.569 61.854 C 380.79 62.296 380.9 62.842 380.9 63.492 L 380.9 64.486 C 380.9 65.427 380.656 66.147 380.168 66.647 C 379.68 67.135 378.954 67.378 377.99 67.378 L 374.975 67.378 L 374.975 55.179 L 377.868 55.179 Z M 376.892 61.889 L 376.892 65.636 L 377.99 65.636 C 378.315 65.636 378.559 65.549 378.722 65.374 C 378.896 65.2 378.983 64.886 378.983 64.433 L 378.983 63.37 C 378.983 62.801 378.884 62.412 378.687 62.203 C 378.501 61.993 378.187 61.889 377.746 61.889 L 376.892 61.889 Z M 376.892 56.922 L 376.892 60.146 L 377.641 60.146 C 378.001 60.146 378.28 60.053 378.478 59.867 C 378.687 59.681 378.791 59.345 378.791 58.857 L 378.791 58.177 C 378.791 57.735 378.71 57.416 378.547 57.218 C 378.396 57.021 378.152 56.922 377.815 56.922 L 376.892 56.922 Z "/>
          <path id="path4256" fill="#f2f2f2" stroke="none" stroke-width="1" d="M 381.532 65.636 C 381.636 65.647 381.747 65.653 381.863 65.653 C 381.979 65.653 382.089 65.653 382.194 65.653 C 382.496 65.653 382.752 65.577 382.961 65.426 C 383.181 65.275 383.292 64.962 383.292 64.485 L 383.292 55.179 L 385.209 55.179 L 385.209 64.346 C 385.209 64.962 385.133 65.467 384.982 65.862 C 384.831 66.257 384.628 66.571 384.372 66.803 C 384.117 67.024 383.82 67.181 383.484 67.274 C 383.158 67.367 382.816 67.413 382.455 67.413 C 382.281 67.413 382.124 67.413 381.985 67.413 C 381.845 67.413 381.694 67.401 381.532 67.378 L 381.532 65.635 Z "/>
          <path id="path4258" fill="#f2f2f2" stroke="none" stroke-width="1" d="M 388.43 60.32 L 391.062 60.32 L 391.062 62.063 L 388.43 62.063 L 388.43 65.636 L 391.742 65.636 L 391.742 67.378 L 386.513 67.378 L 386.513 55.179 L 391.742 55.179 L 391.742 56.922 L 388.43 56.922 L 388.43 60.32 Z "/>
          <path id="path4260" fill="#f2f2f2" stroke="none" stroke-width="1" d="M 398.472 62.83 L 398.472 64.451 C 398.472 65.438 398.228 66.199 397.74 66.734 C 397.264 67.256 396.555 67.518 395.614 67.518 C 394.673 67.518 393.958 67.256 393.47 66.734 C 392.994 66.199 392.756 65.438 392.756 64.451 L 392.756 58.107 C 392.756 57.12 392.994 56.364 393.47 55.842 C 393.958 55.307 394.673 55.04 395.614 55.04 C 396.555 55.04 397.264 55.307 397.74 55.842 C 398.228 56.364 398.472 57.12 398.472 58.107 L 398.472 59.292 L 396.659 59.292 L 396.659 57.985 C 396.659 57.544 396.566 57.236 396.381 57.061 C 396.206 56.876 395.968 56.783 395.666 56.783 C 395.364 56.783 395.12 56.876 394.934 57.061 C 394.76 57.236 394.673 57.544 394.673 57.985 L 394.673 64.573 C 394.673 65.014 394.76 65.322 394.934 65.496 C 395.12 65.671 395.364 65.758 395.666 65.758 C 395.968 65.758 396.206 65.671 396.381 65.496 C 396.566 65.322 396.659 65.014 396.659 64.573 L 396.659 62.83 L 398.472 62.83 Z "/>
          <path id="path4262" fill="#f2f2f2" stroke="none" stroke-width="1" d="M 399.094 55.179 L 405.02 55.179 L 405.02 56.922 L 403.016 56.922 L 403.016 67.378 L 401.099 67.378 L 401.099 56.922 L 399.094 56.922 L 399.094 55.179 Z "/>
        </g>
      </g>
    </g>
  </g>
</svg>