<svg xmlns="http://www.w3.org/2000/svg" xmlns:xlink="http://www.w3.org/1999/xlink" version="1.1" width="352" height="285" viewBox="-0.5 -0.5 352 285">
  <!-- Exported by Scratch - http://scratch.mit.edu/ -->
  <g id="ID0.31634913152083755">
    <g id="ID0.611338316462934">
      <path id="ID0.6769566950388253" fill="#666666" d="M 110.9494 213.9872 L 110.9494 232.2645 L 60.7035 232.2645 L 60.7035 213.9872 L 110.9494 213.9872 Z M 161.1954 195.7322 C 163.6786 195.7322 165.8039 196.627 167.616 198.4391 C 169.4281 200.2512 170.3229 202.3765 170.3229 204.8597 L 170.3229 241.392 C 170.3229 243.8753 169.4281 246.0005 167.616 247.8126 C 165.8039 249.6247 163.6786 250.5195 161.1954 250.5195 L 124.6407 250.5195 C 122.1575 250.5195 120.0322 249.6247 118.2201 247.8126 C 116.408 246.0005 115.5132 243.8753 115.5132 241.392 L 115.5132 204.8597 C 115.5132 202.3765 116.408 200.2512 118.2201 198.4391 C 120.0322 196.627 122.1575 195.7322 124.6407 195.7322 L 161.1954 195.7322 L 161.1954 195.7322 Z M 184.0365 140.9225 L 184.0365 159.1998 L 60.7035 159.1998 L 60.7035 140.9225 L 184.0365 140.9225 Z M 92.6721 67.8354 L 92.6721 86.1127 L 60.7035 86.1127 L 60.7035 67.8354 L 92.6721 67.8354 Z M 279.9424 213.9872 L 279.9424 232.2645 L 174.8867 232.2645 L 174.8867 213.9872 L 279.9424 213.9872 L 279.9424 213.9872 Z M 142.9181 49.558 C 145.4013 49.558 147.5265 50.4528 149.3386 52.2649 C 151.1507 54.077 152.0456 56.2023 152.0456 58.6855 L 152.0456 95.2402 C 152.0456 97.7234 151.1507 99.8487 149.3386 101.6608 C 147.5265 103.4729 145.4013 104.3677 142.9181 104.3677 L 106.3857 104.3677 C 103.9025 104.3677 101.7772 103.4729 99.9651 101.6608 C 98.153 99.8487 97.2582 97.7234 97.2582 95.2402 L 97.2582 58.7079 C 97.2582 56.2246 98.153 54.0994 99.9651 52.2873 C 101.7772 50.4752 103.9025 49.5804 106.3857 49.5804 L 142.9181 49.5804 Z M 234.2601 122.6451 C 236.7434 122.6451 238.8686 123.5399 240.6807 125.352 C 242.4928 127.1641 243.3876 129.2894 243.3876 131.7726 L 243.3876 168.3049 C 243.3876 170.7882 242.4928 172.9134 240.6807 174.7255 C 238.8686 176.5376 236.7434 177.4324 234.2601 177.4324 L 197.7278 177.4324 C 195.2446 177.4324 193.1193 176.5376 191.3072 174.7255 C 189.4951 172.9134 188.6003 170.7882 188.6003 168.3049 L 188.6003 131.7726 C 188.6003 129.2894 189.4951 127.1641 191.3072 125.352 C 193.1193 123.5399 195.2446 122.6451 197.7278 122.6451 L 234.2601 122.6451 L 234.2601 122.6451 Z M 279.9424 140.9225 L 279.9424 159.1998 L 247.9738 159.1998 L 247.9738 140.9225 L 279.9424 140.9225 Z M 279.9424 67.8354 L 279.9424 86.1127 L 156.6317 86.1127 L 156.6317 67.8354 L 279.9424 67.8354 Z " stroke-width="0.2237131777015655"/>
    </g>
  </g>
  <path id="ID0.7286884835921228" fill="#FFFFFF" stroke="none" d="M 0 282 L 1 282 L 1 284 L 0 284 L 0 282 Z " stroke-width="1"/>
  <path id="ID0.7286884835921228" fill="#FFFFFF" stroke="none" d="M 350 0 L 351 0 L 351 2 L 350 2 L 350 0 Z " stroke-width="1"/>
</svg>