<svg xmlns="http://www.w3.org/2000/svg" xmlns:xlink="http://www.w3.org/1999/xlink" version="1.1" width="87.46300506591797" height="17.70599937438965" viewBox="0.2680000066757202 -0.17099997401237488 87.46300506591797 17.70599937438965">
  <!-- Exported by Scratch - http://scratch.mit.edu/ -->
  <g id="text4164">
    <path id="path4253" fill="#f2f2f2" stroke="none" stroke-width="1" d="M 3.496 2.966 L 3.496 7.924 L 7.016 7.924 C 7.884 7.924 8.529 7.663 8.952 7.143 C 9.382 6.637 9.597 6.071 9.597 5.445 C 9.597 4.509 9.265 3.826 8.601 3.396 C 8.171 3.109 7.612 2.966 6.926 2.966 L 3.496 2.966 Z M 0.904 16.854 C 0.814 16.854 0.768 16.809 0.768 16.718 L 0.768 0.499 C 0.768 0.408 0.814 0.363 0.904 0.363 L 6.79 0.363 C 7.439 0.363 8.054 0.431 8.635 0.567 C 9.224 0.702 9.85 1.027 10.514 1.54 C 10.77 1.744 11.004 1.981 11.216 2.253 C 11.434 2.517 11.631 2.811 11.804 3.136 C 11.97 3.468 12.098 3.834 12.189 4.234 C 12.28 4.634 12.325 5.06 12.325 5.513 C 12.325 6.697 11.88 7.829 10.989 8.908 C 10.099 9.98 8.805 10.516 7.107 10.516 L 3.496 10.516 L 3.496 16.718 C 3.496 16.809 3.451 16.854 3.36 16.854 L 0.904 16.854 Z "/>
    <path id="path4255" fill="#f2f2f2" stroke="none" stroke-width="1" d="M 13.762 10.968 C 13.762 9.738 13.864 8.807 14.068 8.173 C 14.264 7.539 14.589 6.977 15.041 6.486 C 15.358 6.147 15.803 5.811 16.377 5.479 C 16.95 5.147 17.701 4.981 18.629 4.981 C 19.55 4.981 20.293 5.147 20.859 5.479 C 21.153 5.645 21.41 5.811 21.629 5.977 C 21.855 6.143 22.051 6.313 22.217 6.486 C 22.662 6.977 22.987 7.539 23.191 8.173 C 23.387 8.822 23.485 9.754 23.485 10.968 C 23.485 12.221 23.387 13.164 23.191 13.798 C 22.987 14.417 22.662 14.979 22.217 15.485 C 21.878 15.847 21.425 16.19 20.859 16.514 C 20.293 16.831 19.55 16.99 18.629 16.99 C 17.701 16.99 16.95 16.831 16.377 16.514 C 16.12 16.364 15.875 16.198 15.641 16.016 C 15.415 15.835 15.215 15.658 15.041 15.485 C 14.581 14.979 14.257 14.417 14.068 13.798 C 13.864 13.179 13.762 12.236 13.762 10.968 Z M 20.916 10.991 C 20.916 10.199 20.874 9.625 20.791 9.271 C 20.716 8.946 20.576 8.637 20.372 8.342 C 20.176 8.086 19.931 7.89 19.637 7.754 C 19.35 7.618 19.014 7.55 18.629 7.55 C 17.829 7.55 17.248 7.814 16.886 8.342 C 16.781 8.493 16.69 8.644 16.615 8.795 C 16.547 8.939 16.494 9.097 16.456 9.271 C 16.381 9.595 16.343 10.161 16.343 10.968 C 16.343 11.376 16.35 11.727 16.366 12.021 C 16.388 12.315 16.418 12.549 16.456 12.723 C 16.524 13.047 16.667 13.353 16.886 13.64 C 17.241 14.16 17.822 14.421 18.629 14.421 C 19.399 14.421 19.98 14.16 20.372 13.64 C 20.569 13.345 20.708 13.04 20.791 12.723 C 20.874 12.353 20.916 11.776 20.916 10.991 Z "/>
    <path id="path4257" fill="#f2f2f2" stroke="none" stroke-width="1" d="M 26.088 16.854 C 26.005 16.854 25.964 16.809 25.964 16.718 L 25.964 5.241 C 25.964 5.151 26.005 5.105 26.088 5.105 L 28.409 5.105 C 28.492 5.105 28.533 5.151 28.533 5.241 L 28.533 6.169 C 29.257 5.377 30.223 4.981 31.431 4.981 C 32.298 4.981 33.125 5.283 33.909 5.886 C 33.94 5.909 33.955 5.939 33.955 5.977 C 33.962 6.015 33.955 6.048 33.932 6.079 L 32.268 8.071 C 32.216 8.139 32.155 8.146 32.087 8.093 C 31.597 7.731 31.114 7.55 30.638 7.55 C 30.103 7.55 29.616 7.731 29.178 8.093 C 28.748 8.456 28.533 9.033 28.533 9.825 L 28.533 16.718 C 28.533 16.809 28.492 16.854 28.409 16.854 L 26.088 16.854 Z "/>
    <path id="path4259" fill="#f2f2f2" stroke="none" stroke-width="1" d="M 35.211 16.865 C 35.121 16.865 35.075 16.82 35.075 16.73 L 35.075 7.143 L 34.057 7.143 C 33.966 7.143 33.921 7.097 33.921 7.007 L 33.921 5.241 C 33.921 5.151 33.966 5.105 34.057 5.105 L 35.075 5.105 L 35.075 3.385 L 37.418 0.883 C 37.463 0.838 37.513 0.827 37.565 0.849 C 37.626 0.872 37.656 0.914 37.656 0.974 L 37.656 5.105 L 39.195 5.105 C 39.286 5.105 39.331 5.151 39.331 5.241 L 39.331 7.007 C 39.331 7.097 39.286 7.143 39.195 7.143 L 37.656 7.143 L 37.656 16.73 C 37.656 16.82 37.611 16.865 37.52 16.865 L 35.211 16.865 Z "/>
    <path id="path4261" fill="#f2f2f2" stroke="none" stroke-width="1" d="M 47.662 16.899 C 47.571 16.899 47.526 16.854 47.526 16.764 L 47.526 16.13 C 47.42 16.265 47.296 16.386 47.152 16.492 C 47.016 16.59 46.869 16.669 46.711 16.73 C 46.477 16.828 46.201 16.903 45.885 16.956 C 45.575 17.009 45.236 17.035 44.866 17.035 C 43.568 17.005 42.58 16.65 41.9 15.971 L 41.9 15.982 C 41.161 15.311 40.791 14.447 40.791 13.391 C 40.791 12.402 41.108 11.568 41.742 10.889 C 42.391 10.21 43.327 9.863 44.549 9.848 L 47.526 9.848 L 47.526 8.773 C 47.541 7.837 46.824 7.388 45.375 7.426 C 45.111 7.426 44.873 7.437 44.662 7.46 C 44.451 7.482 44.258 7.524 44.085 7.584 L 44.096 7.584 C 43.945 7.66 43.809 7.754 43.689 7.867 C 43.568 7.973 43.466 8.101 43.383 8.252 C 43.33 8.342 43.262 8.354 43.179 8.286 L 41.414 6.894 C 41.383 6.871 41.365 6.845 41.357 6.815 C 41.35 6.777 41.357 6.743 41.38 6.713 C 42.255 5.528 43.549 4.954 45.262 4.992 C 45.979 4.985 46.62 5.049 47.186 5.185 C 47.752 5.32 48.258 5.536 48.703 5.83 C 49.578 6.449 50.02 7.471 50.027 8.897 L 50.027 16.764 C 50.027 16.854 49.982 16.899 49.891 16.899 L 47.662 16.899 Z M 47.526 12.021 L 44.968 12.021 C 43.753 12.059 43.149 12.478 43.157 13.277 C 43.157 13.617 43.311 13.919 43.621 14.183 C 43.938 14.462 44.443 14.602 45.137 14.602 C 46.066 14.609 46.707 14.5 47.062 14.273 L 47.05 14.273 C 47.367 14.062 47.526 13.549 47.526 12.734 L 47.526 12.021 Z "/>
    <path id="path4263" fill="#f2f2f2" stroke="none" stroke-width="1" d="M 52.563 0.612 C 52.563 0.521 52.604 0.476 52.687 0.476 L 55.007 0.476 C 55.09 0.476 55.132 0.521 55.132 0.612 L 55.132 13.753 C 55.132 14.198 55.377 14.421 55.868 14.421 L 56.649 14.421 C 56.739 14.421 56.784 14.466 56.784 14.556 L 56.784 16.718 C 56.784 16.809 56.739 16.854 56.649 16.854 L 55.63 16.854 C 54.777 16.854 54.053 16.643 53.457 16.22 C 52.861 15.783 52.563 15.024 52.563 13.945 L 52.563 0.612 Z "/>
    <path id="path4265" fill="#f2f2f2" stroke="none" stroke-width="1" d="M 66.745 9.565 C 66.654 9.565 66.609 9.52 66.609 9.429 L 66.609 7.403 C 66.609 7.312 66.654 7.267 66.745 7.267 L 67.537 7.267 C 68.269 7.267 68.846 7.063 69.269 6.656 C 69.684 6.264 69.891 5.747 69.891 5.105 C 69.891 4.502 69.676 3.985 69.246 3.555 C 68.816 3.125 68.292 2.91 67.673 2.91 C 67.22 2.91 66.786 3.064 66.371 3.374 C 65.956 3.675 65.692 4.132 65.579 4.743 C 65.571 4.773 65.553 4.8 65.522 4.822 C 65.5 4.845 65.477 4.856 65.454 4.856 L 63.134 4.856 C 63.096 4.856 63.062 4.841 63.032 4.811 C 63.01 4.781 63.002 4.747 63.01 4.709 C 63.085 3.555 63.576 2.532 64.481 1.642 C 65.371 0.766 66.405 0.329 67.582 0.329 C 68.314 0.329 68.975 0.453 69.563 0.702 C 70.159 0.951 70.684 1.317 71.136 1.8 C 71.567 2.276 71.895 2.793 72.121 3.351 C 72.355 3.902 72.472 4.471 72.472 5.06 C 72.472 5.701 72.348 6.328 72.099 6.939 C 71.978 7.211 71.812 7.467 71.601 7.709 C 71.389 7.95 71.14 8.176 70.853 8.388 C 71.457 8.818 71.906 9.335 72.2 9.938 C 72.502 10.587 72.653 11.248 72.653 11.919 C 72.653 13.451 72.166 14.685 71.193 15.62 C 70.235 16.533 69.046 16.99 67.628 16.99 C 67.062 16.99 66.526 16.899 66.02 16.718 C 65.522 16.537 65.043 16.265 64.583 15.903 C 64.13 15.534 63.764 15.088 63.485 14.568 C 63.213 14.047 63.025 13.436 62.919 12.734 C 62.904 12.636 62.949 12.587 63.055 12.587 L 65.364 12.587 C 65.417 12.587 65.458 12.617 65.488 12.678 C 65.587 12.942 65.7 13.179 65.828 13.391 C 65.964 13.602 66.122 13.787 66.303 13.945 C 66.484 14.096 66.692 14.213 66.926 14.296 C 67.167 14.379 67.447 14.421 67.763 14.421 C 68.36 14.421 68.895 14.206 69.371 13.775 C 69.839 13.36 70.072 12.768 70.072 11.998 C 70.072 11.229 69.839 10.636 69.371 10.221 C 68.895 9.784 68.345 9.565 67.718 9.565 L 66.745 9.565 Z "/>
    <path id="path4267" fill="#f2f2f2" stroke="none" stroke-width="1" d="M 75.607 16.854 C 75.517 16.854 75.471 16.809 75.471 16.718 L 75.471 0.499 C 75.471 0.408 75.517 0.363 75.607 0.363 L 81.289 0.363 C 83.553 0.363 85.236 1.295 86.337 3.159 C 86.541 3.521 86.707 3.864 86.835 4.189 C 86.964 4.513 87.05 4.83 87.096 5.139 C 87.186 5.743 87.231 6.901 87.231 8.614 C 87.231 10.448 87.167 11.678 87.039 12.304 C 86.979 12.621 86.888 12.93 86.767 13.232 C 86.647 13.526 86.488 13.821 86.292 14.115 L 86.292 14.104 C 85.802 14.881 85.122 15.534 84.255 16.062 C 83.372 16.59 82.331 16.854 81.131 16.854 L 75.607 16.854 Z M 78.199 2.966 L 78.199 14.273 L 81.018 14.273 C 82.315 14.273 83.281 13.821 83.915 12.915 C 84.164 12.515 84.323 12.096 84.391 11.659 C 84.428 11.417 84.455 11.055 84.47 10.572 C 84.492 10.082 84.504 9.459 84.504 8.705 C 84.504 7.973 84.492 7.362 84.47 6.871 C 84.447 6.381 84.417 5.992 84.379 5.705 C 84.304 5.177 84.111 4.698 83.802 4.268 C 83.161 3.4 82.232 2.966 81.018 2.966 L 78.199 2.966 Z "/>
  </g>
</svg>