<svg xmlns="http://www.w3.org/2000/svg" xmlns:xlink="http://www.w3.org/1999/xlink" version="1.1" width="159.56201171875" height="17.808000564575195" viewBox="0.218999981880188 -0.22200000286102295 159.56201171875 17.808000564575195">
  <!-- Exported by Scratch - http://scratch.mit.edu/ -->
  <g id="text4164-5">
    <path id="path4226" fill="#f2f2f2" stroke="none" stroke-width="1" d="M 5.303 16.905 C 5.212 16.905 5.167 16.86 5.167 16.769 L 5.167 2.87 L 0.855 2.87 C 0.764 2.87 0.719 2.825 0.719 2.734 L 0.719 0.55 C 0.719 0.459 0.764 0.414 0.855 0.414 L 12.196 0.414 C 12.286 0.414 12.332 0.459 12.332 0.55 L 12.332 2.734 C 12.332 2.825 12.286 2.87 12.196 2.87 L 7.895 2.87 L 7.895 16.769 C 7.895 16.86 7.849 16.905 7.759 16.905 L 5.303 16.905 Z "/>
    <path id="path4228" fill="#f2f2f2" stroke="none" stroke-width="1" d="M 22.903 11.902 C 22.903 11.993 22.858 12.038 22.767 12.038 L 15.761 12.038 C 15.784 12.868 16.021 13.498 16.474 13.928 C 16.972 14.381 17.602 14.607 18.364 14.607 C 19.27 14.607 20.077 14.253 20.787 13.543 C 20.802 13.521 20.828 13.509 20.866 13.509 C 20.904 13.502 20.937 13.509 20.968 13.532 L 22.643 14.958 C 22.673 14.981 22.688 15.011 22.688 15.049 C 22.688 15.086 22.677 15.12 22.654 15.151 C 22.066 15.83 21.405 16.316 20.673 16.611 C 19.949 16.897 19.191 17.041 18.398 17.041 C 17.183 17.041 16.018 16.652 14.901 15.875 C 13.754 15.09 13.18 13.49 13.18 11.076 C 13.18 8.797 13.705 7.22 14.754 6.345 C 15.825 5.469 16.923 5.032 18.047 5.032 C 19.345 5.032 20.477 5.481 21.443 6.379 C 22.416 7.284 22.903 8.491 22.903 10.001 L 22.903 11.902 Z M 20.322 9.876 C 20.27 9.091 20.036 8.495 19.621 8.088 C 19.206 7.68 18.681 7.477 18.047 7.477 C 17.391 7.477 16.851 7.688 16.429 8.11 C 16.233 8.307 16.078 8.556 15.965 8.857 C 15.852 9.159 15.784 9.499 15.761 9.876 L 20.322 9.876 Z "/>
    <path id="path4230" fill="#f2f2f2" stroke="none" stroke-width="1" d="M 25.733 13.181 C 25.793 13.121 25.85 13.117 25.903 13.17 C 26.884 14.128 28.061 14.607 29.434 14.607 C 30.053 14.607 30.573 14.49 30.996 14.256 C 31.177 14.143 31.317 14.004 31.415 13.838 C 31.52 13.672 31.573 13.483 31.573 13.272 C 31.573 12.676 31.143 12.344 30.283 12.276 L 28.246 12.083 C 27.77 12.038 27.325 11.936 26.91 11.778 C 26.495 11.619 26.125 11.397 25.801 11.11 C 25.152 10.536 24.827 9.733 24.827 8.699 C 24.827 7.492 25.254 6.575 26.106 5.949 C 26.944 5.337 27.985 5.032 29.23 5.032 C 29.743 5.032 30.215 5.069 30.645 5.145 C 31.083 5.22 31.486 5.326 31.856 5.462 C 32.234 5.598 32.581 5.764 32.898 5.96 C 33.222 6.156 33.531 6.375 33.826 6.616 C 33.856 6.639 33.871 6.669 33.871 6.707 C 33.871 6.745 33.86 6.779 33.837 6.809 L 32.411 8.484 C 32.358 8.537 32.298 8.544 32.23 8.507 C 31.785 8.205 31.324 7.959 30.849 7.771 C 30.374 7.575 29.834 7.477 29.23 7.477 C 28.529 7.477 28.046 7.597 27.782 7.839 C 27.525 8.073 27.397 8.367 27.397 8.722 C 27.397 8.94 27.491 9.144 27.68 9.333 C 27.861 9.514 28.231 9.627 28.789 9.672 C 29.106 9.695 29.423 9.718 29.74 9.74 C 30.064 9.763 30.381 9.786 30.69 9.808 C 31.279 9.846 31.8 9.967 32.252 10.17 C 32.713 10.367 33.075 10.631 33.339 10.963 C 33.875 11.642 34.143 12.445 34.143 13.374 C 34.143 14.551 33.664 15.46 32.705 16.101 C 32.23 16.411 31.705 16.645 31.132 16.803 C 30.566 16.962 29.94 17.041 29.253 17.041 C 27.321 17.041 25.608 16.347 24.114 14.958 C 24.046 14.89 24.046 14.822 24.114 14.754 L 25.733 13.181 Z "/>
    <path id="path4232" fill="#f2f2f2" stroke="none" stroke-width="1" d="M 36.723 16.916 C 36.633 16.916 36.587 16.871 36.587 16.78 L 36.587 7.194 L 35.569 7.194 C 35.478 7.194 35.433 7.148 35.433 7.058 L 35.433 5.292 C 35.433 5.201 35.478 5.156 35.569 5.156 L 36.587 5.156 L 36.587 3.436 L 38.93 0.934 C 38.976 0.889 39.025 0.878 39.078 0.9 C 39.138 0.923 39.168 0.965 39.168 1.025 L 39.168 5.156 L 40.707 5.156 C 40.798 5.156 40.843 5.201 40.843 5.292 L 40.843 7.058 C 40.843 7.148 40.798 7.194 40.707 7.194 L 39.168 7.194 L 39.168 16.78 C 39.168 16.871 39.123 16.916 39.032 16.916 L 36.723 16.916 Z "/>
    <path id="path4234" fill="#f2f2f2" stroke="none" stroke-width="1" d="M 59.802 12.106 C 59.847 12.106 59.885 12.125 59.915 12.162 C 59.945 12.193 59.953 12.23 59.938 12.276 C 59.621 13.815 58.919 15 57.832 15.83 C 57.304 16.23 56.731 16.531 56.112 16.735 C 55.493 16.939 54.825 17.041 54.109 17.041 C 52.803 17.041 51.705 16.728 50.815 16.101 C 49.94 15.483 49.306 14.803 48.913 14.064 C 48.778 13.807 48.661 13.551 48.562 13.294 C 48.464 13.03 48.389 12.755 48.336 12.468 C 48.238 11.91 48.189 10.642 48.189 8.665 C 48.189 7.677 48.2 6.869 48.223 6.243 C 48.246 5.617 48.283 5.16 48.336 4.873 C 48.389 4.587 48.464 4.311 48.563 4.047 C 48.661 3.783 48.778 3.523 48.913 3.266 C 49.306 2.534 49.94 1.855 50.815 1.229 C 51.698 0.595 52.796 0.278 54.109 0.278 C 55.678 0.278 56.976 0.761 58.002 1.727 C 59.044 2.7 59.689 3.855 59.938 5.19 C 59.953 5.235 59.945 5.273 59.915 5.303 C 59.885 5.334 59.847 5.349 59.802 5.349 L 57.21 5.349 C 57.142 5.349 57.101 5.318 57.085 5.258 C 56.987 4.956 56.848 4.677 56.667 4.42 C 56.486 4.156 56.263 3.911 55.999 3.685 C 55.501 3.24 54.871 3.017 54.109 3.017 C 53.543 3.017 53.06 3.13 52.66 3.357 C 52.26 3.583 51.939 3.843 51.698 4.138 C 51.554 4.319 51.43 4.526 51.324 4.76 C 51.219 4.986 51.136 5.22 51.075 5.462 C 51.015 5.718 50.973 6.115 50.951 6.65 C 50.928 7.186 50.917 7.858 50.917 8.665 C 50.917 9.487 50.928 10.167 50.951 10.702 C 50.973 11.231 51.015 11.623 51.075 11.879 C 51.136 12.113 51.219 12.347 51.324 12.581 C 51.437 12.808 51.562 13.008 51.698 13.181 C 51.939 13.498 52.26 13.77 52.66 13.996 C 53.06 14.215 53.543 14.324 54.109 14.324 C 55.414 14.324 56.406 13.611 57.085 12.185 C 57.101 12.17 57.119 12.155 57.142 12.14 C 57.165 12.117 57.187 12.106 57.21 12.106 L 59.802 12.106 Z "/>
    <path id="path4236" fill="#f2f2f2" stroke="none" stroke-width="1" d="M 61.568 16.905 C 61.477 16.905 61.432 16.86 61.432 16.769 L 61.432 0.663 C 61.432 0.572 61.477 0.527 61.568 0.527 L 63.877 0.527 C 63.967 0.527 64.012 0.572 64.012 0.663 L 64.012 6.22 C 64.737 5.428 65.703 5.032 66.91 5.032 C 67.378 5.032 67.831 5.118 68.268 5.292 C 68.706 5.466 69.144 5.726 69.581 6.073 C 70.441 6.775 70.872 7.797 70.872 9.14 L 70.872 16.769 C 70.872 16.86 70.826 16.905 70.736 16.905 L 68.427 16.905 C 68.336 16.905 68.291 16.86 68.291 16.769 L 68.291 9.933 C 68.291 9.186 68.091 8.612 67.691 8.212 C 67.268 7.805 66.763 7.601 66.174 7.601 C 65.54 7.601 65.02 7.805 64.612 8.212 C 64.212 8.612 64.012 9.186 64.012 9.933 L 64.012 16.769 C 64.012 16.86 63.967 16.905 63.877 16.905 L 61.568 16.905 Z "/>
    <path id="path4238" fill="#f2f2f2" stroke="none" stroke-width="1" d="M 80.096 16.95 C 80.006 16.95 79.96 16.905 79.96 16.814 L 79.96 16.181 C 79.855 16.316 79.73 16.437 79.587 16.543 C 79.451 16.641 79.304 16.72 79.145 16.78 C 78.912 16.879 78.636 16.954 78.319 17.007 C 78.01 17.06 77.67 17.086 77.301 17.086 C 76.003 17.056 75.014 16.701 74.335 16.022 L 74.335 16.033 C 73.596 15.362 73.226 14.498 73.226 13.441 C 73.226 12.453 73.543 11.619 74.177 10.94 C 74.826 10.261 75.761 9.914 76.984 9.899 L 79.96 9.899 L 79.96 8.823 C 79.975 7.888 79.259 7.439 77.81 7.477 C 77.546 7.477 77.308 7.488 77.097 7.511 C 76.885 7.533 76.693 7.575 76.52 7.635 L 76.531 7.635 C 76.38 7.71 76.244 7.805 76.123 7.918 C 76.003 8.024 75.901 8.152 75.818 8.303 C 75.765 8.393 75.697 8.405 75.614 8.337 L 73.848 6.945 C 73.818 6.922 73.799 6.896 73.792 6.865 C 73.784 6.828 73.792 6.794 73.814 6.764 C 74.69 5.579 75.984 5.005 77.697 5.043 C 78.413 5.036 79.055 5.1 79.621 5.236 C 80.187 5.371 80.692 5.586 81.137 5.881 C 82.013 6.499 82.454 7.522 82.462 8.948 L 82.462 16.814 C 82.462 16.905 82.416 16.95 82.326 16.95 L 80.096 16.95 Z M 79.96 12.072 L 77.402 12.072 C 76.187 12.11 75.584 12.528 75.591 13.328 C 75.591 13.668 75.746 13.97 76.055 14.234 C 76.372 14.513 76.878 14.653 77.572 14.653 C 78.5 14.66 79.142 14.551 79.496 14.324 L 79.485 14.324 C 79.802 14.113 79.96 13.6 79.96 12.785 L 79.96 12.072 Z "/>
    <path id="path4240" fill="#f2f2f2" stroke="none" stroke-width="1" d="M 85.337 16.905 C 85.246 16.905 85.201 16.86 85.201 16.769 L 85.201 5.292 C 85.201 5.201 85.246 5.156 85.337 5.156 L 87.646 5.156 C 87.736 5.156 87.782 5.201 87.782 5.292 L 87.782 6.209 C 88.506 5.424 89.472 5.032 90.679 5.032 C 91.487 5.032 92.143 5.183 92.649 5.484 C 92.875 5.62 93.094 5.771 93.305 5.937 C 93.516 6.096 93.716 6.273 93.905 6.469 C 94.833 5.511 96.044 5.032 97.538 5.032 C 98.451 5.032 99.342 5.379 100.209 6.073 C 101.07 6.775 101.5 7.797 101.5 9.14 L 101.5 16.769 C 101.5 16.86 101.454 16.905 101.364 16.905 L 99.055 16.905 C 98.964 16.905 98.919 16.86 98.919 16.769 L 98.919 9.933 C 98.919 9.186 98.719 8.612 98.319 8.212 C 97.912 7.805 97.402 7.601 96.791 7.601 C 96.157 7.601 95.637 7.805 95.229 8.212 C 94.829 8.612 94.629 9.186 94.629 9.933 L 94.629 16.769 C 94.629 16.86 94.588 16.905 94.505 16.905 L 92.196 16.905 C 92.113 16.905 92.071 16.86 92.071 16.769 L 92.071 9.933 C 92.071 9.193 91.868 8.62 91.46 8.212 C 91.053 7.805 90.543 7.601 89.932 7.601 C 89.298 7.601 88.778 7.805 88.37 8.212 C 87.978 8.605 87.782 9.178 87.782 9.933 L 87.782 16.769 C 87.782 16.86 87.736 16.905 87.646 16.905 L 85.337 16.905 Z "/>
    <path id="path4242" fill="#f2f2f2" stroke="none" stroke-width="1" d="M 104.895 16.905 C 104.805 16.905 104.76 16.86 104.76 16.769 L 104.76 0.663 C 104.76 0.572 104.805 0.527 104.895 0.527 L 107.204 0.527 C 107.295 0.527 107.34 0.572 107.34 0.663 L 107.34 6.22 C 107.748 5.866 108.178 5.579 108.63 5.36 C 109.091 5.141 109.604 5.032 110.17 5.032 C 110.517 5.032 110.845 5.073 111.155 5.156 C 111.464 5.239 111.751 5.352 112.015 5.496 C 112.286 5.632 112.532 5.794 112.75 5.982 C 112.977 6.164 113.177 6.36 113.35 6.571 C 113.516 6.782 113.656 7.016 113.769 7.273 C 113.882 7.529 113.965 7.797 114.018 8.076 L 114.018 8.065 C 114.139 8.593 114.199 9.578 114.199 11.019 C 114.199 12.468 114.139 13.468 114.018 14.019 L 114.018 14.007 C 113.92 14.566 113.697 15.064 113.35 15.501 L 113.362 15.501 C 113.015 15.954 112.577 16.324 112.049 16.611 C 111.528 16.897 110.902 17.041 110.17 17.041 C 109.076 17.041 108.132 16.664 107.34 15.909 L 107.34 16.769 C 107.34 16.86 107.295 16.905 107.204 16.905 L 104.895 16.905 Z M 109.479 7.601 C 108.461 7.601 107.853 7.956 107.657 8.665 C 107.551 9.05 107.472 9.438 107.419 9.831 C 107.367 10.223 107.34 10.619 107.34 11.019 C 107.34 11.427 107.367 11.83 107.419 12.23 C 107.472 12.63 107.551 13.023 107.657 13.408 C 107.846 14.117 108.453 14.471 109.479 14.471 C 110.49 14.471 111.094 14.132 111.29 13.453 C 111.509 12.706 111.619 11.895 111.619 11.019 C 111.619 10.167 111.509 9.367 111.29 8.62 C 111.094 7.941 110.49 7.601 109.479 7.601 Z "/>
    <path id="path4244" fill="#f2f2f2" stroke="none" stroke-width="1" d="M 125.903 11.902 C 125.903 11.993 125.857 12.038 125.767 12.038 L 118.761 12.038 C 118.783 12.868 119.021 13.498 119.474 13.928 C 119.972 14.381 120.602 14.607 121.364 14.607 C 122.269 14.607 123.077 14.253 123.786 13.543 C 123.801 13.521 123.828 13.509 123.865 13.509 C 123.903 13.502 123.937 13.509 123.967 13.532 L 125.642 14.958 C 125.673 14.981 125.688 15.011 125.688 15.049 C 125.688 15.086 125.676 15.12 125.654 15.151 C 125.065 15.83 124.405 16.316 123.673 16.611 C 122.948 16.897 122.19 17.041 121.398 17.041 C 120.183 17.041 119.017 16.652 117.9 15.875 C 116.753 15.09 116.18 13.49 116.18 11.076 C 116.18 8.797 116.704 7.22 117.753 6.345 C 118.825 5.469 119.923 5.032 121.047 5.032 C 122.345 5.032 123.477 5.481 124.443 6.379 C 125.416 7.284 125.903 8.491 125.903 10.001 L 125.903 11.902 Z M 123.322 9.876 C 123.269 9.091 123.035 8.495 122.62 8.088 C 122.205 7.68 121.681 7.477 121.047 7.477 C 120.39 7.477 119.851 7.688 119.428 8.11 C 119.232 8.307 119.078 8.556 118.964 8.857 C 118.851 9.159 118.783 9.499 118.761 9.876 L 123.322 9.876 Z "/>
    <path id="path4246" fill="#f2f2f2" stroke="none" stroke-width="1" d="M 128.472 16.905 C 128.389 16.905 128.348 16.86 128.348 16.769 L 128.348 5.292 C 128.348 5.201 128.389 5.156 128.472 5.156 L 130.792 5.156 C 130.875 5.156 130.917 5.201 130.917 5.292 L 130.917 6.22 C 131.641 5.428 132.607 5.032 133.814 5.032 C 134.682 5.032 135.508 5.334 136.293 5.937 C 136.323 5.96 136.338 5.99 136.338 6.028 C 136.346 6.066 136.338 6.1 136.316 6.13 L 134.652 8.122 C 134.599 8.19 134.539 8.197 134.471 8.144 C 133.98 7.782 133.498 7.601 133.022 7.601 C 132.486 7.601 132 7.782 131.562 8.144 C 131.132 8.507 130.917 9.084 130.917 9.876 L 130.917 16.769 C 130.917 16.86 130.875 16.905 130.792 16.905 L 128.472 16.905 Z "/>
    <path id="path4248" fill="#f2f2f2" stroke="none" stroke-width="1" d="M 145.325 16.939 C 145.235 16.939 145.19 16.894 145.19 16.803 L 145.19 3.357 C 144.843 3.613 144.495 3.873 144.148 4.138 C 143.801 4.394 143.454 4.647 143.107 4.896 C 143.054 4.934 143.005 4.941 142.96 4.918 C 142.915 4.888 142.892 4.843 142.892 4.783 L 142.892 2.327 C 142.892 2.311 142.896 2.293 142.903 2.27 C 142.918 2.247 142.933 2.228 142.949 2.213 L 145.28 0.527 L 147.646 0.527 C 147.736 0.527 147.782 0.572 147.782 0.663 L 147.782 16.803 C 147.782 16.894 147.736 16.939 147.646 16.939 L 145.325 16.939 Z "/>
    <path id="path4250" fill="#f2f2f2" stroke="none" stroke-width="1" d="M 153.373 9.616 C 153.282 9.616 153.237 9.57 153.237 9.48 L 153.237 7.454 C 153.237 7.363 153.282 7.318 153.373 7.318 L 154.165 7.318 C 154.897 7.318 155.474 7.114 155.897 6.707 C 156.312 6.315 156.52 5.798 156.52 5.156 C 156.52 4.553 156.305 4.036 155.874 3.606 C 155.444 3.175 154.92 2.96 154.301 2.96 C 153.848 2.96 153.415 3.115 152.999 3.424 C 152.584 3.726 152.32 4.183 152.207 4.794 C 152.2 4.824 152.181 4.851 152.151 4.873 C 152.128 4.896 152.105 4.907 152.083 4.907 L 149.762 4.907 C 149.725 4.907 149.691 4.892 149.66 4.862 C 149.638 4.832 149.63 4.798 149.638 4.76 C 149.713 3.606 150.204 2.583 151.109 1.693 C 152 0.817 153.033 0.38 154.211 0.38 C 154.943 0.38 155.603 0.504 156.191 0.753 C 156.787 1.002 157.312 1.368 157.765 1.851 C 158.195 2.327 158.523 2.843 158.749 3.402 C 158.983 3.953 159.1 4.522 159.1 5.111 C 159.1 5.752 158.976 6.379 158.727 6.99 C 158.606 7.261 158.44 7.518 158.229 7.759 C 158.017 8.001 157.768 8.227 157.482 8.439 C 158.085 8.869 158.534 9.386 158.829 9.989 C 159.13 10.638 159.281 11.298 159.281 11.97 C 159.281 13.502 158.795 14.736 157.821 15.671 C 156.863 16.584 155.674 17.041 154.256 17.041 C 153.69 17.041 153.154 16.95 152.649 16.769 C 152.151 16.588 151.671 16.316 151.211 15.954 C 150.758 15.584 150.392 15.139 150.113 14.619 C 149.842 14.098 149.653 13.487 149.547 12.785 C 149.532 12.687 149.578 12.638 149.683 12.638 L 151.992 12.638 C 152.045 12.638 152.086 12.668 152.117 12.728 C 152.215 12.993 152.328 13.23 152.456 13.441 C 152.592 13.653 152.751 13.838 152.932 13.996 C 153.113 14.147 153.32 14.264 153.554 14.347 C 153.796 14.43 154.075 14.471 154.392 14.471 C 154.988 14.471 155.524 14.256 155.999 13.826 C 156.467 13.411 156.701 12.819 156.701 12.049 C 156.701 11.28 156.467 10.687 155.999 10.272 C 155.524 9.835 154.973 9.616 154.346 9.616 L 153.373 9.616 Z "/>
  </g>
</svg>