<svg xmlns="http://www.w3.org/2000/svg" xmlns:xlink="http://www.w3.org/1999/xlink" version="1.1" width="451" height="358" viewBox="-0.5 -0.5 451 358">
  <!-- Exported by Scratch - http://scratch.mit.edu/ -->
  <path id="ID0.28591495333239436" fill="#E5E5E5" stroke="none" d="M 448 0 L 450 0 L 450 2 L 448 2 L 448 0 Z " stroke-width="1"/>
  <path id="ID0.28591495333239436" fill="#E5E5E5" stroke="none" d="M 0 355 L 2 355 L 2 357 L 0 357 L 0 355 Z " stroke-width="1"/>
  <path id="ID0.13940732181072235" fill="#666666" d="M 223 58 C 176.685 58 139 95.685 139 142 C 139 162.8194 148.4831 181.8674 157.6706 200.275 C 165.3487 215.7131 172.6 230.2819 172.6 242.8 C 172.6 252.0862 180.1143 259.6 189.4 259.6 L 256.6 259.6 C 265.8862 259.6 273.4 252.0857 273.4 242.8 C 273.4 229.6587 280.7337 215.0243 288.51 199.5531 C 297.5993 181.4406 307 162.7049 307 142 C 307 95.685 269.315 58 223 58 Z M 256.6 242.8 L 231.4 242.8 L 231.4 192.4 C 231.4 187.7569 227.6431 184 223 184 C 218.3569 184 214.6 187.7569 214.6 192.4 L 214.6 242.8 L 189.4 242.8 C 189.4 209.725 155.8 175.6 155.8 142 C 155.8 104.8888 185.8893 74.8 223 74.8 C 260.1107 74.8 290.2 104.8893 290.2 142 C 290.2 175.6 256.6 208.675 256.6 242.8 Z M 248.2 167.2 C 248.2 171.8431 244.4431 175.6 239.8 175.6 L 206.2 175.6 C 201.5569 175.6 197.8 171.8431 197.8 167.2 C 197.8 162.5569 201.5569 158.8 206.2 158.8 L 239.8 158.8 C 244.4431 158.8 248.2 162.5569 248.2 167.2 Z M 248.2 142 C 248.2 146.6431 244.4431 150.4 239.8 150.4 L 206.2 150.4 C 201.5569 150.4 197.8 146.6431 197.8 142 C 197.8 137.3569 201.5569 133.6 206.2 133.6 L 239.8 133.6 C 244.4431 133.6 248.2 137.3569 248.2 142 Z M 256.6 284.8 C 261.2431 284.8 265 288.5569 265 293.2 C 265 297.8431 261.2431 301.6 256.6 301.6 C 261.2431 301.6 265 305.3569 265 310 C 265 314.6431 261.2431 318.4 256.6 318.4 L 239.8 318.4 C 235.8294 323.6831 229.6118 326.8 223 326.8 C 216.3881 326.8 210.17 323.6825 206.2 318.4 L 189.4 318.4 C 184.7569 318.4 181 314.6431 181 310 C 181 305.3569 184.7569 301.6 189.4 301.6 C 184.7569 301.6 181 297.8431 181 293.2 C 181 288.5569 184.7569 284.8 189.4 284.8 C 184.7569 284.8 181 281.0431 181 276.4 C 181 271.7569 184.7569 268 189.4 268 L 256.6 268 C 261.2431 268 265 271.7569 265 276.4 C 265 281.0431 261.2431 284.8 256.6 284.8 Z " stroke-width="0.5249999761581421"/>
</svg>