<svg version="1.1" xmlns="http://www.w3.org/2000/svg" xmlns:xlink="http://www.w3.org/1999/xlink" width="11.58056" height="11.58056" viewBox="0,0,11.58056,11.58056"><g transform="translate(-234.20972,-174.20972)"><g data-paper-data="{&quot;isPaintingLayer&quot;:true}" fill="#ff3396" fill-rule="nonzero" stroke="none" stroke-width="0" stroke-linecap="butt" stroke-linejoin="miter" stroke-miterlimit="10" stroke-dasharray="" stroke-dashoffset="0" style="mix-blend-mode: normal"><path d="M238.57417,175.84004l1.46688,-1.63032l1.38538,1.63032z"/><path d="M241.42642,184.15996l-1.38538,1.63032l-1.46688,-1.63032z" data-paper-data="{&quot;index&quot;:null}"/><path d="M244.15996,178.55414l1.63032,1.46688l-1.63032,1.38538z" data-paper-data="{&quot;origRot&quot;:0}"/><path d="M235.84004,181.4064l-1.63032,-1.38538l1.63032,-1.46688z" data-paper-data="{&quot;index&quot;:null,&quot;origRot&quot;:0}"/><path d="M236.0283,178.07376l-0.11557,-2.19005l2.13243,0.1732z"/><path d="M243.92823,181.93998l0.1732,2.13243l-2.19005,-0.11557z" data-paper-data="{&quot;index&quot;:null}"/><path d="M241.89722,176.04317l2.19005,-0.11557l-0.1732,2.13243z" data-paper-data="{&quot;origRot&quot;:0}"/><path d="M238.031,183.94309l-2.13243,0.1732l0.11557,-2.19005z" data-paper-data="{&quot;index&quot;:null,&quot;origRot&quot;:0}"/><path d="M235.60306,180c0,-2.42837 1.96858,-4.39694 4.39694,-4.39694c2.42837,0 4.39694,1.96858 4.39694,4.39694c0,2.42837 -1.96858,4.39694 -4.39694,4.39694c-2.42837,0 -4.39694,-1.96858 -4.39694,-4.39694z"/></g></g></svg>