<svg version="1.1" xmlns="http://www.w3.org/2000/svg" xmlns:xlink="http://www.w3.org/1999/xlink" width="124" height="708.62668" viewBox="0,0,124,708.62668"><g transform="translate(-178,175.31334)"><g data-paper-data="{&quot;isPaintingLayer&quot;:true}" fill="#ff3396" fill-rule="nonzero" stroke="none" stroke-width="0" stroke-linecap="butt" stroke-linejoin="miter" stroke-miterlimit="10" stroke-dasharray="" stroke-dashoffset="0" style="mix-blend-mode: normal"><path d="M209,89.68666v-265h62v265z"/><path d="M178,127.08666v-34h123v34z"/><path d="M196.6,89.51334l9.4,-9.4v9.4z"/><path d="M273.2,89.51334v-9.4l9.4,9.4z" data-paper-data="{&quot;index&quot;:null}"/><path d="M192.8,129.31334l-14.4,14.4v-14.4z" data-paper-data="{&quot;index&quot;:null}"/><path d="M301,129.91334v14.4l-14.4,-14.4z" data-paper-data="{&quot;index&quot;:null}"/><path d="M272,268.31334v265h-62v-265z" data-paper-data="{&quot;index&quot;:null}"/><path d="M302,230.91334v34h-123v-34z" data-paper-data="{&quot;index&quot;:null}"/><path d="M207,268.48667v9.4l-9.4,-9.4z" data-paper-data="{&quot;index&quot;:null}"/><path d="M283.6,268.48667l-9.4,9.4v-9.4z" data-paper-data="{&quot;index&quot;:null}"/><path d="M179.4,228.68667v-14.4l14.4,14.4z" data-paper-data="{&quot;index&quot;:null}"/><path d="M287.6,228.08667l14.4,-14.4v14.4z" data-paper-data="{&quot;index&quot;:null}"/></g></g></svg>