<svg version="1.1" xmlns="http://www.w3.org/2000/svg" xmlns:xlink="http://www.w3.org/1999/xlink" width="602.212" height="167.87446" viewBox="0,0,602.212,167.87446"><g transform="translate(57.60599,-260.56277)"><g data-paper-data="{&quot;isPaintingLayer&quot;:true}" fill="#ff3396" fill-rule="nonzero" stroke="none" stroke-width="0" stroke-linecap="butt" stroke-linejoin="miter" stroke-miterlimit="10" stroke-dasharray="" stroke-dashoffset="0" style="mix-blend-mode: normal"><path d="M-11.60599,263.22943v-2.66666h501v2.66666z"/><path d="M27.39401,392.3961l101.40299,-131l2.59701,-0.02985l-80.8209,125.02985z"/><path d="M-57.60599,361.3961c0,0 75.90564,-61.0827 100.98342,-81.26327c8.35926,-6.72685 21.41957,-17.23673 21.41957,-17.23673l1.59701,0.97015l-95.82089,92.52985z"/><path d="M122.18201,412.79094l71.89018,-149.24935l2.53383,-0.57017l-53.00323,139.12275z" data-paper-data="{&quot;origRot&quot;:0}"/><path d="M436.42691,386.3961l-80.8209,-125.02985l2.59701,0.02985l101.40299,131z" data-paper-data="{&quot;index&quot;:null}"/><path d="M516.42691,356.3961l-95.82089,-92.52985l1.59701,-0.97015c0,0 13.06031,10.50988 21.41956,17.23673c25.07778,20.18057 100.98342,81.26327 100.98342,81.26327z" data-paper-data="{&quot;index&quot;:null}"/><path d="M343.39724,402.09416l-53.00322,-139.12274l2.53383,0.57018l71.89018,149.24935z" data-paper-data="{&quot;origRot&quot;:0,&quot;index&quot;:null}"/><path d="M233.14281,410.00617l7.64352,-148.68106l2.08829,1.54416l5.55108,165.56796z" data-paper-data="{&quot;origRot&quot;:0,&quot;index&quot;:null}"/></g></g></svg>