<svg version="1.1" xmlns="http://www.w3.org/2000/svg" xmlns:xlink="http://www.w3.org/1999/xlink" width="107.75" height="107.75" viewBox="0,0,107.75,107.75"><g transform="translate(-186.125,-126.125)"><g data-paper-data="{&quot;isPaintingLayer&quot;:true}" fill-rule="nonzero" stroke="none" stroke-width="0" stroke-linecap="butt" stroke-linejoin="miter" stroke-miterlimit="10" stroke-dasharray="" stroke-dashoffset="0" style="mix-blend-mode: normal"><path d="M195.9375,180c0,-24.33505 19.72745,-44.0625 44.0625,-44.0625c24.33504,0 44.0625,19.72745 44.0625,44.0625c0,24.33505 -19.72746,44.0625 -44.0625,44.0625c-24.33505,0 -44.0625,-19.72745 -44.0625,-44.0625z" fill="#ff3396"/><path d="M204.71864,180c0,-19.48536 15.796,-35.28136 35.28136,-35.28136c19.48536,0 35.28136,15.796 35.28136,35.28136c0,19.48536 -15.796,35.28136 -35.28136,35.28136c-19.48536,0 -35.28136,-15.796 -35.28136,-35.28136z" fill="#9a1f5a"/><path d="M230.375,143.125v-13.5l9.75,-3.5l9.75,3.5v13.5z" fill="#ff3396"/><path d="M249.625,216.875v13.5l-9.75,3.5l-9.75,-3.5v-13.5z" data-paper-data="{&quot;index&quot;:null}" fill="#ff3396"/><path d="M203.125,189.625h-13.5l-3.5,-9.75l3.5,-9.75h13.5z" fill="#ff3396"/><path d="M276.875,170.375h13.5l3.5,9.75l-3.5,9.75h-13.5z" data-paper-data="{&quot;index&quot;:null}" fill="#ff3396"/><path d="M206.36954,160.23134l-9.54594,-9.54594l4.41941,-9.36916l9.36917,-4.41942l9.54594,9.54594z" fill="#ff3396"/><path d="M273.38047,200.01866l9.54594,9.54594l-4.41942,9.36916l-9.36916,4.41942l-9.54594,-9.54594z" data-paper-data="{&quot;index&quot;:null}" fill="#ff3396"/><path d="M220.73134,212.88047l-9.54594,9.54594l-9.36916,-4.41941l-4.41942,-9.36917l9.54594,-9.54594z" fill="#ff3396"/><path d="M259.26866,147.11954l9.54594,-9.54594l9.36917,4.41941l4.41942,9.36917l-9.54595,9.54594z" data-paper-data="{&quot;index&quot;:null}" fill="#ff3396"/><path d="M225.1019,187.26992v-15.86324l15.07337,-8.28168l14.72283,8.59491v15.91404l-14.92391,9.24106z" fill="#ff3396"/></g></g></svg>