<svg version="1.1" xmlns="http://www.w3.org/2000/svg" xmlns:xlink="http://www.w3.org/1999/xlink" width="133.30054" height="704.02708" viewBox="0,0,133.30054,704.02708"><g transform="translate(-173.34973,145.51354)"><g data-paper-data="{&quot;isPaintingLayer&quot;:true}" fill="#ff3396" fill-rule="nonzero" stroke="none" stroke-width="0" stroke-linecap="butt" stroke-linejoin="miter" stroke-miterlimit="10" stroke-dasharray="" stroke-dashoffset="0" style="mix-blend-mode: normal"><path d="M224.35272,558.51354v-281.53425h29.62234v281.53425z"/><path d="M192.9387,274.50706v-21.0223l18.68434,-0.11087l5.92131,3.69422l42.28761,0.54536l7.12508,-4.55181l19.38758,0.4231v21.0223z"/><path d="M209.4221,276.41818h11.94449v59.24468z"/><path d="M256.4834,335.42397v-59.24468h11.94449z" data-paper-data="{&quot;index&quot;:null}"/><path d="M173.34974,266.62369v-26.27788l17.67784,7.1667v26.27788z" data-paper-data="{&quot;index&quot;:null}"/><path d="M174.54418,238.1958l17.43896,-25.56122l-1.43334,32.25013z" data-paper-data="{&quot;index&quot;:null}"/><path d="M288.97242,274.98484v-26.27788l17.67785,-7.1667v26.27788z" data-paper-data="{&quot;index&quot;:null}"/><path d="M289.4502,246.07917l-1.43333,-32.25013l17.43895,25.56122z" data-paper-data="{&quot;index&quot;:null}"/><path d="M227.09995,255.87366v-40.1335l4.84703,0.04284l2.08078,1.3905l10.59972,-0.06714l2.07134,-1.40694l4.7679,0.04074v40.1335z"/><path d="M227.04023,213.80316l-8.41273,-0.97956l-3.29287,-8.33715h9.84374l4.8345,1.38129l17.60599,0.16037l5.64566,-1.54166h8.41474l-3.35282,8.97138l-10.74168,0.34532l-3.59266,0.93363l-9.42684,0.02193l-3.22502,-0.95556z"/><path d="M253.97505,-145.51354v229.33425h-29.62234v-229.33425z"/><path d="M286.34462,85.49293v21.02231l-19.38757,0.4231l-7.12508,-4.55182l-42.28762,0.54537l-5.92132,3.69421l-18.68434,-0.11086v-21.02231z"/><path d="M221.36659,24.33713v59.24468h-11.94449z"/><path d="M268.42789,83.82071h-11.94449v-59.24468z" data-paper-data="{&quot;index&quot;:null}"/><path d="M191.02758,86.2096v26.27789l-17.67785,7.1667v-26.27788z" data-paper-data="{&quot;index&quot;:null}"/><path d="M190.5498,115.11528l1.43334,32.25013l-17.43896,-25.56121z" data-paper-data="{&quot;index&quot;:null}"/><path d="M306.65027,92.18185v26.27788l-17.67785,-7.16669v-26.27789z" data-paper-data="{&quot;index&quot;:null}"/><path d="M305.45581,120.60974l-17.43895,25.56121l1.43333,-32.25012z" data-paper-data="{&quot;index&quot;:null}"/><path d="M251.46672,104.12634v40.13349l-4.7679,0.04074l-2.07134,-1.40694l-10.59973,-0.06713l-2.08078,1.3905l-4.84703,0.04284v-40.13349z"/><path d="M231.34024,146.19683l3.22502,-0.95556l9.42684,0.02193l3.59265,0.93363l10.74168,0.34532l3.35282,8.97138h-8.41474l-5.64565,-1.54166l-17.606,0.16037l-4.8345,1.38129h-9.84374l3.29287,-8.33715l8.41273,-0.97955z"/><path d="M219,180c0,-11.59798 9.40202,-21 21,-21c11.59798,0 21,9.40202 21,21c0,11.59798 -9.40202,21 -21,21c-11.59798,0 -21,-9.40202 -21,-21z"/></g></g></svg>