<svg version="1.1" xmlns="http://www.w3.org/2000/svg" xmlns:xlink="http://www.w3.org/1999/xlink" width="17.20556" height="17.20556" viewBox="0,0,17.20556,17.20556"><g transform="translate(-231.39722,-171.39722)"><g data-paper-data="{&quot;isPaintingLayer&quot;:true}" fill-rule="nonzero" stroke="none" stroke-width="0" stroke-linecap="butt" stroke-linejoin="miter" stroke-miterlimit="10" stroke-dasharray="" stroke-dashoffset="0" style="mix-blend-mode: normal"><path d="M232.53938,180c0,-4.12039 3.34023,-7.46062 7.46062,-7.46062c4.12039,0 7.46062,3.34023 7.46062,7.46062c0,4.12039 -3.34023,7.46062 -7.46062,7.46062c-4.12039,0 -7.46062,-3.34023 -7.46062,-7.46062z" fill="#ffffff"/><path d="M237.88159,173.81944l2.17938,-2.42222l2.05829,2.42222z" fill="#ff3396"/><path d="M242.11927,186.18056l-2.05829,2.42222l-2.17938,-2.42222z" data-paper-data="{&quot;index&quot;:null}" fill="#ff3396"/><path d="M246.18056,177.85185l2.42222,2.17938l-2.42222,2.05829z" data-paper-data="{&quot;origRot&quot;:0}" fill="#ff3396"/><path d="M233.81944,182.08953l-2.42222,-2.05829l2.42222,-2.17938z" data-paper-data="{&quot;index&quot;:null,&quot;origRot&quot;:0}" fill="#ff3396"/><path d="M234.09914,177.13813l-0.17171,-3.25382l3.1682,0.25733z" fill="#ff3396"/><path d="M245.83627,182.88228l0.25733,3.1682l-3.25382,-0.17171z" data-paper-data="{&quot;index&quot;:null}" fill="#ff3396"/><path d="M242.81875,174.12122l3.25382,-0.17171l-0.25733,3.1682z" data-paper-data="{&quot;origRot&quot;:0}" fill="#ff3396"/><path d="M237.0746,185.85836l-3.1682,0.25733l0.17171,-3.25382z" data-paper-data="{&quot;index&quot;:null,&quot;origRot&quot;:0}" fill="#ff3396"/><path d="M233.46733,180c0,-3.60789 2.92478,-6.53267 6.53267,-6.53267c3.60789,0 6.53267,2.92478 6.53267,6.53267c0,3.60789 -2.92478,6.53267 -6.53267,6.53267c-3.60789,0 -6.53267,-2.92478 -6.53267,-6.53267z" fill="#ff3396"/></g></g></svg>