<svg version="1.1" xmlns="http://www.w3.org/2000/svg" xmlns:xlink="http://www.w3.org/1999/xlink" width="19.625" height="19.625" viewBox="0,0,19.625,19.625"><g transform="translate(-230.1875,-170.1875)"><g data-paper-data="{&quot;isPaintingLayer&quot;:true}" fill-rule="nonzero" stroke="none" stroke-width="0" stroke-linecap="butt" stroke-linejoin="miter" stroke-miterlimit="10" stroke-dasharray="" stroke-dashoffset="0" style="mix-blend-mode: normal"><path d="M230.1875,180c0,-5.41929 4.39321,-9.8125 9.8125,-9.8125c5.41929,0 9.8125,4.39321 9.8125,9.8125c0,5.41929 -4.39321,9.8125 -9.8125,9.8125c-5.41929,0 -9.8125,-4.39321 -9.8125,-9.8125z" fill="#ffffff"/><path d="M237.74189,173.41186l2.3231,-2.58195l2.19403,2.58195z" fill="#ff3396"/><path d="M242.25903,186.58814l-2.19403,2.58195l-2.3231,-2.58195z" data-paper-data="{&quot;index&quot;:null}" fill="#ff3396"/><path d="M246.58814,177.71019l2.58195,2.3231l-2.58195,2.19403z" data-paper-data="{&quot;origRot&quot;:0}" fill="#ff3396"/><path d="M233.41186,182.22733l-2.58195,-2.19403l2.58195,-2.3231z" data-paper-data="{&quot;index&quot;:null,&quot;origRot&quot;:0}" fill="#ff3396"/><path d="M233.71,176.94941l-0.18304,-3.46839l3.37713,0.2743z" fill="#ff3396"/><path d="M246.22115,183.07235l0.2743,3.37713l-3.46839,-0.18304z" data-paper-data="{&quot;index&quot;:null}" fill="#ff3396"/><path d="M243.00463,173.73355l3.46839,-0.18304l-0.2743,3.37713z" data-paper-data="{&quot;origRot&quot;:0}" fill="#ff3396"/><path d="M236.88169,186.24469l-3.37713,0.2743l0.18304,-3.46839z" data-paper-data="{&quot;index&quot;:null,&quot;origRot&quot;:0}" fill="#ff3396"/><path d="M233.03653,180c0,-3.84582 3.11765,-6.96347 6.96347,-6.96347c3.84582,0 6.96347,3.11765 6.96347,6.96347c0,3.84582 -3.11765,6.96347 -6.96347,6.96347c-3.84582,0 -6.96347,-3.11765 -6.96347,-6.96347z" fill="#ff3396"/></g></g></svg>