<svg version="1.1" xmlns="http://www.w3.org/2000/svg" xmlns:xlink="http://www.w3.org/1999/xlink" width="31.375" height="31" viewBox="0,0,31.375,31"><g transform="translate(-224.125,-164.6875)"><g data-paper-data="{&quot;isPaintingLayer&quot;:true}" fill="#2ee4e4" fill-rule="nonzero" stroke-width="0" stroke-linecap="butt" stroke-linejoin="miter" stroke-miterlimit="10" stroke-dasharray="" stroke-dashoffset="0" style="mix-blend-mode: normal"><path d="M224.125,189.8125c0,-3.24467 2.63033,-5.875 5.875,-5.875c3.24467,0 5.875,2.63033 5.875,5.875c0,3.24467 -2.63033,5.875 -5.875,5.875c-3.24467,0 -5.875,-2.63033 -5.875,-5.875z" stroke="none"/><path d="M244,188.4375c0,-3.17564 2.57436,-5.75 5.75,-5.75c3.17564,0 5.75,2.57436 5.75,5.75c0,3.17564 -2.57436,5.75 -5.75,5.75c-3.17564,0 -5.75,-2.57436 -5.75,-5.75z" stroke="none"/><path d="M230.5,187.8125l0.25,-17.875l22.125,-5.25l0.5,22.875l-2.5455,-0.89268l-0.0399,-17.01029l-17.2896,3.15297c0,0 0.27568,15 -0.25,15c-1.74622,0 -2.75,0 -2.75,0z" stroke="#000000"/></g></g></svg>