<svg version="1.1" xmlns="http://www.w3.org/2000/svg" xmlns:xlink="http://www.w3.org/1999/xlink" width="3756.53589" height="2786.56366" viewBox="0,0,3756.53589,2786.56366"><defs><linearGradient x1="240" y1="-11.5" x2="240" y2="371.5" gradientUnits="userSpaceOnUse" id="color-1"><stop offset="0" stop-color="#1b1b1b"/><stop offset="1" stop-color="#11131b"/></linearGradient><linearGradient x1="229.48432" y1="194.97139" x2="254.20167" y2="190.4988" gradientUnits="userSpaceOnUse" id="color-2"><stop offset="0" stop-color="#3fd0cd" stop-opacity="0"/><stop offset="1" stop-color="#3fd0cd"/></linearGradient><linearGradient x1="254.15338" y1="68.60588" x2="641.2531" y2="68.60588" gradientUnits="userSpaceOnUse" id="color-3"><stop offset="0" stop-color="#8cfeff" stop-opacity="0"/><stop offset="1" stop-color="#8cfeff"/></linearGradient><linearGradient x1="-344.94057" y1="161.0077" x2="295.51788" y2="161.0077" gradientUnits="userSpaceOnUse" id="color-4"><stop offset="0" stop-color="#8cfeff"/><stop offset="1" stop-color="#8cfeff" stop-opacity="0"/></linearGradient><radialGradient cx="263.29888" cy="60.95208" r="29.39246" gradientUnits="userSpaceOnUse" id="color-5"><stop offset="0" stop-color="#ff3396"/><stop offset="1" stop-color="#ff3396" stop-opacity="0"/></radialGradient><linearGradient x1="171.76818" y1="56.53871" x2="171.76818" y2="144.04233" gradientTransform="translate(-75.85008,-64.4316) scale(0.52741,0.52741)" gradientUnits="userSpaceOnUse" id="color-6"><stop offset="0" stop-color="#80fdff"/><stop offset="1" stop-color="#ffffff"/></linearGradient><linearGradient x1="283.12115" y1="87.67727" x2="283.12115" y2="136.71926" gradientTransform="translate(-213.75898,-117.11946) scale(0.94103,0.94103)" gradientUnits="userSpaceOnUse" id="color-7"><stop offset="0" stop-color="#80fdff"/><stop offset="1" stop-color="#ffffff"/></linearGradient><radialGradient cx="263.87719" cy="191.53529" r="1878.26795" gradientUnits="userSpaceOnUse" id="color-8"><stop offset="0" stop-color="#3fd0cd" stop-opacity="0"/><stop offset="1" stop-color="#3fd0cd"/></radialGradient></defs><g transform="translate(1614.39076,1201.74654)"><g data-paper-data="{&quot;isPaintingLayer&quot;:true}" fill-rule="nonzero" stroke-linejoin="miter" stroke-miterlimit="10" stroke-dasharray="" stroke-dashoffset="0" style="mix-blend-mode: normal"><path d="M-10.5,371.5v-383h501v383z" fill="url(#color-1)" stroke="#000000" stroke-width="0" stroke-linecap="butt"/><path d="M232.82012,213.40641l-6.6716,-36.87005l24.71736,-4.47258l6.6716,36.87005z" fill="url(#color-2)" stroke="none" stroke-width="0" stroke-linecap="butt"/><path d="M251.38001,210.76063l-6.85796,-37.89995l37.89995,-6.85796l6.85796,37.89995z" fill="#3fd0cd" stroke="none" stroke-width="0" stroke-linecap="butt"/><path d="M407.60481,158.67389c-2.85745,-9.33096 2.39036,-19.21162 11.72131,-22.06907c9.33096,-2.85745 19.21162,2.39036 22.06907,11.72131c2.85745,9.33096 -2.39036,19.21162 -11.72131,22.06907c-9.33096,2.85745 -19.21162,-2.39036 -22.06907,-11.72131z" fill="#ff3396" stroke="none" stroke-width="0" stroke-linecap="butt"/><path d="M414.11301,139.17499l3.72279,-8.00074l7.25094,4.64022z" fill="#ff3396" stroke="none" stroke-width="0" stroke-linecap="butt"/><path d="M434.88927,167.82437l-3.40925,7.90473l-7.56448,-4.5442z" data-paper-data="{&quot;index&quot;:null}" fill="#ff3396" stroke="none" stroke-width="0" stroke-linecap="butt"/><path d="M438.80147,143.036l8.00074,3.72279l-4.64022,7.25094z" data-paper-data="{&quot;origRot&quot;:0}" fill="#ff3396" stroke="none" stroke-width="0" stroke-linecap="butt"/><path d="M410.15209,163.81227l-7.90473,-3.40925l4.5442,-7.56448z" data-paper-data="{&quot;index&quot;:null,&quot;origRot&quot;:0}" fill="#ff3396" stroke="none" stroke-width="0" stroke-linecap="butt"/><path d="M385.95638,245.73519c-4.41674,0.07929 -8.06149,-3.43691 -8.14078,-7.85364c-0.07929,-4.41674 3.4369,-8.06149 7.85364,-8.14078c4.41674,-0.07929 8.06149,3.43691 8.14078,7.85364c0.07929,4.41674 -3.43691,8.06149 -7.85364,8.14078z" fill="#ff3396" stroke="none" stroke-width="0" stroke-linecap="butt"/><path d="M378.28361,240.47061l-3.01698,-2.61807l2.92373,-2.57626z" fill="#ff3396" stroke="none" stroke-width="0" stroke-linecap="butt"/><path d="M393.34201,235.00427l3.01432,2.46966l-2.92107,2.72467z" data-paper-data="{&quot;index&quot;:null}" fill="#ff3396" stroke="none" stroke-width="0" stroke-linecap="butt"/><path d="M383.04372,230.20943l2.61807,-3.01698l2.57626,2.92373z" data-paper-data="{&quot;origRot&quot;:0}" fill="#ff3396" stroke="none" stroke-width="0" stroke-linecap="butt"/><path d="M388.51007,245.26782l-2.46966,3.01432l-2.72467,-2.92107z" data-paper-data="{&quot;index&quot;:null,&quot;origRot&quot;:0}" fill="#ff3396" stroke="none" stroke-width="0" stroke-linecap="butt"/><path d="M348.66698,209.06565c-4.32294,-0.90886 -7.0906,-5.15008 -6.18173,-9.47302c0.90886,-4.32294 5.15008,-7.0906 9.47302,-6.18174c4.32294,0.90886 7.0906,5.15008 6.18174,9.47302c-0.90886,4.32294 -5.15008,7.0906 -9.47302,6.18174z" fill="#ff3396" stroke="none" stroke-width="0" stroke-linecap="butt"/><path d="M342.36336,202.22083l-2.35627,-3.2256l3.42514,-1.85842z" fill="#ff3396" stroke="none" stroke-width="0" stroke-linecap="butt"/><path d="M358.26212,200.25466l2.3868,3.08034l-3.45568,2.00368z" data-paper-data="{&quot;index&quot;:null}" fill="#ff3396" stroke="none" stroke-width="0" stroke-linecap="butt"/><path d="M349.29439,193.28148l3.2256,-2.35627l1.85842,3.42514z" data-paper-data="{&quot;origRot&quot;:0}" fill="#ff3396" stroke="none" stroke-width="0" stroke-linecap="butt"/><path d="M351.26056,209.18025l-3.08034,2.38681l-2.00368,-3.45568z" data-paper-data="{&quot;index&quot;:null,&quot;origRot&quot;:0}" fill="#ff3396" stroke="none" stroke-width="0" stroke-linecap="butt"/><path d="M305.69525,245.70823c-2.47338,-3.66008 -1.51136,-8.63224 2.14872,-11.10563c3.66008,-2.47338 8.63224,-1.51137 11.10562,2.14872c2.47338,3.66008 1.51137,8.63224 -2.14871,11.10563c-3.66008,2.47338 -8.63225,1.51137 -11.10563,-2.14872z" fill="#ff3396" stroke="none" stroke-width="0" stroke-linecap="butt"/><path d="M305.92816,236.40593l0.55107,-3.95636l3.7534,1.04753z" fill="#ff3396" stroke="none" stroke-width="0" stroke-linecap="butt"/><path d="M318.7176,246.05305l-0.42808,3.87325l-3.87638,-0.96442z" data-paper-data="{&quot;index&quot;:null}" fill="#ff3396" stroke="none" stroke-width="0" stroke-linecap="butt"/><path d="M317.12589,234.8053l3.95636,0.55107l-1.04753,3.7534z" data-paper-data="{&quot;origRot&quot;:0}" fill="#ff3396" stroke="none" stroke-width="0" stroke-linecap="butt"/><path d="M307.47877,247.59473l-3.87325,-0.42808l0.96442,-3.87638z" data-paper-data="{&quot;index&quot;:null,&quot;origRot&quot;:0}" fill="#ff3396" stroke="none" stroke-width="0" stroke-linecap="butt"/><path d="M158.59042,235.36793c0,-5.65583 4.58496,-10.2408 10.2408,-10.2408c5.65583,0 10.2408,4.58496 10.2408,10.2408c0,5.65583 -4.58496,10.2408 -10.2408,10.2408c-5.65583,0 -10.2408,-4.58496 -10.2408,-10.2408z" fill="#ff339a" stroke="none" stroke-width="0" stroke-linecap="butt"/><path d="M148.63592,235.74898c0,-11.22369 9.0986,-20.32229 20.32229,-20.32229c11.22369,0 20.32229,9.0986 20.32229,20.32229c0,11.22369 -9.0986,20.32229 -20.32229,20.32229c-11.22369,0 -20.32229,-9.0986 -20.32229,-20.32229z" fill="none" stroke="#ff339a" stroke-width="5" stroke-linecap="butt"/><path d="M85.7188,170.54829c0,-3.78948 3.07199,-6.86148 6.86148,-6.86148c3.78948,0 6.86148,3.07199 6.86148,6.86148c0,3.78948 -3.07199,6.86148 -6.86148,6.86148c-3.78948,0 -6.86148,-3.07199 -6.86148,-6.86148z" fill="#ff339a" stroke="none" stroke-width="0" stroke-linecap="butt"/><path d="M75.68738,170.54829c0,-9.32969 7.56321,-16.89291 16.89291,-16.89291c9.32969,0 16.89291,7.56321 16.89291,16.89291c0,9.32969 -7.56321,16.89291 -16.89291,16.89291c-9.32969,0 -16.89291,-7.56321 -16.89291,-16.89291z" fill="none" stroke="#ff339a" stroke-width="5" stroke-linecap="butt"/><path d="M42.77774,286.33673c0,-2.92438 2.4465,-5.29507 5.46443,-5.29507c3.01791,0 5.46443,2.37068 5.46443,5.29507c0,2.92438 -2.4465,5.29507 -5.46443,5.29507c-3.01791,0 -5.46443,-2.37068 -5.46443,-5.29507z" fill="#ff339a" stroke="none" stroke-width="0" stroke-linecap="butt"/><path d="M32.70408,286.33673c0,-8.58145 6.95663,-15.53808 15.53808,-15.53808c8.58145,0 15.53808,6.95663 15.53808,15.53808c0,8.58145 -6.95663,15.53808 -15.53808,15.53808c-8.58145,0 -15.53808,-6.95663 -15.53808,-15.53808z" fill="none" stroke="#ff339a" stroke-width="5" stroke-linecap="butt"/><path d="M28.14168,213.59485c0,-1.40296 1.13732,-2.54028 2.54028,-2.54028c1.40296,0 2.54028,1.13732 2.54028,2.54028c0,1.40296 -1.13732,2.54028 -2.54028,2.54028c-1.40296,0 -2.54028,-1.13732 -2.54028,-2.54028z" fill="#ff339a" stroke="none" stroke-width="0.5" stroke-linecap="butt"/><path d="M53.54454,221.72378c0,-1.40296 1.13732,-2.54028 2.54028,-2.54028c1.40296,0 2.54028,1.13732 2.54028,2.54028c0,1.40296 -1.13732,2.54028 -2.54028,2.54028c-1.40296,0 -2.54028,-1.13732 -2.54028,-2.54028z" fill="#ff339a" stroke="none" stroke-width="0.5" stroke-linecap="butt"/><path d="M76.91517,234.59456c0,-1.40296 1.13732,-2.54028 2.54028,-2.54028c1.40296,0 2.54028,1.13732 2.54028,2.54028c0,1.40296 -1.13732,2.54028 -2.54028,2.54028c-1.40296,0 -2.54028,-1.13732 -2.54028,-2.54028z" fill="#ff339a" stroke="none" stroke-width="0.5" stroke-linecap="butt"/><path d="M93.51172,257.28779c0,-1.40296 1.13732,-2.54028 2.54028,-2.54028c1.40296,0 2.54028,1.13732 2.54028,2.54028c0,1.40296 -1.13732,2.54028 -2.54028,2.54028c-1.40296,0 -2.54028,-1.13732 -2.54028,-2.54028z" fill="#ff339a" stroke="none" stroke-width="0.5" stroke-linecap="butt"/><path d="M101.97933,290.14216c0,-1.40296 1.13732,-2.54028 2.54028,-2.54028c1.40296,0 2.54028,1.13732 2.54028,2.54028c0,1.40296 -1.13732,2.54028 -2.54028,2.54028c-1.40296,0 -2.54028,-1.13732 -2.54028,-2.54028z" fill="#ff339a" stroke="none" stroke-width="0.5" stroke-linecap="butt"/><path d="M95.20523,320.9643c0,-1.40296 1.13732,-2.54028 2.54028,-2.54028c1.40296,0 2.54028,1.13732 2.54028,2.54028c0,1.40296 -1.13732,2.54028 -2.54028,2.54028c-1.40296,0 -2.54028,-1.13732 -2.54028,-2.54028z" fill="#ff339a" stroke="none" stroke-width="0.5" stroke-linecap="butt"/><path d="M-22.35281,362.46532l25.04997,-32.84113l23.65827,32.84113z" fill="#ff3396" stroke="none" stroke-width="0" stroke-linecap="butt"/><path d="M24.64719,362.46532l25.04997,-32.84113l23.65827,32.84113z" fill="#ff3396" stroke="none" stroke-width="0" stroke-linecap="butt"/><path d="M71.64718,362.46532l25.04997,-32.84113l23.65827,32.84113z" fill="#ff3396" stroke="none" stroke-width="0" stroke-linecap="butt"/><path d="M118.64719,362.46532l25.04996,-32.84113l23.65828,32.84113z" fill="#ff3396" stroke="none" stroke-width="0" stroke-linecap="butt"/><path d="M165.64719,362.46532l25.04997,-32.84113l23.65827,32.84113z" fill="#ff3396" stroke="none" stroke-width="0" stroke-linecap="butt"/><path d="M212.64719,362.46532l25.04996,-32.84113l23.65828,32.84113z" fill="#ff3396" stroke="none" stroke-width="0" stroke-linecap="butt"/><path d="M259.64718,362.46532l25.04996,-32.84113l23.65827,32.84113z" fill="#ff3396" stroke="none" stroke-width="0" stroke-linecap="butt"/><path d="M306.64718,362.46532l25.04996,-32.84113l23.65828,32.84113z" fill="#ff3396" stroke="none" stroke-width="0" stroke-linecap="butt"/><path d="M353.64719,362.46532l25.04996,-32.84113l23.65827,32.84113z" fill="#ff3396" stroke="none" stroke-width="0" stroke-linecap="butt"/><path d="M400.64719,362.46532l25.04996,-32.84113l23.65828,32.84113z" fill="#ff3396" stroke="none" stroke-width="0" stroke-linecap="butt"/><path d="M447.64719,361.46532l25.04996,-32.84113l23.65828,32.84113z" fill="#ff3396" stroke="none" stroke-width="0" stroke-linecap="butt"/><path d="M254.15338,117.11341l133.51753,-60.51522l-39.7322,84.87869z" fill="url(#color-3)" stroke="#000000" stroke-width="0" stroke-linecap="round"/><path d="M241.92225,13.36611l-88.24933,105.31243l-76.50554,-71.02156z" fill="url(#color-4)" stroke="#000000" stroke-width="0" stroke-linecap="round"/><path d="M263.07297,30.23266l29.09529,53.55216h-58.7849z" fill="url(#color-5)" stroke="#981a53" stroke-width="0" stroke-linecap="round"/><text transform="translate(117.66996,53.97949) scale(0.85099,0.85099)" font-size="40" xml:space="preserve" fill="#ffffff" fill-rule="nonzero" stroke="none" stroke-width="1" stroke-linecap="butt" stroke-linejoin="miter" stroke-miterlimit="10" stroke-dasharray="" stroke-dashoffset="0" font-family="Sans Serif" font-weight="normal" text-anchor="start" style="mix-blend-mode: normal"><tspan x="0" dy="0">just</tspan></text><text transform="translate(188.28458,73.75939) scale(1.02179,1.02179)" font-size="40" xml:space="preserve" fill="#ffffff" fill-rule="nonzero" stroke="none" stroke-width="1" stroke-linecap="butt" stroke-linejoin="miter" stroke-miterlimit="10" stroke-dasharray="" stroke-dashoffset="0" font-family="Sans Serif" font-weight="normal" text-anchor="start" style="mix-blend-mode: normal"><tspan x="0" dy="0">sh</tspan></text><path d="M263.15921,40.10581l19.09432,35.14459h-38.57868z" fill="#ff3396" stroke="#981a53" stroke-width="1.5" stroke-linecap="round"/><path d="M262.9987,53.57301l7.24678,12.14697h-14.56257z" fill="#ffffff" stroke="#981a53" stroke-width="1.5" stroke-linecap="round"/><path d="M251.37405,74.43741l4.27346,-8.54691" fill="none" stroke="#981a53" stroke-width="1.5" stroke-linecap="round"/><text transform="translate(291.7016,73.50838) scale(1.02179,1.02179)" font-size="40" xml:space="preserve" fill="#ffffff" fill-rule="nonzero" stroke="none" stroke-width="1" stroke-linecap="butt" stroke-linejoin="miter" stroke-miterlimit="10" stroke-dasharray="" stroke-dashoffset="0" font-family="Sans Serif" font-weight="normal" text-anchor="start" style="mix-blend-mode: normal"><tspan x="0" dy="0">pes</tspan></text><text transform="translate(143.81707,122.16682) scale(1.89607,1.89607)" font-size="40" xml:space="preserve" fill="url(#color-6)" fill-rule="nonzero" stroke="none" stroke-width="1" stroke-linecap="butt" stroke-linejoin="miter" stroke-miterlimit="10" stroke-dasharray="" stroke-dashoffset="0" font-family="Sans Serif" font-weight="normal" text-anchor="start" style="mix-blend-mode: normal"><tspan x="0" dy="0">&amp;</tspan></text><text transform="translate(227.15312,124.45817) scale(1.06266,1.06266)" font-size="40" xml:space="preserve" fill="url(#color-7)" fill-rule="nonzero" stroke="none" stroke-width="1" stroke-linecap="butt" stroke-linejoin="miter" stroke-miterlimit="10" stroke-dasharray="" stroke-dashoffset="0" font-family="Sans Serif" font-weight="normal" text-anchor="start" style="mix-blend-mode: normal"><tspan x="0" dy="0">beats</tspan></text><path d="M-1614.39076,1584.81712v-2786.56366h3756.53589v2786.56366z" fill="url(#color-8)" stroke="none" stroke-width="0" stroke-linecap="butt"/></g></g></svg>