<svg version="1.1" xmlns="http://www.w3.org/2000/svg" xmlns:xlink="http://www.w3.org/1999/xlink" width="11.24183" height="11.24183" viewBox="0,0,11.24183,11.24183"><g transform="translate(-234.37908,-174.37908)"><g data-paper-data="{&quot;isPaintingLayer&quot;:true}" fill="#ff3396" fill-rule="nonzero" stroke="none" stroke-width="0" stroke-linecap="butt" stroke-linejoin="miter" stroke-miterlimit="10" stroke-dasharray="" stroke-dashoffset="0" style="mix-blend-mode: normal"><path d="M237.31963,176.4165l0.91852,-2.03741l1.85031,1.15312z"/><path d="M242.6679,183.60876l-0.8394,2.01215l-1.92942,-1.12786z" data-paper-data="{&quot;index&quot;:null}"/><path d="M243.5835,177.31944l2.03741,0.91852l-1.15312,1.85031z" data-paper-data="{&quot;origRot&quot;:0}"/><path d="M236.39124,182.66771l-2.01215,-0.8394l1.12786,-1.92942z" data-paper-data="{&quot;index&quot;:null,&quot;origRot&quot;:0}"/><path d="M235.54076,179.37418l-0.79118,-2.09016l2.12375,-0.49299z"/><path d="M244.40826,180.67808l0.82925,2.01636l-2.16182,0.56679z" data-paper-data="{&quot;index&quot;:null}"/><path d="M240.60846,175.58343l2.09016,-0.79118l0.49299,2.12375z" data-paper-data="{&quot;origRot&quot;:0}"/><path d="M239.30457,184.45093l-2.01636,0.82925l-0.56679,-2.16182z" data-paper-data="{&quot;index&quot;:null,&quot;origRot&quot;:0}"/><path d="M235.73166,181.36319c-0.75287,-2.35733 0.5478,-4.87866 2.90514,-5.63153c2.35733,-0.75287 4.87866,0.5478 5.63153,2.90514c0.75287,2.35733 -0.5478,4.87866 -2.90514,5.63153c-2.35733,0.75287 -4.87866,-0.5478 -5.63153,-2.90514z"/></g></g></svg>