<svg version="1.1" xmlns="http://www.w3.org/2000/svg" xmlns:xlink="http://www.w3.org/1999/xlink" width="32.83333" height="32.83333" viewBox="0,0,32.83333,32.83333"><g transform="translate(-223.58333,-163.58333)"><g data-paper-data="{&quot;isPaintingLayer&quot;:true}" fill-rule="nonzero" stroke="none" stroke-width="0" stroke-linecap="butt" stroke-linejoin="miter" stroke-miterlimit="10" stroke-dasharray="" stroke-dashoffset="0" style="mix-blend-mode: normal"><path d="M223.58333,180c0,-9.06667 7.34999,-16.41667 16.41667,-16.41667c9.06667,0 16.41667,7.34999 16.41667,16.41667c0,9.06667 -7.34999,16.41667 -16.41667,16.41667c-9.06667,0 -16.41667,-7.34999 -16.41667,-16.41667z" fill="#ffffff"/><path d="M237.0659,171.43961l3.01855,-3.35489l2.85084,3.35489z" fill="#ff3396"/><path d="M242.9353,188.56039l-2.85084,3.35489l-3.01855,-3.35489z" data-paper-data="{&quot;index&quot;:null}" fill="#ff3396"/><path d="M248.56039,177.02471l3.35489,3.01855l-3.35489,2.85084z" data-paper-data="{&quot;origRot&quot;:0}" fill="#ff3396"/><path d="M231.43961,182.89411l-3.35489,-2.85084l3.35489,-3.01855z" data-paper-data="{&quot;index&quot;:null,&quot;origRot&quot;:0}" fill="#ff3396"/><path d="M231.82701,176.03617l-0.23783,-4.5067l4.38812,0.35641z" fill="#ff3396"/><path d="M248.08353,183.9921l0.35641,4.38812l-4.5067,-0.23783z" data-paper-data="{&quot;index&quot;:null}" fill="#ff3396"/><path d="M243.90411,171.8576l4.5067,-0.23783l-0.35641,4.38812z" data-paper-data="{&quot;origRot&quot;:0}" fill="#ff3396"/><path d="M235.94818,188.11412l-4.38812,0.35641l0.23783,-4.5067z" data-paper-data="{&quot;index&quot;:null,&quot;origRot&quot;:0}" fill="#ff3396"/><path d="M230.95193,180c0,-4.99711 4.05096,-9.04807 9.04807,-9.04807c4.99711,0 9.04807,4.05096 9.04807,9.04807c0,4.99711 -4.05096,9.04807 -9.04807,9.04807c-4.99711,0 -9.04807,-4.05096 -9.04807,-9.04807z" fill="#ff3396"/></g></g></svg>