<svg version="1.1" xmlns="http://www.w3.org/2000/svg" xmlns:xlink="http://www.w3.org/1999/xlink" width="91.17882" height="26.44766" viewBox="0,0,91.17882,26.44766"><g transform="translate(-216.75868,-166.03149)"><g data-paper-data="{&quot;isPaintingLayer&quot;:true}" fill-rule="nonzero" stroke-linejoin="miter" stroke-miterlimit="10" stroke-dasharray="" stroke-dashoffset="0" style="mix-blend-mode: normal"><path d="M242.64956,179.25532c0,7.30333 -5.79587,13.22383 -12.94544,13.22383c-7.14957,0 -12.94544,-5.92052 -12.94544,-13.22383c0,-7.30333 5.79587,-13.22383 12.94544,-13.22383c7.14957,0 12.94544,5.92052 12.94544,13.22383z" fill="#000000" stroke="none" stroke-width="0" stroke-linecap="butt"/><path d="M219.54263,178.97691c0,-5.61202 4.54945,-10.16149 10.16149,-10.16149c5.61202,0 10.16149,4.54945 10.16149,10.16149c0,5.61202 -4.54945,10.16149 -10.16149,10.16149c-5.61202,0 -10.16149,-4.54945 -10.16149,-10.16149z" fill="#ffffff" stroke="none" stroke-width="0" stroke-linecap="butt"/><path d="M233.74085,175.49696l-4.45435,4.45435l-4.45435,-7.23831" fill="none" stroke="#000000" stroke-width="1.5" stroke-linecap="round"/><path d="M300.8291,174.01674c0,-1.933 1.54396,-3.5 3.44853,-3.5c1.90457,0 3.44853,1.567 3.44853,3.5c0,1.933 -1.54396,3.5 -3.44853,3.5c-1.90457,0 -3.44853,-1.567 -3.44853,-3.5z" fill="#000000" stroke="none" stroke-width="0" stroke-linecap="butt"/><path d="M301.9541,173.95424c0,-1.27716 1.04028,-2.3125 2.32353,-2.3125c1.28325,0 2.32353,1.03534 2.32353,2.3125c0,1.27716 -1.04028,2.3125 -2.32353,2.3125c-1.28325,0 -2.32353,-1.03534 -2.32353,-2.3125z" fill="#ffffff" stroke="none" stroke-width="0" stroke-linecap="butt"/><path d="M301.9541,183.95424c0,-1.27715 1.04028,-2.3125 2.32353,-2.3125c1.28325,0 2.32353,1.03535 2.32353,2.3125c0,1.27715 -1.04028,2.3125 -2.32353,2.3125c-1.28325,0 -2.32353,-1.03535 -2.32353,-2.3125z" fill="#ffffff" stroke="none" stroke-width="0" stroke-linecap="butt"/><path d="M300.1875,177.9375v-7.75h7.75v7.75z" fill="#000000" stroke="none" stroke-width="0" stroke-linecap="butt"/><path d="M300.1875,188.6875v-7.75h7.75v7.75z" fill="#000000" stroke="none" stroke-width="0" stroke-linecap="butt"/></g></g></svg>