<svg version="1.1" xmlns="http://www.w3.org/2000/svg" xmlns:xlink="http://www.w3.org/1999/xlink" width="115.18343" height="27.63798" viewBox="0,0,115.18343,27.63798"><g transform="translate(-192.75407,-165.3021)"><g data-paper-data="{&quot;isPaintingLayer&quot;:true}" fill-rule="nonzero" stroke-linecap="butt" stroke-linejoin="miter" stroke-miterlimit="10" stroke-dasharray="" stroke-dashoffset="0" style="mix-blend-mode: normal"><path d="M240.33013,190.30182c-0.47585,0.01061 -1.07072,0.0188 -1.76943,0.02472c-5.4877,0.04655 -15.51978,-0.04679 -24.76729,-0.20967c-7.80871,-0.13754 -15.05799,-0.32466 -18.53934,-0.51901c-4.99585,-0.2789 -2.89748,-8.04046 -1.74338,-10.63744c4.95106,-11.14104 14.27843,-4.28791 14.27843,-4.28791c0,0 3.92821,-9.27609 8.87239,-9.37041c12.20588,-0.23289 12.65898,8.50177 12.65898,8.50177c0,0 -0.24687,2.00667 0.1295,1.899c2.38555,-0.68244 4.1678,-4.65614 11.47156,-1.64761c6.94332,5.87292 2.58428,16.17577 -0.59143,16.24657z" fill="#ffffff" stroke="#000000" stroke-width="5"/><path d="M300.8291,174.01675c0,-1.933 1.54396,-3.5 3.44853,-3.5c1.90457,0 3.44853,1.567 3.44853,3.5c0,1.933 -1.54396,3.5 -3.44853,3.5c-1.90457,0 -3.44853,-1.567 -3.44853,-3.5z" fill="#000000" stroke="none" stroke-width="0"/><path d="M301.9541,173.95425c0,-1.27716 1.04028,-2.3125 2.32353,-2.3125c1.28325,0 2.32353,1.03534 2.32353,2.3125c0,1.27716 -1.04028,2.3125 -2.32353,2.3125c-1.28325,0 -2.32353,-1.03534 -2.32353,-2.3125z" fill="#ffffff" stroke="none" stroke-width="0"/><path d="M301.9541,183.95425c0,-1.27715 1.04028,-2.3125 2.32353,-2.3125c1.28325,0 2.32353,1.03535 2.32353,2.3125c0,1.27715 -1.04028,2.3125 -2.32353,2.3125c-1.28325,0 -2.32353,-1.03535 -2.32353,-2.3125z" fill="#ffffff" stroke="none" stroke-width="0"/><path d="M300.1875,177.93751v-7.75h7.75v7.75z" fill="#000000" stroke="none" stroke-width="0"/><path d="M300.1875,188.68751v-7.75h7.75v7.75z" fill="#000000" stroke="none" stroke-width="0"/></g></g></svg>